{"glyphs":{"0":{"ha":819,"x_min":51,"x_max":768,"o":"m 183 472 q 194 315 183 385 q 232 197 206 244 q 302 123 258 149 q 411 97 346 97 q 519 123 476 97 q 589 197 563 149 q 626 315 615 244 q 636 472 636 385 q 626 630 636 560 q 589 748 615 700 q 519 822 563 796 q 411 847 476 847 q 302 822 346 847 q 232 748 258 796 q 194 630 206 700 q 183 472 183 560 m 768 472 q 748 267 768 358 q 685 113 728 176 q 574 14 642 49 q 411 -21 507 -21 q 247 14 315 -21 q 135 113 179 49 q 72 267 92 176 q 51 472 51 358 q 72 677 51 586 q 135 832 92 768 q 247 931 179 896 q 411 965 315 965 q 574 931 507 965 q 685 832 642 896 q 748 677 728 768 q 768 472 768 586 z "},"1":{"ha":819,"x_min":156,"x_max":696,"o":"m 169 751 l 169 864 l 394 944 l 500 944 l 500 115 l 696 115 l 696 0 l 156 0 l 156 115 l 372 115 l 372 810 l 369 810 l 188 751 l 169 751 z "},"2":{"ha":819,"x_min":96,"x_max":713,"o":"m 278 115 l 713 115 l 713 0 l 99 0 l 99 101 l 449 450 q 494 498 472 474 q 533 549 517 522 q 560 605 550 575 q 571 669 571 635 q 522 796 571 744 q 383 847 472 847 q 250 822 301 847 q 156 758 199 796 l 96 847 q 144 886 117 865 q 207 924 172 907 q 285 953 242 942 q 383 965 329 965 q 510 944 451 965 q 611 884 568 922 q 678 791 654 846 q 703 669 703 736 q 692 585 703 624 q 660 512 681 546 q 613 447 640 478 q 553 383 586 415 l 278 118 l 278 115 z "},"3":{"ha":819,"x_min":81,"x_max":715,"o":"m 217 539 l 385 539 q 519 584 478 539 q 560 693 560 629 q 516 802 560 757 q 385 847 472 847 q 262 835 319 847 q 144 799 204 822 l 106 903 q 166 928 132 917 q 236 949 200 940 q 310 961 272 957 q 386 965 349 965 q 613 894 533 965 q 692 701 692 822 q 680 628 692 663 q 649 567 668 594 q 607 520 631 540 q 560 490 583 500 l 560 488 q 672 401 628 461 q 715 253 715 340 q 690 140 715 190 q 620 54 665 90 q 513 -1 575 18 q 376 -21 450 -21 q 209 -1 285 -21 q 81 50 133 18 l 125 154 q 247 110 186 124 q 375 97 307 97 q 456 108 418 97 q 522 139 493 118 q 567 190 550 160 q 583 261 583 221 q 574 324 583 294 q 540 376 564 354 q 476 411 515 399 q 376 424 436 424 l 217 424 l 217 539 z "},"4":{"ha":819,"x_min":39,"x_max":769,"o":"m 506 667 l 633 667 l 633 315 l 769 315 l 769 200 l 633 200 l 633 0 l 506 0 l 506 200 l 39 200 l 39 297 l 328 944 l 457 944 l 181 318 l 181 315 l 506 315 l 506 667 z "},"5":{"ha":819,"x_min":89,"x_max":717,"o":"m 150 471 l 208 944 l 682 944 l 682 829 l 311 829 l 279 578 q 324 580 299 579 q 376 581 350 581 q 515 564 451 581 q 622 512 578 547 q 692 421 667 476 q 717 288 717 365 q 690 153 717 211 q 615 57 663 96 q 499 -1 567 18 q 350 -21 431 -21 q 284 -16 319 -21 q 213 -3 249 -11 q 146 14 178 4 q 89 35 114 24 l 122 146 q 350 97 235 97 q 447 108 403 97 q 521 141 490 118 q 568 200 551 164 q 585 288 585 236 q 533 418 585 374 q 360 463 481 463 q 260 460 315 463 q 163 456 204 458 l 150 471 z "},"6":{"ha":819,"x_min":76,"x_max":753,"o":"m 532 931 l 299 582 l 301 579 q 361 606 321 594 q 447 618 401 618 q 572 595 515 618 q 668 531 628 572 q 731 432 708 490 q 753 303 753 374 q 730 176 753 235 q 664 73 707 117 q 558 4 621 29 q 415 -21 496 -21 q 271 4 333 -21 q 165 73 208 29 q 99 176 121 117 q 76 303 76 235 q 97 435 76 369 q 153 557 118 501 l 394 944 l 532 944 l 532 931 m 621 303 q 565 449 621 399 q 415 500 508 500 q 264 449 319 500 q 208 303 208 399 q 264 153 208 210 q 415 97 319 97 q 565 153 508 97 q 621 303 621 210 z "},"7":{"ha":819,"x_min":107,"x_max":714,"o":"m 243 14 l 575 826 l 575 829 l 107 829 l 107 944 l 714 944 l 714 847 l 378 0 l 243 0 l 243 14 z "},"8":{"ha":819,"x_min":67,"x_max":751,"o":"m 410 97 q 569 144 518 97 q 619 267 619 192 q 569 389 619 342 q 410 436 518 436 q 248 389 297 436 q 199 267 199 342 q 250 144 199 192 q 410 97 301 97 m 410 965 q 547 945 489 965 q 642 890 604 925 q 697 806 679 854 q 715 701 715 757 q 677 571 715 619 q 593 499 639 522 l 593 496 q 706 405 661 465 q 751 260 751 344 q 730 147 751 199 q 666 58 708 96 q 559 0 624 21 q 410 -21 494 -21 q 260 0 324 -21 q 153 58 196 21 q 88 147 110 96 q 67 260 67 199 q 113 405 67 344 q 226 496 158 465 l 226 499 q 181 528 203 511 q 142 571 160 546 q 113 628 124 596 q 103 701 103 660 q 121 806 103 757 q 176 890 139 854 q 272 945 214 925 q 410 965 331 965 m 410 551 q 540 590 496 551 q 583 699 583 628 q 540 808 583 769 q 410 847 496 847 q 278 808 322 847 q 235 699 235 769 q 278 590 235 628 q 410 551 322 551 z "},"9":{"ha":819,"x_min":67,"x_max":743,"o":"m 288 14 l 521 363 l 518 365 q 458 338 499 350 q 372 326 418 326 q 248 349 304 326 q 151 413 192 372 q 89 513 111 454 q 67 642 67 571 q 90 769 67 710 q 156 872 113 828 q 261 940 199 915 q 404 965 324 965 q 548 940 485 965 q 655 872 611 915 q 721 769 699 828 q 743 642 743 710 q 722 508 743 575 q 667 388 701 442 l 425 0 l 288 0 l 288 14 m 199 642 q 255 495 199 546 q 404 444 311 444 q 556 495 500 444 q 611 642 611 546 q 556 791 611 735 q 404 847 500 847 q 255 791 311 847 q 199 642 199 735 z "}," ":{"ha":349,"x_min":0,"x_max":0,"o":""},"!":{"ha":367,"x_min":96,"x_max":272,"o":"m 224 292 l 143 292 l 119 707 l 119 944 l 247 944 l 247 707 l 224 292 m 96 69 q 120 135 96 110 q 185 160 144 160 q 249 135 225 160 q 272 69 272 110 q 249 4 272 29 q 185 -21 225 -21 q 120 4 144 -21 q 96 69 96 29 z "},"\"":{"ha":531,"x_min":96,"x_max":435,"o":"m 411 561 l 331 561 l 307 806 l 307 944 l 435 944 l 435 806 l 411 561 m 200 561 l 119 561 l 96 806 l 96 944 l 224 944 l 224 806 l 200 561 z "},"#":{"ha":957,"x_min":57,"x_max":900,"o":"m 126 0 l 126 14 l 189 240 l 57 240 l 57 343 l 218 343 l 292 606 l 157 606 l 157 708 l 321 708 l 388 944 l 503 944 l 503 931 l 440 708 l 647 708 l 714 944 l 828 944 l 828 931 l 765 708 l 900 708 l 900 606 l 736 606 l 663 343 l 800 343 l 800 240 l 633 240 l 567 0 l 451 0 l 451 14 l 515 240 l 308 240 l 242 0 l 126 0 m 338 343 l 544 343 l 618 606 l 411 606 l 338 343 z "},"$":{"ha":819,"x_min":101,"x_max":714,"o":"m 158 183 q 255 126 203 147 q 371 99 307 104 l 371 426 l 342 438 q 180 537 238 474 q 122 693 122 600 q 187 872 122 799 q 371 961 251 944 l 371 1069 l 468 1069 l 468 963 q 594 933 532 956 q 693 888 656 911 l 642 785 q 557 824 601 808 q 468 844 513 839 l 468 528 q 572 480 526 506 q 649 422 617 454 q 697 349 681 390 q 714 257 714 308 q 697 158 714 204 q 647 77 679 113 q 569 17 614 42 q 468 -15 524 -7 l 468 -150 l 371 -150 l 371 -19 q 217 17 283 -12 q 101 82 150 46 l 158 183 m 251 703 q 256 657 251 678 q 275 619 261 636 q 312 587 289 601 q 371 560 335 572 l 371 844 q 280 793 308 831 q 251 703 251 756 m 585 249 q 558 335 585 306 q 468 393 531 365 l 468 99 q 553 147 521 111 q 585 249 585 183 z "},"%":{"ha":1079,"x_min":60,"x_max":1019,"o":"m 161 707 q 185 585 161 625 q 257 546 210 546 q 328 585 304 546 q 353 707 353 625 q 328 828 353 788 q 257 868 304 868 q 186 828 211 868 q 161 707 161 788 m 454 707 q 442 609 454 654 q 404 531 429 564 q 342 480 379 499 q 257 461 306 461 q 172 480 208 461 q 110 531 135 499 q 72 609 85 564 q 60 707 60 654 q 72 805 60 760 q 110 883 85 850 q 172 934 135 915 q 257 953 208 953 q 342 934 306 953 q 404 883 379 915 q 442 805 429 850 q 454 707 454 760 m 726 235 q 751 113 726 153 q 822 74 775 74 q 894 113 869 74 q 918 235 918 153 q 894 356 918 315 q 822 396 869 396 q 751 356 776 396 q 726 235 726 315 m 1019 235 q 1007 137 1019 182 q 969 59 994 92 q 908 8 944 26 q 822 -11 871 -11 q 737 8 774 -11 q 675 59 700 26 q 638 137 650 92 q 625 235 625 182 q 638 333 625 288 q 675 410 650 378 q 737 462 700 443 q 822 481 774 481 q 908 462 871 481 q 969 410 944 443 q 1007 333 994 378 q 1019 235 1019 288 m 179 0 l 179 14 l 800 944 l 906 944 l 906 931 l 285 0 l 179 0 z "},"&":{"ha":971,"x_min":74,"x_max":933,"o":"m 889 414 q 818 298 853 351 q 747 200 783 244 l 933 14 l 933 0 l 788 0 l 674 115 q 530 14 606 49 q 363 -21 454 -21 q 238 -2 292 -21 q 147 50 183 17 q 92 128 111 83 q 74 226 74 174 q 91 313 74 274 q 136 383 108 351 q 198 438 164 414 q 264 479 232 461 l 297 499 l 285 511 q 203 613 236 560 q 169 726 169 667 q 187 815 169 772 q 238 892 204 858 q 318 945 271 925 q 426 965 365 965 q 530 945 483 965 q 610 892 576 925 q 662 815 643 858 q 681 728 681 772 q 668 657 681 689 q 635 599 656 625 q 588 553 614 574 q 533 515 561 532 l 472 478 l 668 282 q 729 369 699 322 q 792 475 760 417 l 889 414 m 367 97 q 593 197 489 97 l 375 419 l 340 399 q 242 321 278 360 q 206 226 206 282 q 247 133 206 169 q 367 97 288 97 m 300 724 q 317 655 300 692 q 386 567 335 618 l 396 556 l 464 594 q 526 651 504 618 q 549 724 549 683 q 519 810 549 774 q 426 847 489 847 q 329 811 358 847 q 300 724 300 775 z "},"'":{"ha":319,"x_min":96,"x_max":224,"o":"m 200 561 l 119 561 l 96 806 l 96 944 l 224 944 l 224 806 l 200 561 z "},"(":{"ha":396,"x_min":72,"x_max":336,"o":"m 72 349 q 86 540 72 450 q 124 711 100 631 q 178 862 147 792 q 246 994 210 932 l 336 953 q 237 663 269 814 q 204 347 204 511 q 237 32 204 183 q 336 -258 269 -119 l 246 -300 q 178 -167 210 -237 q 124 -17 147 -97 q 86 155 100 64 q 72 349 72 246 l 72 349 z "},")":{"ha":396,"x_min":60,"x_max":324,"o":"m 324 349 q 310 155 324 246 q 272 -17 296 64 q 217 -167 249 -97 q 149 -300 185 -237 l 60 -258 q 159 32 126 -119 q 192 347 192 183 q 159 663 192 511 q 60 953 126 814 l 149 994 q 217 862 185 932 q 272 711 249 792 q 310 540 296 631 q 324 349 324 450 z "},"*":{"ha":593,"x_min":79,"x_max":513,"o":"m 254 674 l 128 589 l 79 674 l 213 743 l 213 746 l 79 815 l 126 901 l 251 817 l 254 818 l 247 972 l 344 972 l 335 818 l 338 817 l 464 901 l 513 817 l 379 747 l 379 744 l 513 675 l 465 589 l 336 675 l 335 674 l 344 518 l 247 518 l 256 672 l 254 674 z "},"+":{"ha":819,"x_min":78,"x_max":740,"o":"m 461 426 l 740 426 l 740 324 l 461 324 l 461 25 l 354 25 l 354 324 l 78 324 l 78 426 l 354 426 l 354 724 l 461 724 l 461 426 z "},",":{"ha":354,"x_min":57,"x_max":257,"o":"m 57 -210 l 114 142 l 257 142 l 257 128 l 156 -224 l 57 -224 l 57 -210 z "},"-":{"ha":568,"x_min":100,"x_max":468,"o":"m 100 324 l 100 426 l 468 426 l 468 324 l 100 324 z "},".":{"ha":353,"x_min":88,"x_max":265,"o":"m 88 69 q 112 135 88 110 q 176 160 136 160 q 241 135 217 160 q 265 69 265 110 q 241 4 265 29 q 176 -21 217 -21 q 112 4 136 -21 q 88 69 88 29 z "},"/":{"ha":560,"x_min":43,"x_max":517,"o":"m 43 0 l 43 14 l 403 944 l 517 944 l 517 931 l 158 0 l 43 0 z "},":":{"ha":378,"x_min":100,"x_max":278,"o":"m 100 600 q 124 665 100 640 q 189 690 149 690 q 253 665 229 690 q 278 600 278 640 q 253 535 278 560 q 189 510 229 510 q 124 535 149 510 q 100 600 100 560 m 100 69 q 124 135 100 110 q 189 160 149 160 q 253 135 229 160 q 278 69 278 110 q 253 4 278 29 q 189 -21 229 -21 q 124 4 149 -21 q 100 69 100 29 z "},";":{"ha":399,"x_min":72,"x_max":301,"o":"m 72 -210 l 129 142 l 272 142 l 272 128 l 171 -224 l 72 -224 l 72 -210 m 124 600 q 148 665 124 640 q 213 690 172 690 q 277 665 253 690 q 301 600 301 640 q 277 535 301 560 q 213 510 253 510 q 148 535 172 510 q 124 600 124 560 z "},"<":{"ha":819,"x_min":61,"x_max":724,"o":"m 711 35 l 61 328 l 61 424 l 711 717 l 724 717 l 724 600 l 194 378 l 194 374 l 724 151 l 724 35 l 711 35 z "},"=":{"ha":819,"x_min":106,"x_max":713,"o":"m 106 476 l 106 579 l 713 579 l 713 476 l 106 476 m 106 175 l 106 278 l 713 278 l 713 175 l 106 175 z "},">":{"ha":819,"x_min":94,"x_max":757,"o":"m 94 35 l 94 151 l 624 374 l 624 378 l 94 600 l 94 717 l 107 717 l 757 424 l 757 328 l 107 35 l 94 35 z "},"?":{"ha":643,"x_min":40,"x_max":585,"o":"m 243 292 l 242 483 q 328 520 289 501 q 394 564 367 539 q 438 621 422 589 q 453 696 453 653 q 442 753 453 726 q 412 801 432 781 q 363 835 392 822 q 297 847 335 847 q 188 825 239 847 q 96 772 136 803 l 40 864 q 88 898 61 881 q 149 931 115 915 q 219 956 182 946 q 297 965 257 965 q 416 947 363 965 q 507 892 469 928 q 565 807 544 857 q 585 696 585 757 q 565 597 585 640 q 512 519 544 553 q 439 460 479 485 q 358 417 399 435 l 342 292 l 243 292 m 201 69 q 226 135 201 110 q 290 160 250 160 q 354 135 331 160 q 378 69 378 110 q 354 4 378 29 q 290 -21 331 -21 q 226 4 250 -21 q 201 69 201 29 z "},"@":{"ha":1225,"x_min":74,"x_max":1168,"o":"m 860 -139 q 745 -177 815 -160 q 596 -194 675 -194 q 383 -155 479 -194 q 217 -42 286 -115 q 111 135 149 32 q 74 367 74 239 q 113 605 74 492 q 226 805 151 718 q 412 942 301 892 q 664 993 522 993 q 878 952 785 993 q 1037 841 972 911 q 1135 678 1101 771 q 1168 481 1168 585 q 1142 299 1168 376 q 1076 169 1117 221 q 983 92 1035 118 q 879 67 931 67 q 788 94 821 67 q 740 156 756 122 l 739 156 q 656 106 704 129 q 554 83 608 83 q 470 99 508 83 q 404 144 432 114 q 361 221 376 175 q 346 326 346 267 q 364 465 346 397 q 417 585 382 532 q 503 671 453 639 q 618 703 553 703 q 719 682 676 703 q 793 636 763 661 l 794 636 l 819 686 l 896 686 l 829 293 q 825 247 825 271 q 831 204 825 224 q 851 172 838 185 q 888 160 864 160 q 949 178 918 160 q 1006 235 981 196 q 1048 335 1032 274 q 1064 482 1064 396 q 1040 642 1064 565 q 965 775 1015 718 q 840 866 915 832 q 663 900 764 900 q 460 856 550 900 q 310 740 371 813 q 216 570 249 667 q 183 368 183 474 q 213 181 183 267 q 295 32 242 94 q 426 -66 349 -31 q 599 -101 503 -101 q 735 -86 678 -101 q 831 -56 792 -71 l 860 -139 m 763 557 q 708 589 743 576 q 642 601 674 601 q 567 577 600 601 q 510 514 533 553 q 475 425 488 475 q 463 324 463 375 q 492 220 463 257 q 578 183 521 183 q 610 187 592 183 q 647 196 629 190 q 682 210 665 201 q 710 226 699 218 l 763 557 z "},"A":{"ha":876,"x_min":17,"x_max":860,"o":"m 860 0 l 726 0 l 642 236 l 235 236 l 149 0 l 17 0 l 374 944 l 503 944 l 860 0 m 436 794 l 276 344 l 599 344 l 439 794 l 436 794 z "},"B":{"ha":868,"x_min":126,"x_max":794,"o":"m 254 115 l 474 115 q 552 123 517 115 q 612 148 588 131 q 649 194 636 165 q 663 265 663 222 q 612 384 663 351 q 472 417 561 417 l 254 417 l 254 115 m 436 944 q 674 885 594 944 q 754 701 754 825 q 718 565 754 619 q 631 490 682 510 l 631 488 q 751 406 707 464 q 794 256 794 349 q 715 68 794 136 q 488 0 635 0 l 126 0 l 126 944 l 436 944 m 254 532 l 426 532 q 510 538 474 532 q 572 561 547 544 q 610 606 597 578 q 622 681 622 635 q 610 755 622 726 q 574 800 599 783 q 513 823 550 817 q 426 829 476 829 l 254 829 l 254 532 z "},"C":{"ha":831,"x_min":79,"x_max":767,"o":"m 79 472 q 108 673 79 582 q 191 829 136 764 q 327 930 246 894 q 515 965 408 965 q 640 949 576 965 q 767 904 704 933 l 732 803 q 620 838 672 829 q 515 847 568 847 q 378 821 436 847 q 283 746 321 794 q 228 628 246 697 q 211 472 211 558 q 228 317 211 386 q 283 199 246 247 q 378 124 321 150 q 515 97 436 97 q 620 106 568 97 q 732 142 672 115 l 767 40 q 640 -5 704 11 q 515 -21 576 -21 q 327 15 408 -21 q 191 115 246 50 q 108 271 136 181 q 79 472 79 361 z "},"D":{"ha":954,"x_min":126,"x_max":871,"o":"m 126 944 l 388 944 q 610 914 518 944 q 760 823 701 883 q 844 674 818 763 q 871 472 871 586 q 844 269 871 357 q 760 122 818 182 q 610 31 701 61 q 388 0 518 0 l 126 0 l 126 944 m 369 115 q 551 136 479 115 q 664 201 622 157 q 722 312 706 244 q 739 472 739 379 q 722 633 739 565 q 664 744 706 700 q 551 808 622 788 q 369 829 479 829 l 254 829 l 254 115 l 369 115 z "},"E":{"ha":814,"x_min":126,"x_max":732,"o":"m 728 944 l 728 829 l 254 829 l 254 539 l 683 539 l 683 424 l 254 424 l 254 115 l 732 115 l 732 0 l 126 0 l 126 944 l 728 944 z "},"F":{"ha":788,"x_min":126,"x_max":728,"o":"m 728 944 l 728 829 l 254 829 l 254 518 l 683 518 l 683 403 l 254 403 l 254 0 l 126 0 l 126 944 l 728 944 z "},"G":{"ha":918,"x_min":81,"x_max":824,"o":"m 824 471 l 824 75 q 679 7 765 35 q 503 -21 593 -21 q 313 16 392 -21 q 181 118 233 53 q 105 274 129 183 q 81 472 81 365 q 105 669 81 579 q 182 826 129 760 q 317 928 235 892 q 515 965 400 965 q 688 938 613 965 q 819 878 763 910 l 774 776 q 648 827 717 807 q 515 847 579 847 q 376 822 433 847 q 283 747 319 796 q 229 629 246 699 q 213 472 213 560 q 228 322 213 390 q 277 203 243 253 q 367 125 311 153 q 503 97 422 97 q 608 106 560 97 q 696 139 657 115 l 696 356 l 508 383 l 508 471 l 824 471 z "},"H":{"ha":976,"x_min":126,"x_max":850,"o":"m 722 424 l 254 424 l 254 0 l 126 0 l 126 944 l 254 944 l 254 539 l 722 539 l 722 944 l 850 944 l 850 0 l 722 0 l 722 424 z "},"I":{"ha":381,"x_min":126,"x_max":254,"o":"m 254 0 l 126 0 l 126 944 l 254 944 l 254 0 z "},"J":{"ha":644,"x_min":28,"x_max":525,"o":"m 92 169 q 123 144 107 157 q 158 120 139 131 q 200 103 176 110 q 253 97 224 97 q 313 109 286 97 q 359 147 340 121 q 388 213 378 174 q 397 310 397 253 l 397 944 l 525 944 l 525 300 q 452 60 525 142 q 253 -21 379 -21 q 124 10 182 -21 q 28 81 67 42 l 92 169 z "},"K":{"ha":835,"x_min":126,"x_max":813,"o":"m 254 431 l 254 0 l 126 0 l 126 944 l 254 944 l 254 481 l 257 481 l 644 944 l 793 944 l 793 931 l 394 463 l 813 14 l 813 0 l 656 0 l 257 431 l 254 431 z "},"L":{"ha":728,"x_min":126,"x_max":686,"o":"m 254 944 l 254 115 l 686 115 l 686 0 l 126 0 l 126 944 l 254 944 z "},"M":{"ha":1149,"x_min":126,"x_max":1022,"o":"m 575 394 l 900 944 l 1022 944 l 1022 0 l 894 0 l 894 710 l 892 710 l 621 238 l 529 238 l 257 710 l 254 710 l 254 0 l 126 0 l 126 944 l 247 944 l 572 394 l 575 394 z "},"N":{"ha":989,"x_min":126,"x_max":863,"o":"m 735 201 l 735 944 l 863 944 l 863 0 l 731 0 l 257 743 l 254 743 l 254 0 l 126 0 l 126 944 l 257 944 l 732 201 l 735 201 z "},"O":{"ha":999,"x_min":81,"x_max":918,"o":"m 213 472 q 226 324 213 393 q 274 206 240 256 q 363 126 307 156 q 500 97 418 97 q 638 126 583 97 q 726 206 693 156 q 772 324 758 256 q 786 472 786 393 q 772 620 786 551 q 726 739 758 689 q 638 818 693 789 q 500 847 583 847 q 363 818 418 847 q 274 739 307 789 q 226 620 240 689 q 213 472 213 551 m 918 472 q 894 278 918 368 q 821 121 871 188 q 692 17 771 54 q 500 -21 613 -21 q 308 17 388 -21 q 178 121 229 54 q 104 278 128 188 q 81 472 81 368 q 104 667 81 576 q 178 824 128 757 q 308 928 229 890 q 500 965 388 965 q 692 928 613 965 q 821 824 771 890 q 894 667 871 757 q 918 472 918 576 z "},"P":{"ha":824,"x_min":126,"x_max":767,"o":"m 126 0 l 126 944 l 461 944 q 598 924 540 944 q 693 867 656 904 q 749 776 731 829 q 767 654 767 722 q 748 533 767 586 q 692 442 729 479 q 597 384 654 404 q 461 364 539 364 l 254 364 l 254 0 l 126 0 m 254 479 l 450 479 q 592 527 549 479 q 635 654 635 575 q 592 781 635 733 q 450 829 549 829 l 254 829 l 254 479 z "},"Q":{"ha":999,"x_min":81,"x_max":918,"o":"m 918 472 q 906 324 918 394 q 866 196 893 254 q 798 92 839 138 q 699 19 757 47 l 918 -89 l 863 -200 l 532 -19 q 517 -21 525 -21 q 500 -21 508 -21 q 308 17 388 -21 q 178 121 229 54 q 104 278 128 188 q 81 472 81 368 q 104 667 81 576 q 178 824 128 757 q 308 928 229 890 q 500 965 388 965 q 692 928 613 965 q 821 824 771 890 q 894 667 871 757 q 918 472 918 576 m 213 472 q 226 324 213 393 q 274 206 240 256 q 363 126 307 156 q 500 97 418 97 q 638 126 583 97 q 726 206 693 156 q 772 324 758 256 q 786 472 786 393 q 772 620 786 551 q 726 739 758 689 q 638 818 693 789 q 500 847 583 847 q 363 818 418 847 q 274 739 307 789 q 226 620 240 689 q 213 472 213 551 z "},"R":{"ha":892,"x_min":126,"x_max":850,"o":"m 126 0 l 126 944 l 482 944 q 710 876 626 944 q 793 675 793 808 q 732 497 793 563 q 567 413 671 432 l 850 22 l 850 0 l 711 0 l 424 406 l 254 406 l 254 0 l 126 0 m 475 521 q 613 560 565 521 q 661 675 661 599 q 613 790 661 751 q 475 829 565 829 l 254 829 l 254 521 l 475 521 z "},"S":{"ha":744,"x_min":64,"x_max":676,"o":"m 121 183 q 174 148 146 164 q 232 121 201 132 q 297 103 263 110 q 368 97 331 97 q 496 133 447 97 q 544 249 544 169 q 536 303 544 279 q 510 344 528 326 q 462 377 492 363 q 390 407 432 392 l 304 438 q 142 537 200 474 q 85 693 85 600 q 106 801 85 751 q 166 888 126 851 q 263 945 206 925 q 393 965 319 965 q 467 958 429 965 q 539 940 504 951 q 603 915 574 929 q 656 888 633 901 l 604 785 q 501 830 554 813 q 393 847 447 847 q 260 806 304 847 q 217 703 217 765 q 242 619 217 653 q 342 560 268 586 l 433 528 q 537 481 492 507 q 613 423 582 456 q 660 349 644 390 q 676 257 676 308 q 654 145 676 196 q 592 58 632 94 q 494 0 551 21 q 368 -21 438 -21 q 274 -12 318 -21 q 193 10 231 -4 q 123 44 156 25 q 64 82 90 63 l 121 183 z "},"T":{"ha":768,"x_min":44,"x_max":724,"o":"m 724 944 l 724 829 l 449 829 l 449 0 l 321 0 l 321 829 l 44 829 l 44 944 l 724 944 z "},"U":{"ha":964,"x_min":117,"x_max":846,"o":"m 244 944 l 244 360 q 258 251 244 300 q 301 169 272 203 q 375 116 331 135 q 482 97 419 97 q 589 116 544 97 q 662 169 633 135 q 704 251 690 203 q 718 360 718 300 l 718 944 l 846 944 l 846 346 q 824 194 846 261 q 758 78 803 126 q 645 5 714 31 q 482 -21 576 -21 q 317 5 386 -21 q 204 78 249 31 q 138 194 160 126 q 117 347 117 263 l 117 944 l 244 944 z "},"V":{"ha":872,"x_min":19,"x_max":853,"o":"m 853 931 l 500 0 l 371 0 l 19 931 l 19 944 l 153 944 l 435 154 l 438 154 l 718 944 l 853 944 l 853 931 z "},"W":{"ha":1357,"x_min":35,"x_max":1321,"o":"m 1321 931 l 1049 0 l 918 0 l 679 789 l 676 789 l 439 0 l 308 0 l 35 931 l 35 944 l 168 944 l 375 178 l 378 178 l 610 944 l 746 944 l 978 178 l 981 178 l 1188 944 l 1321 944 l 1321 931 z "},"X":{"ha":817,"x_min":40,"x_max":778,"o":"m 178 944 l 407 560 l 410 560 l 640 944 l 778 944 l 778 931 l 489 472 l 778 14 l 778 0 l 640 0 l 410 383 l 407 383 l 178 0 l 40 0 l 40 14 l 328 472 l 40 931 l 40 944 l 178 944 z "},"Y":{"ha":778,"x_min":13,"x_max":768,"o":"m 150 944 l 388 519 l 390 519 l 632 944 l 768 944 l 768 931 l 453 399 l 453 0 l 325 0 l 325 399 l 13 931 l 13 944 l 150 944 z "},"Z":{"ha":767,"x_min":58,"x_max":697,"o":"m 697 944 l 697 842 l 217 118 l 217 115 l 697 115 l 697 0 l 58 0 l 58 103 l 538 826 l 538 829 l 83 829 l 83 944 l 697 944 z "},"[":{"ha":460,"x_min":114,"x_max":408,"o":"m 408 972 l 408 897 l 242 865 l 242 -168 l 408 -200 l 408 -275 l 114 -275 l 114 972 l 408 972 z "},"\\":{"ha":560,"x_min":43,"x_max":517,"o":"m 401 0 l 43 931 l 43 944 l 158 944 l 517 14 l 517 0 l 401 0 z "},"]":{"ha":461,"x_min":51,"x_max":347,"o":"m 347 972 l 347 -275 l 51 -275 l 51 -200 l 219 -168 l 219 865 l 51 897 l 51 972 l 347 972 z "},"^":{"ha":703,"x_min":57,"x_max":650,"o":"m 650 517 l 535 517 l 357 847 l 351 847 l 172 517 l 57 517 l 57 531 l 307 972 l 400 972 l 650 531 l 650 517 z "},"_":{"ha":685,"x_min":100,"x_max":585,"o":"m 100 -131 l 100 -28 l 585 -28 l 585 -131 l 100 -131 z "},"`":{"ha":819,"x_min":297,"x_max":522,"o":"m 297 986 l 433 986 l 522 818 l 522 804 l 415 804 l 297 972 l 297 986 z "},"a":{"ha":722,"x_min":57,"x_max":682,"o":"m 393 303 q 294 295 333 303 q 230 274 254 288 q 195 240 206 260 q 185 194 185 219 q 215 115 185 140 q 300 89 244 89 q 396 104 347 89 q 481 146 444 119 l 481 303 l 393 303 m 501 60 q 399 1 456 22 q 275 -21 342 -21 q 189 -7 229 -21 q 119 33 149 7 q 74 97 90 58 q 57 186 57 136 q 81 288 57 247 q 147 354 104 329 q 247 390 189 379 q 374 400 304 400 l 481 400 l 481 435 q 446 544 481 507 q 331 581 411 581 q 230 563 282 581 q 139 522 178 546 l 92 617 q 199 669 136 649 q 333 690 261 690 q 535 624 464 690 q 606 432 606 558 l 606 129 q 612 102 606 111 q 644 93 618 93 l 682 93 l 682 -6 q 650 -13 667 -10 q 614 -17 633 -17 q 540 4 565 -17 q 504 60 515 25 l 501 60 z "},"b":{"ha":796,"x_min":106,"x_max":726,"o":"m 231 154 q 313 107 264 125 q 411 89 361 89 q 500 108 464 89 q 558 161 536 128 q 589 240 579 194 q 599 335 599 285 q 589 430 599 385 q 558 508 579 475 q 500 561 536 542 q 411 581 464 581 q 313 563 361 581 q 231 515 264 544 l 231 154 m 231 972 l 231 622 l 233 622 q 318 669 269 649 q 444 690 367 690 q 572 662 518 690 q 659 585 625 633 q 710 472 693 538 q 726 335 726 407 q 710 197 726 261 q 659 84 693 132 q 572 8 625 36 q 444 -21 518 -21 q 372 -13 406 -21 q 308 7 338 -6 q 255 34 279 19 q 213 61 231 49 l 210 61 l 194 0 l 106 0 l 106 972 l 231 972 z "},"c":{"ha":668,"x_min":68,"x_max":607,"o":"m 68 335 q 90 479 68 414 q 154 591 113 544 q 257 664 196 638 q 397 690 318 690 q 507 676 450 690 q 607 642 564 661 l 575 544 q 496 569 544 557 q 399 581 447 581 q 308 560 346 581 q 244 504 269 539 q 208 425 219 469 q 196 335 196 381 q 208 244 196 289 q 244 165 219 200 q 308 110 269 131 q 399 89 346 89 q 496 101 447 89 q 575 125 544 113 l 607 28 q 507 -6 564 8 q 397 -21 450 -21 q 257 6 318 -21 q 154 78 196 32 q 90 190 113 125 q 68 335 68 256 z "},"d":{"ha":796,"x_min":69,"x_max":690,"o":"m 565 515 q 484 563 533 544 q 385 581 435 581 q 296 561 332 581 q 238 508 260 542 q 206 430 215 475 q 197 335 197 385 q 206 240 197 285 q 238 161 215 194 q 296 108 260 128 q 385 89 332 89 q 484 107 435 89 q 565 154 533 125 l 565 515 m 690 972 l 690 0 l 601 0 l 588 61 l 585 61 q 542 34 567 49 q 488 7 518 19 q 424 -13 458 -6 q 351 -21 390 -21 q 224 8 278 -21 q 136 84 171 36 q 85 197 101 132 q 69 335 69 261 q 85 472 69 407 q 136 585 101 538 q 224 662 171 633 q 351 690 278 690 q 477 669 428 690 q 563 622 526 649 l 565 622 l 565 972 l 690 972 z "},"e":{"ha":746,"x_min":68,"x_max":682,"o":"m 194 294 q 210 210 194 249 q 253 144 225 172 q 319 101 281 117 q 407 86 358 86 q 524 104 476 86 q 607 146 571 122 l 656 51 q 547 1 611 22 q 396 -21 483 -21 q 248 8 310 -21 q 146 86 186 38 q 87 200 106 135 q 68 338 68 265 q 88 469 68 406 q 147 582 107 533 q 245 660 186 631 q 383 690 304 690 q 519 666 463 690 q 612 602 575 642 q 665 510 649 563 q 682 401 682 457 q 679 344 682 375 q 674 294 676 313 l 194 294 m 560 394 q 561 409 561 401 q 561 424 561 417 q 549 488 561 458 q 515 538 538 517 q 460 572 493 560 q 383 583 426 583 q 308 569 342 583 q 249 531 274 556 q 211 471 225 506 q 194 394 197 436 l 560 394 z "},"f":{"ha":504,"x_min":39,"x_max":467,"o":"m 158 0 l 158 567 l 39 567 l 39 642 l 158 669 l 158 761 q 213 928 158 876 q 372 979 268 979 q 420 976 393 979 q 467 971 447 974 l 467 860 q 427 866 451 863 q 383 869 403 869 q 308 849 333 869 q 283 771 283 828 l 283 669 l 467 669 l 467 567 l 283 567 l 283 0 l 158 0 z "},"g":{"ha":796,"x_min":69,"x_max":690,"o":"m 565 515 q 483 563 532 544 q 383 581 433 581 q 294 562 331 581 q 237 510 258 543 q 206 432 215 476 q 197 338 197 388 q 206 243 197 288 q 237 165 215 199 q 294 113 258 132 q 383 94 331 94 q 483 113 433 94 q 565 160 532 131 l 565 515 m 690 -3 q 669 -122 690 -68 q 609 -215 649 -176 q 513 -275 569 -254 q 385 -296 457 -296 q 252 -281 313 -296 q 142 -246 192 -267 l 175 -147 q 274 -176 219 -165 q 385 -186 328 -186 q 517 -146 468 -186 q 565 -18 565 -106 l 565 53 l 563 53 q 478 6 526 26 q 353 -15 431 -15 q 226 13 279 -15 q 138 88 172 40 q 86 200 103 136 q 69 338 69 264 q 86 474 69 410 q 138 587 103 539 q 226 663 172 635 q 353 690 279 690 q 426 683 392 690 q 489 663 460 675 q 542 635 518 650 q 582 608 565 621 l 585 608 l 601 669 l 690 669 l 690 -3 z "},"h":{"ha":792,"x_min":106,"x_max":693,"o":"m 568 0 l 568 410 q 531 538 568 496 q 418 581 494 581 q 365 574 392 581 q 312 558 338 568 q 265 537 286 549 q 231 515 244 525 l 231 0 l 106 0 l 106 972 l 231 972 l 231 622 l 233 622 q 271 644 249 632 q 321 667 293 657 q 381 683 349 676 q 449 690 413 690 q 627 626 561 690 q 693 435 693 561 l 693 0 l 568 0 z "},"i":{"ha":336,"x_min":89,"x_max":249,"o":"m 106 0 l 106 669 l 231 669 l 231 0 l 106 0 m 89 881 q 110 938 89 917 q 168 958 132 958 q 227 938 206 958 q 249 881 249 917 q 227 823 249 844 q 168 801 206 801 q 110 823 132 801 q 89 881 89 844 z "},"j":{"ha":336,"x_min":-64,"x_max":249,"o":"m 231 669 l 231 -81 q 181 -240 231 -183 q 32 -296 132 -296 q -15 -293 13 -296 q -64 -286 -43 -290 l -64 -179 q -22 -184 -46 -182 q 19 -186 3 -186 q 85 -163 64 -186 q 106 -85 106 -140 l 106 669 l 231 669 m 89 881 q 110 938 89 917 q 168 958 132 958 q 227 938 206 958 q 249 881 249 917 q 227 823 249 844 q 168 801 206 801 q 110 823 132 801 q 89 881 89 844 z "},"k":{"ha":696,"x_min":106,"x_max":667,"o":"m 231 310 l 231 0 l 106 0 l 106 972 l 231 972 l 231 358 l 233 358 l 508 669 l 656 669 l 656 660 l 363 338 l 667 11 l 667 0 l 517 0 l 233 310 l 231 310 z "},"l":{"ha":368,"x_min":107,"x_max":331,"o":"m 331 -6 q 294 -13 315 -10 q 249 -17 272 -17 q 140 24 174 -17 q 107 138 107 65 l 107 972 l 232 972 l 232 129 q 238 102 232 111 q 271 93 244 93 l 331 93 l 331 -6 z "},"m":{"ha":1238,"x_min":106,"x_max":1139,"o":"m 190 669 l 206 608 l 208 608 q 249 633 225 619 q 304 660 274 647 q 370 681 335 672 q 446 690 406 690 q 567 667 519 690 q 643 600 614 644 l 647 600 q 692 629 667 614 q 747 658 717 644 q 814 681 778 672 q 892 690 850 690 q 1076 626 1014 690 q 1139 435 1139 561 l 1139 0 l 1014 0 l 1014 410 q 982 538 1014 496 q 863 581 950 581 q 761 555 810 581 q 678 501 713 529 q 683 469 681 486 q 685 435 685 453 l 685 0 l 560 0 l 560 410 q 553 485 560 453 q 531 538 547 517 q 488 570 515 560 q 417 581 460 581 q 310 558 358 581 q 231 515 263 535 l 231 0 l 106 0 l 106 669 l 190 669 z "},"n":{"ha":792,"x_min":106,"x_max":693,"o":"m 194 669 l 210 608 l 213 608 q 253 633 228 619 q 309 660 278 647 q 376 681 340 672 q 449 690 413 690 q 627 626 561 690 q 693 435 693 561 l 693 0 l 568 0 l 568 410 q 531 538 568 496 q 418 581 494 581 q 365 574 392 581 q 312 558 338 568 q 265 537 286 549 q 231 515 244 525 l 231 0 l 106 0 l 106 669 l 194 669 z "},"o":{"ha":797,"x_min":68,"x_max":729,"o":"m 196 335 q 206 238 196 283 q 240 160 217 193 q 302 108 264 126 q 396 89 340 89 q 492 108 453 89 q 555 160 531 126 q 590 238 579 193 q 601 335 601 283 q 590 431 601 386 q 555 510 579 476 q 492 562 531 543 q 396 581 453 581 q 302 562 340 581 q 240 510 264 543 q 206 431 217 476 q 196 335 196 386 m 729 335 q 710 197 729 261 q 651 84 692 132 q 548 8 611 36 q 396 -21 485 -21 q 246 8 308 -21 q 144 84 183 36 q 86 197 104 132 q 68 335 68 261 q 86 472 68 407 q 144 585 104 538 q 246 662 183 633 q 396 690 308 690 q 548 662 485 690 q 651 585 611 633 q 710 472 692 538 q 729 335 729 407 z "},"p":{"ha":796,"x_min":106,"x_max":726,"o":"m 231 154 q 313 107 263 125 q 413 89 363 89 q 501 108 465 89 q 559 161 538 128 q 590 240 581 194 q 599 335 599 285 q 590 430 599 385 q 559 508 581 475 q 501 561 538 542 q 413 581 465 581 q 313 563 363 581 q 231 515 263 544 l 231 154 m 193 669 l 208 608 l 211 608 q 308 663 247 635 q 446 690 368 690 q 573 662 519 690 q 660 585 626 633 q 710 472 694 538 q 726 335 726 407 q 710 197 726 261 q 660 84 694 132 q 573 8 626 36 q 446 -21 519 -21 q 319 0 368 -21 q 233 47 269 21 l 231 47 l 231 -275 l 106 -275 l 106 669 l 193 669 z "},"q":{"ha":796,"x_min":69,"x_max":690,"o":"m 565 515 q 483 563 533 544 q 383 581 433 581 q 294 561 331 581 q 237 508 258 542 q 206 430 215 475 q 197 335 197 385 q 206 240 197 285 q 237 161 215 194 q 294 108 258 128 q 383 89 331 89 q 483 107 433 89 q 565 154 533 125 l 565 515 m 690 -275 l 565 -275 l 565 47 l 563 47 q 477 0 526 21 q 350 -21 428 -21 q 223 8 276 -21 q 135 84 169 36 q 85 197 101 132 q 69 335 69 261 q 85 472 69 407 q 135 585 101 538 q 223 662 169 633 q 350 690 276 690 q 424 683 389 690 q 488 663 458 675 q 542 635 518 650 q 585 608 567 621 l 588 608 l 603 669 l 690 669 l 690 -275 z "},"r":{"ha":497,"x_min":106,"x_max":471,"o":"m 194 669 l 210 597 l 213 597 q 249 635 229 618 q 293 665 269 653 q 343 683 317 676 q 399 690 369 690 q 438 688 418 690 q 471 681 457 685 l 453 568 q 419 573 438 571 q 385 575 400 575 q 287 548 319 575 q 231 478 254 521 l 231 0 l 106 0 l 106 669 l 194 669 z "},"s":{"ha":625,"x_min":60,"x_max":564,"o":"m 104 143 q 196 101 147 117 q 301 86 244 86 q 405 110 371 86 q 439 181 439 135 q 415 238 439 217 q 339 274 392 258 l 258 296 q 181 324 215 308 q 122 363 146 340 q 85 417 99 386 q 72 486 72 447 q 138 634 72 578 q 321 690 204 690 q 444 678 390 690 q 550 643 499 665 l 511 542 q 419 573 467 563 q 328 583 372 583 q 228 559 260 583 q 197 490 197 535 q 218 438 197 457 q 296 403 239 418 l 375 382 q 453 353 418 371 q 513 313 488 336 q 551 257 538 289 q 564 183 564 225 q 547 99 564 138 q 497 35 529 61 q 418 -6 465 8 q 313 -21 371 -21 q 169 -3 226 -21 q 60 43 111 14 l 104 143 l 104 143 z "},"t":{"ha":507,"x_min":38,"x_max":461,"o":"m 282 825 l 282 669 l 461 669 l 461 567 l 282 567 l 282 168 q 301 108 282 126 q 356 89 321 89 q 414 95 383 89 q 460 106 444 101 l 460 -1 q 405 -14 440 -7 q 328 -21 369 -21 q 201 22 244 -21 q 157 144 157 64 l 157 567 l 38 567 l 38 642 l 157 669 l 157 825 l 282 825 z "},"u":{"ha":782,"x_min":99,"x_max":676,"o":"m 224 669 l 224 260 q 257 131 224 174 q 368 89 290 89 q 421 95 394 89 q 472 111 447 101 q 517 133 496 121 q 551 154 538 144 l 551 669 l 676 669 l 676 0 l 588 0 l 572 61 l 569 61 q 529 36 554 50 q 474 10 504 22 q 409 -12 444 -3 q 338 -21 374 -21 q 162 44 225 -21 q 99 235 99 108 l 99 669 l 224 669 z "},"v":{"ha":700,"x_min":29,"x_max":671,"o":"m 671 656 l 410 0 l 290 0 l 29 656 l 29 669 l 154 669 l 349 149 l 351 149 l 547 669 l 671 669 l 671 656 z "},"w":{"ha":1136,"x_min":36,"x_max":1100,"o":"m 1100 656 l 872 0 l 751 0 l 569 519 l 567 519 l 385 0 l 264 0 l 36 656 l 36 669 l 163 669 l 328 163 l 331 163 l 504 669 l 632 669 l 807 163 l 810 163 l 974 669 l 1100 669 l 1100 656 z "},"x":{"ha":689,"x_min":42,"x_max":647,"o":"m 343 260 l 171 0 l 42 0 l 42 14 l 265 335 l 42 656 l 42 669 l 171 669 l 343 408 l 346 408 l 517 669 l 647 669 l 647 656 l 424 335 l 647 14 l 647 0 l 517 0 l 346 260 l 343 260 z "},"y":{"ha":701,"x_min":28,"x_max":669,"o":"m 669 656 l 389 -89 q 292 -246 349 -196 q 157 -296 236 -296 q 99 -291 129 -296 q 50 -282 69 -286 l 50 -176 q 97 -183 71 -179 q 146 -186 122 -186 q 218 -161 190 -186 q 265 -82 246 -136 l 297 7 l 28 656 l 28 669 l 153 669 l 351 149 l 356 149 l 546 669 l 669 669 l 669 656 z "},"z":{"ha":625,"x_min":56,"x_max":560,"o":"m 560 669 l 560 597 l 214 106 l 214 103 l 560 103 l 560 0 l 56 0 l 56 72 l 401 564 l 401 567 l 75 567 l 75 669 l 560 669 z "},"{":{"ha":468,"x_min":51,"x_max":414,"o":"m 51 401 q 133 424 106 401 q 160 503 160 447 l 160 764 q 168 849 160 811 q 201 915 176 888 q 271 957 226 942 q 388 972 315 972 l 414 972 l 414 897 q 349 890 374 897 q 310 868 325 883 q 291 827 296 853 q 286 763 286 801 l 286 514 q 257 403 286 442 q 178 350 228 365 l 178 347 q 257 294 228 332 q 286 183 286 256 l 286 -65 q 291 -130 286 -104 q 310 -172 296 -156 q 349 -194 325 -187 q 414 -200 374 -200 l 414 -275 l 388 -275 q 271 -260 315 -275 q 201 -217 226 -244 q 168 -152 176 -190 q 160 -67 160 -114 l 160 194 q 133 273 160 250 q 51 296 106 296 l 51 401 z "},"|":{"ha":328,"x_min":114,"x_max":214,"o":"m 214 -275 l 114 -275 l 114 972 l 214 972 l 214 -275 z "},"}":{"ha":469,"x_min":54,"x_max":418,"o":"m 418 296 q 337 273 364 296 q 310 194 310 250 l 310 -67 q 301 -152 310 -114 q 268 -217 293 -190 q 198 -260 243 -244 q 81 -275 153 -275 l 54 -275 l 54 -200 q 119 -194 94 -200 q 159 -172 144 -187 q 178 -130 174 -156 q 183 -65 183 -104 l 183 183 q 213 294 183 256 q 290 347 242 332 l 290 350 q 213 403 242 365 q 183 514 183 442 l 183 763 q 178 827 183 801 q 159 868 174 853 q 119 890 144 883 q 54 897 94 897 l 54 972 l 81 972 q 198 957 153 972 q 268 915 243 942 q 301 849 293 888 q 310 764 310 811 l 310 503 q 337 424 310 447 q 418 401 364 401 l 418 296 z "},"~":{"ha":739,"x_min":86,"x_max":653,"o":"m 86 381 q 151 440 108 417 q 256 464 193 464 q 319 453 289 464 q 379 428 350 442 q 436 404 408 415 q 493 393 464 393 q 551 403 525 393 q 603 440 576 414 l 653 371 q 576 308 618 325 q 485 290 533 290 q 424 301 454 290 q 364 326 393 313 q 306 350 335 339 q 253 361 278 361 q 195 352 225 361 q 136 313 165 343 l 86 381 z "}," ":{"ha":349,"x_min":0,"x_max":0,"o":""},"¡":{"ha":343,"x_min":83,"x_max":260,"o":"m 132 378 l 213 378 l 236 -37 l 236 -275 l 108 -275 l 108 -37 l 132 378 m 260 600 q 235 535 260 560 q 171 510 211 510 q 107 535 131 510 q 83 600 83 560 q 107 665 83 640 q 171 690 131 690 q 235 665 211 690 q 260 600 260 640 z "},"¢":{"ha":819,"x_min":142,"x_max":681,"o":"m 510 688 q 599 670 554 683 q 681 642 644 657 l 649 544 q 587 564 624 554 q 510 578 550 574 l 510 90 q 587 104 550 94 q 649 125 624 114 l 681 28 q 599 -1 644 11 q 510 -18 554 -14 l 510 -133 l 410 -133 l 410 -17 q 295 22 344 -7 q 211 97 246 51 q 159 203 176 143 q 142 335 142 264 q 159 465 142 406 q 211 571 176 525 q 295 647 246 617 q 410 686 344 676 l 410 803 l 510 803 l 510 688 m 269 335 q 278 258 269 296 q 303 189 286 221 q 347 133 321 157 q 410 97 374 108 l 410 571 q 347 535 374 560 q 303 480 321 511 q 278 411 286 449 q 269 335 269 374 z "},"£":{"ha":819,"x_min":104,"x_max":707,"o":"m 349 411 q 356 339 353 372 q 358 281 358 306 q 333 178 358 218 q 279 118 307 139 l 279 115 l 704 115 l 704 0 l 118 0 l 118 99 q 149 122 131 108 q 184 155 167 135 q 214 202 201 175 q 226 268 226 229 q 223 336 226 300 q 215 411 219 372 l 104 411 l 104 514 l 203 514 q 194 606 197 560 q 190 694 190 651 q 267 896 190 826 q 469 965 343 965 q 588 948 529 965 q 707 901 647 931 l 671 799 q 566 836 611 825 q 469 847 521 847 q 413 839 439 847 q 366 812 386 831 q 334 764 346 793 q 322 693 322 735 q 326 610 322 657 q 336 514 331 564 l 601 514 l 601 411 l 349 411 z "},"¤":{"ha":832,"x_min":72,"x_max":761,"o":"m 658 375 q 650 303 658 338 q 625 236 642 268 l 761 104 l 688 31 l 557 160 q 404 118 496 118 q 267 151 321 118 l 149 33 l 75 107 l 193 225 q 165 295 174 257 q 156 375 156 333 q 193 522 156 460 l 72 644 l 146 718 l 265 597 q 404 632 322 632 q 558 589 499 632 l 685 717 l 758 643 l 626 513 q 658 375 658 449 m 271 375 q 304 269 271 313 q 404 225 338 225 q 510 269 475 225 q 544 375 544 313 q 510 481 544 438 q 404 525 475 525 q 304 481 338 525 q 271 375 271 438 z "},"¥":{"ha":819,"x_min":53,"x_max":767,"o":"m 472 196 l 472 0 l 344 0 l 344 196 l 93 196 l 93 299 l 344 299 l 344 426 l 93 426 l 93 529 l 283 529 l 53 931 l 53 944 l 190 944 l 407 547 l 410 547 l 631 944 l 767 944 l 767 931 l 535 529 l 725 529 l 725 426 l 472 426 l 472 299 l 725 299 l 725 196 l 472 196 z "},"¦":{"ha":336,"x_min":118,"x_max":218,"o":"m 218 186 l 218 -275 l 118 -275 l 118 186 l 218 186 m 118 511 l 118 972 l 218 972 l 218 511 l 118 511 z "},"§":{"ha":765,"x_min":78,"x_max":685,"o":"m 308 504 q 246 453 267 485 q 225 381 225 421 q 246 321 225 350 q 321 268 267 292 l 472 204 q 531 254 508 224 q 554 328 554 285 q 529 392 554 364 q 460 440 504 421 l 308 504 m 569 158 q 660 77 636 118 q 685 -17 685 36 q 665 -115 685 -72 q 605 -188 644 -158 q 508 -233 565 -218 q 379 -249 451 -249 q 211 -225 281 -249 q 78 -165 142 -201 l 133 -51 q 245 -107 185 -83 q 379 -131 306 -131 q 505 -106 457 -131 q 553 -21 553 -82 q 523 37 553 15 q 431 85 493 58 l 281 147 q 140 236 188 186 q 93 357 93 286 q 127 471 93 424 q 211 546 161 518 l 211 550 q 126 620 158 578 q 93 726 93 663 q 112 820 93 776 q 168 896 131 864 q 263 947 206 928 q 400 965 321 965 q 538 949 475 965 q 658 904 601 933 l 608 794 q 509 833 556 819 q 400 847 463 847 q 269 817 313 847 q 225 738 225 786 q 231 706 225 719 q 253 679 238 692 q 293 653 268 667 q 356 624 318 640 l 503 558 q 633 473 581 524 q 685 353 685 422 q 674 288 685 317 q 647 236 664 260 q 610 194 631 213 q 569 161 589 175 l 569 158 z "},"¨":{"ha":819,"x_min":190,"x_max":626,"o":"m 190 881 q 212 938 190 917 q 269 958 233 958 q 328 938 307 958 q 350 881 350 917 q 328 823 350 844 q 269 801 307 801 q 212 823 233 801 q 190 881 190 844 m 467 881 q 488 938 467 917 q 546 958 510 958 q 605 938 583 958 q 626 881 626 917 q 605 823 626 844 q 546 801 583 801 q 488 823 510 801 q 467 881 467 844 z "},"©":{"ha":1142,"x_min":78,"x_max":1064,"o":"m 78 472 q 115 667 78 576 q 219 824 153 757 q 376 928 286 890 q 571 965 467 965 q 765 928 675 965 q 922 824 856 890 q 1026 667 989 757 q 1064 472 1064 576 q 1026 278 1064 368 q 922 121 989 188 q 765 17 856 54 q 571 -21 675 -21 q 376 17 467 -21 q 219 121 286 54 q 115 278 153 188 q 78 472 78 368 m 156 472 q 187 306 156 383 q 274 173 218 229 q 406 85 329 117 q 571 53 482 53 q 736 85 660 53 q 868 173 813 117 q 955 306 924 229 q 986 472 986 383 q 955 638 986 561 q 868 772 924 715 q 736 860 813 828 q 571 892 660 892 q 406 860 482 892 q 274 772 329 828 q 187 638 218 715 q 156 472 156 561 m 315 472 q 381 669 315 594 q 572 743 446 743 q 647 735 608 743 q 722 710 686 726 l 696 632 q 633 653 661 647 q 572 658 604 658 q 456 608 496 658 q 417 472 417 557 q 456 337 417 388 q 572 286 496 286 q 633 292 604 286 q 696 313 661 297 l 722 235 q 647 210 686 218 q 572 201 608 201 q 381 276 446 201 q 315 472 315 350 z "},"ª":{"ha":592,"x_min":100,"x_max":475,"o":"m 314 669 q 227 655 251 669 q 203 613 203 640 q 268 558 203 558 q 323 567 296 558 q 371 590 350 576 l 371 669 l 314 669 m 397 486 l 385 524 l 383 524 q 322 489 357 504 q 244 474 286 474 q 139 509 178 474 q 100 606 100 544 q 155 710 100 679 q 300 742 210 742 l 371 742 l 371 760 q 347 819 371 806 q 286 832 322 832 q 217 824 253 832 q 153 800 182 815 l 124 879 q 199 909 156 897 q 290 921 242 921 q 427 876 379 921 q 475 751 475 832 l 475 486 l 397 486 m 107 289 l 107 385 l 475 385 l 475 289 l 107 289 z "},"«":{"ha":701,"x_min":60,"x_max":629,"o":"m 60 383 l 275 674 l 356 621 l 186 375 l 356 129 l 275 76 l 60 367 l 60 383 m 333 383 l 549 674 l 629 621 l 460 375 l 629 129 l 549 76 l 333 367 l 333 383 z "},"¬":{"ha":819,"x_min":76,"x_max":739,"o":"m 636 324 l 76 324 l 76 426 l 739 426 l 739 147 l 636 147 l 636 324 z "},"­":{"ha":568,"x_min":100,"x_max":468,"o":"m 100 324 l 100 426 l 468 426 l 468 324 l 100 324 z "},"®":{"ha":789,"x_min":78,"x_max":711,"o":"m 78 779 q 102 905 78 847 q 169 1006 126 963 q 269 1073 211 1049 q 394 1097 328 1097 q 519 1073 461 1097 q 620 1006 578 1049 q 687 905 663 963 q 711 779 711 847 q 687 654 711 713 q 620 553 663 596 q 519 487 578 511 q 394 463 461 463 q 269 487 328 463 q 169 553 211 511 q 102 654 126 596 q 78 779 78 713 m 143 779 q 162 678 143 725 q 215 598 181 632 q 294 544 249 564 q 394 525 340 525 q 494 544 449 525 q 574 598 540 564 q 627 678 608 632 q 646 779 646 725 q 627 880 646 833 q 574 961 608 926 q 494 1015 540 996 q 394 1035 449 1035 q 294 1015 340 1035 q 215 961 249 996 q 162 880 181 926 q 143 779 143 833 m 275 632 l 275 935 l 404 935 q 484 910 457 935 q 511 844 511 886 q 494 785 511 810 q 443 754 478 761 l 531 639 l 531 632 l 460 632 l 375 750 l 340 750 l 340 632 l 275 632 m 394 806 q 433 813 421 806 q 446 844 446 821 q 433 872 446 865 q 394 879 421 879 l 340 879 l 340 806 l 394 806 z "},"¯":{"ha":819,"x_min":225,"x_max":593,"o":"m 225 829 l 225 932 l 593 932 l 593 829 l 225 829 z "},"°":{"ha":592,"x_min":74,"x_max":518,"o":"m 179 756 q 212 670 179 703 q 297 638 244 638 q 383 670 350 638 q 415 756 415 703 q 383 838 415 807 q 297 869 350 869 q 212 838 244 869 q 179 756 179 807 m 74 756 q 90 843 74 804 q 136 909 107 882 q 206 951 165 936 q 297 965 247 965 q 457 909 396 965 q 518 756 518 853 q 457 599 518 657 q 297 542 396 542 q 135 599 197 542 q 74 756 74 657 z "},"±":{"ha":819,"x_min":78,"x_max":740,"o":"m 461 593 l 740 593 l 740 490 l 461 490 l 461 247 l 354 247 l 354 490 l 78 490 l 78 593 l 354 593 l 354 863 l 461 863 l 461 593 m 740 103 l 740 0 l 78 0 l 78 103 l 740 103 z "},"²":{"ha":435,"x_min":43,"x_max":386,"o":"m 185 725 l 386 725 l 386 642 l 44 642 l 44 713 l 231 875 q 267 916 254 894 q 279 964 279 938 q 256 1021 279 1004 q 201 1038 232 1038 q 143 1022 168 1038 q 96 986 118 1006 l 43 1053 q 69 1075 54 1063 q 105 1098 85 1088 q 151 1115 125 1108 q 210 1122 178 1122 q 276 1112 244 1122 q 331 1083 307 1101 q 367 1035 354 1064 q 381 972 381 1007 q 357 886 381 921 q 303 826 333 851 l 185 726 l 185 725 z "},"³":{"ha":435,"x_min":35,"x_max":386,"o":"m 110 919 l 193 919 q 255 936 238 919 q 272 978 272 953 q 253 1022 272 1007 q 194 1038 235 1038 q 134 1031 167 1038 q 75 1014 101 1025 l 47 1090 q 117 1114 78 1106 q 199 1122 157 1122 q 329 1087 282 1122 q 376 992 376 1051 q 352 921 376 947 q 301 888 328 894 l 301 886 q 363 844 339 874 q 386 768 386 815 q 338 668 386 706 q 192 631 289 631 q 103 641 140 631 q 35 667 65 651 l 61 746 q 122 724 89 732 q 190 715 154 715 q 259 730 232 715 q 286 781 286 744 q 263 824 286 811 q 193 836 240 836 l 110 836 l 110 919 z "},"´":{"ha":819,"x_min":297,"x_max":522,"o":"m 522 972 l 404 804 l 297 804 l 297 818 l 386 986 l 522 986 l 522 972 z "},"µ":{"ha":781,"x_min":111,"x_max":689,"o":"m 111 -275 l 111 669 l 236 669 l 236 225 q 271 123 236 157 q 381 89 306 89 q 433 95 407 89 q 484 111 460 101 q 529 133 508 121 q 564 154 550 144 l 564 669 l 689 669 l 689 0 l 600 0 l 585 61 l 582 61 q 542 36 567 50 q 487 10 517 22 q 422 -12 457 -3 q 350 -21 386 -21 q 287 -8 318 -21 q 236 29 256 4 l 236 -275 l 111 -275 z "},"¶":{"ha":744,"x_min":42,"x_max":701,"o":"m 236 578 q 160 590 196 578 q 99 624 125 601 q 57 681 72 647 q 42 760 42 715 q 57 839 42 804 q 99 897 72 874 q 160 933 125 921 q 236 944 196 944 l 701 944 l 701 847 l 571 847 l 571 -275 l 471 -275 l 471 847 l 338 847 l 338 -275 l 236 -275 l 236 578 z "},"·":{"ha":367,"x_min":94,"x_max":272,"o":"m 94 403 q 119 468 94 443 q 183 493 143 493 q 248 468 224 493 q 272 403 272 443 q 248 338 272 363 q 183 313 224 313 q 119 338 143 313 q 94 403 94 363 z "},"¸":{"ha":819,"x_min":275,"x_max":543,"o":"m 342 -101 l 382 10 l 476 10 l 444 -67 q 516 -99 489 -74 q 543 -167 543 -124 q 497 -267 543 -237 q 379 -296 450 -296 q 318 -290 346 -296 q 275 -276 290 -283 l 294 -200 q 327 -210 308 -206 q 368 -215 346 -215 q 417 -205 400 -215 q 435 -167 435 -194 q 410 -126 435 -136 q 350 -115 386 -115 l 342 -101 z "},"¹":{"ha":344,"x_min":31,"x_max":272,"o":"m 31 946 l 31 1033 l 200 1111 l 272 1111 l 272 642 l 174 642 l 174 1004 l 172 1004 l 43 946 l 31 946 z "},"º":{"ha":607,"x_min":82,"x_max":526,"o":"m 189 697 q 217 600 189 632 q 303 568 246 568 q 390 600 361 568 q 419 697 419 632 q 390 793 419 761 q 303 825 361 825 q 217 793 246 825 q 189 697 189 761 m 526 697 q 513 610 526 651 q 472 540 500 569 q 403 492 444 510 q 303 474 361 474 q 205 492 246 474 q 136 540 164 510 q 95 610 108 569 q 82 697 82 651 q 95 784 82 743 q 136 855 108 825 q 205 903 164 885 q 303 921 246 921 q 403 903 361 921 q 472 855 444 885 q 513 784 500 825 q 526 697 526 743 m 119 289 l 119 385 l 488 385 l 488 289 l 119 289 z "},"»":{"ha":701,"x_min":72,"x_max":642,"o":"m 368 367 l 153 76 l 72 129 l 242 375 l 72 621 l 153 674 l 368 383 l 368 367 m 642 367 l 426 76 l 346 129 l 515 375 l 346 621 l 426 674 l 642 383 l 642 367 z "},"¼":{"ha":964,"x_min":57,"x_max":899,"o":"m 103 0 l 103 14 l 724 944 l 829 944 l 829 931 l 208 0 l 103 0 m 743 340 l 842 340 l 842 182 l 899 182 l 899 100 l 842 100 l 842 0 l 743 0 l 743 100 l 504 100 l 504 169 l 629 469 l 726 469 l 610 183 l 610 182 l 743 182 l 743 340 m 57 779 l 57 867 l 226 944 l 299 944 l 299 475 l 200 475 l 200 838 l 199 838 l 69 779 l 57 779 z "},"½":{"ha":983,"x_min":57,"x_max":914,"o":"m 713 83 l 914 83 l 914 0 l 572 0 l 572 71 l 758 233 q 794 274 782 253 q 807 322 807 296 q 783 379 807 363 q 729 396 760 396 q 671 380 696 396 q 624 344 646 364 l 571 411 q 597 433 582 421 q 633 456 613 446 q 679 474 653 467 q 738 481 706 481 q 803 470 772 481 q 858 441 835 460 q 895 394 882 422 q 908 331 908 365 q 885 244 908 279 q 831 185 861 210 l 713 85 l 713 83 m 103 0 l 103 14 l 724 944 l 829 944 l 829 931 l 208 0 l 103 0 m 57 779 l 57 867 l 226 944 l 299 944 l 299 475 l 200 475 l 200 838 l 199 838 l 69 779 l 57 779 z "},"¾":{"ha":1033,"x_min":61,"x_max":968,"o":"m 172 0 l 172 14 l 793 944 l 899 944 l 899 931 l 278 0 l 172 0 m 813 340 l 911 340 l 911 182 l 968 182 l 968 100 l 911 100 l 911 0 l 813 0 l 813 100 l 574 100 l 574 169 l 699 469 l 796 469 l 679 183 l 679 182 l 813 182 l 813 340 m 136 749 l 219 749 q 281 765 264 749 q 299 807 299 782 q 280 851 299 836 q 221 867 261 867 q 160 860 193 867 q 101 843 128 854 l 74 919 q 144 943 104 935 q 225 951 183 951 q 356 916 308 951 q 403 821 403 881 q 378 750 403 776 q 328 717 354 724 l 328 715 q 389 674 365 703 q 413 597 413 644 q 364 497 413 535 q 218 460 315 460 q 129 470 167 460 q 61 496 92 481 l 88 575 q 148 553 115 561 q 217 544 181 544 q 285 559 258 544 q 313 610 313 574 q 290 653 313 640 q 219 665 267 665 l 136 665 l 136 749 z "},"¿":{"ha":635,"x_min":54,"x_max":599,"o":"m 396 378 l 397 186 q 311 149 350 168 q 244 106 272 131 q 201 49 217 81 q 186 -26 186 17 q 197 -84 186 -57 q 227 -132 207 -111 q 276 -165 247 -153 q 342 -178 304 -178 q 451 -156 400 -178 q 543 -103 503 -133 l 599 -194 q 551 -228 578 -211 q 490 -261 524 -246 q 419 -286 457 -276 q 342 -296 382 -296 q 223 -277 276 -296 q 132 -223 169 -258 q 74 -137 94 -187 q 54 -26 54 -87 q 74 73 54 29 q 127 151 94 117 q 200 210 160 185 q 281 253 240 235 l 297 378 l 396 378 m 438 600 q 413 535 438 560 q 349 510 389 510 q 285 535 308 510 q 261 600 261 560 q 285 665 261 640 q 349 690 308 690 q 413 665 389 690 q 438 600 438 640 z "},"À":{"ha":876,"x_min":17,"x_max":860,"o":"m 860 0 l 726 0 l 642 236 l 235 236 l 149 0 l 17 0 l 374 944 l 503 944 l 860 0 m 436 794 l 276 344 l 599 344 l 439 794 l 436 794 m 290 1226 l 426 1226 l 501 1058 l 501 1044 l 394 1044 l 290 1213 l 290 1226 z "},"Á":{"ha":876,"x_min":17,"x_max":860,"o":"m 860 0 l 726 0 l 642 236 l 235 236 l 149 0 l 17 0 l 374 944 l 503 944 l 860 0 m 436 794 l 276 344 l 599 344 l 439 794 l 436 794 m 589 1213 l 485 1044 l 378 1044 l 378 1058 l 453 1226 l 589 1226 l 589 1213 z "},"Â":{"ha":876,"x_min":17,"x_max":860,"o":"m 860 0 l 726 0 l 642 236 l 235 236 l 149 0 l 17 0 l 374 944 l 503 944 l 860 0 m 436 794 l 276 344 l 599 344 l 439 794 l 436 794 m 639 1058 l 639 1044 l 525 1044 l 438 1143 l 350 1044 l 236 1044 l 236 1058 l 367 1226 l 508 1226 l 639 1058 z "},"Ã":{"ha":876,"x_min":17,"x_max":860,"o":"m 860 0 l 726 0 l 642 236 l 235 236 l 149 0 l 17 0 l 374 944 l 503 944 l 860 0 m 436 794 l 276 344 l 599 344 l 439 794 l 436 794 m 225 1135 q 275 1188 244 1163 q 350 1214 306 1214 q 396 1205 372 1214 q 442 1185 419 1196 q 488 1167 465 1175 q 531 1158 510 1158 q 574 1171 554 1158 q 613 1207 594 1183 l 650 1138 q 595 1081 625 1103 q 525 1058 565 1058 q 479 1067 501 1058 q 434 1085 457 1075 q 388 1105 411 1096 q 343 1114 365 1114 q 300 1101 321 1114 q 263 1065 279 1088 l 225 1135 z "},"Ä":{"ha":876,"x_min":17,"x_max":860,"o":"m 860 0 l 726 0 l 642 236 l 235 236 l 149 0 l 17 0 l 374 944 l 503 944 l 860 0 m 436 794 l 276 344 l 599 344 l 439 794 l 436 794 m 206 1133 q 227 1190 206 1169 q 285 1211 249 1211 q 344 1190 322 1211 q 365 1133 365 1169 q 344 1076 365 1097 q 285 1054 322 1054 q 227 1076 249 1054 q 206 1133 206 1097 m 510 1133 q 531 1190 510 1169 q 589 1211 553 1211 q 648 1190 626 1211 q 669 1133 669 1169 q 648 1076 669 1097 q 589 1054 626 1054 q 531 1076 553 1054 q 510 1133 510 1097 z "},"Å":{"ha":876,"x_min":17,"x_max":860,"o":"m 297 1001 q 337 1097 297 1064 q 439 1131 376 1131 q 540 1097 501 1131 q 579 1001 579 1064 q 565 935 579 964 q 522 892 550 907 l 860 0 l 726 0 l 642 236 l 235 236 l 149 0 l 17 0 l 354 892 q 312 936 326 908 q 297 1001 297 964 m 436 794 l 276 344 l 599 344 l 439 794 l 436 794 m 379 1001 q 395 960 379 974 q 439 946 411 946 q 483 960 467 946 q 499 1001 499 974 q 483 1042 499 1029 q 439 1056 467 1056 q 395 1042 411 1056 q 379 1001 379 1029 z "},"Æ":{"ha":1278,"x_min":-12,"x_max":1196,"o":"m -12 14 l 556 944 l 1192 944 l 1192 829 l 718 829 l 718 539 l 1147 539 l 1147 424 l 718 424 l 718 115 l 1196 115 l 1196 0 l 590 0 l 590 236 l 265 236 l 124 0 l -12 0 l -12 14 m 588 789 l 328 344 l 590 344 l 590 789 l 588 789 z "},"Ç":{"ha":832,"x_min":81,"x_max":768,"o":"m 413 -101 l 443 -15 q 287 36 354 -4 q 174 140 219 76 q 104 288 128 203 q 81 472 81 372 q 109 673 81 582 q 192 829 138 764 q 328 930 247 894 q 517 965 410 965 q 642 949 578 965 q 768 904 706 933 l 733 803 q 622 838 674 829 q 517 847 569 847 q 380 821 438 847 q 285 746 322 794 q 230 628 247 697 q 213 472 213 558 q 230 317 213 386 q 285 199 247 247 q 380 124 322 150 q 517 97 438 97 q 622 106 569 97 q 733 142 674 115 l 768 40 q 651 -3 710 13 q 535 -21 592 -18 l 515 -67 q 587 -99 560 -74 q 614 -167 614 -124 q 567 -267 614 -237 q 450 -296 521 -296 q 389 -290 417 -296 q 346 -276 361 -283 l 365 -200 q 398 -210 379 -206 q 439 -215 417 -215 q 488 -205 471 -215 q 506 -167 506 -194 q 481 -126 506 -136 q 421 -115 457 -115 l 413 -101 z "},"È":{"ha":814,"x_min":126,"x_max":732,"o":"m 728 944 l 728 829 l 254 829 l 254 539 l 683 539 l 683 424 l 254 424 l 254 115 l 732 115 l 732 0 l 126 0 l 126 944 l 728 944 m 279 1226 l 415 1226 l 490 1058 l 490 1044 l 383 1044 l 279 1213 l 279 1226 z "},"É":{"ha":814,"x_min":126,"x_max":732,"o":"m 728 944 l 728 829 l 254 829 l 254 539 l 683 539 l 683 424 l 254 424 l 254 115 l 732 115 l 732 0 l 126 0 l 126 944 l 728 944 m 586 1213 l 482 1044 l 375 1044 l 375 1058 l 450 1226 l 586 1226 l 586 1213 z "},"Ê":{"ha":814,"x_min":126,"x_max":732,"o":"m 728 944 l 728 829 l 254 829 l 254 539 l 683 539 l 683 424 l 254 424 l 254 115 l 732 115 l 732 0 l 126 0 l 126 944 l 728 944 m 640 1058 l 640 1044 l 526 1044 l 439 1143 l 351 1044 l 238 1044 l 238 1058 l 368 1226 l 510 1226 l 640 1058 z "},"Ë":{"ha":814,"x_min":126,"x_max":732,"o":"m 728 944 l 728 829 l 254 829 l 254 539 l 683 539 l 683 424 l 254 424 l 254 115 l 732 115 l 732 0 l 126 0 l 126 944 l 728 944 m 194 1133 q 216 1190 194 1169 q 274 1211 238 1211 q 333 1190 311 1211 q 354 1133 354 1169 q 333 1076 354 1097 q 274 1054 311 1054 q 216 1076 238 1054 q 194 1133 194 1097 m 499 1133 q 520 1190 499 1169 q 578 1211 542 1211 q 637 1190 615 1211 q 658 1133 658 1169 q 637 1076 658 1097 q 578 1054 615 1054 q 520 1076 542 1054 q 499 1133 499 1097 z "},"Ì":{"ha":381,"x_min":39,"x_max":254,"o":"m 254 0 l 126 0 l 126 944 l 254 944 l 254 0 m 39 1226 l 175 1226 l 250 1058 l 250 1044 l 143 1044 l 39 1213 l 39 1226 z "},"Í":{"ha":381,"x_min":126,"x_max":349,"o":"m 254 0 l 126 0 l 126 944 l 254 944 l 254 0 m 349 1213 l 244 1044 l 138 1044 l 138 1058 l 213 1226 l 349 1226 l 349 1213 z "},"Î":{"ha":381,"x_min":-14,"x_max":389,"o":"m 254 0 l 126 0 l 126 944 l 254 944 l 254 0 m 389 1058 l 389 1044 l 275 1044 l 188 1143 l 100 1044 l -14 1044 l -14 1058 l 117 1226 l 258 1226 l 389 1058 z "},"Ï":{"ha":381,"x_min":-43,"x_max":421,"o":"m 254 0 l 126 0 l 126 944 l 254 944 l 254 0 m -43 1133 q -22 1190 -43 1169 q 36 1211 0 1211 q 95 1190 74 1211 q 117 1133 117 1169 q 95 1076 117 1097 q 36 1054 74 1054 q -22 1076 0 1054 q -43 1133 -43 1097 m 261 1133 q 283 1190 261 1169 q 340 1211 304 1211 q 399 1190 378 1211 q 421 1133 421 1169 q 399 1076 421 1097 q 340 1054 378 1054 q 283 1076 304 1054 q 261 1133 261 1097 z "},"Ð":{"ha":956,"x_min":60,"x_max":872,"o":"m 128 408 l 60 408 l 60 524 l 128 524 l 128 944 l 389 944 q 611 914 519 944 q 761 823 703 883 q 846 674 819 763 q 872 472 872 586 q 846 269 872 357 q 761 122 819 182 q 611 31 703 61 q 389 0 519 0 l 128 0 l 128 408 m 371 115 q 552 136 481 115 q 665 201 624 157 q 724 312 707 244 q 740 472 740 379 q 724 633 740 565 q 665 744 707 700 q 552 808 624 788 q 371 829 481 829 l 256 829 l 256 524 l 483 524 l 483 408 l 256 408 l 256 115 l 371 115 z "},"Ñ":{"ha":989,"x_min":126,"x_max":863,"o":"m 735 201 l 735 944 l 863 944 l 863 0 l 731 0 l 257 743 l 254 743 l 254 0 l 126 0 l 126 944 l 257 944 l 732 201 l 735 201 m 281 1135 q 331 1188 300 1163 q 406 1214 361 1214 q 451 1205 428 1214 q 498 1185 475 1196 q 543 1167 521 1175 q 586 1158 565 1158 q 630 1171 610 1158 q 668 1207 650 1183 l 706 1138 q 651 1081 681 1103 q 581 1058 621 1058 q 535 1067 557 1058 q 490 1085 513 1075 q 444 1105 467 1096 q 399 1114 421 1114 q 356 1101 376 1114 q 318 1065 335 1088 l 281 1135 z "},"Ò":{"ha":999,"x_min":81,"x_max":918,"o":"m 213 472 q 226 324 213 393 q 274 206 240 256 q 363 126 307 156 q 500 97 418 97 q 638 126 583 97 q 726 206 693 156 q 772 324 758 256 q 786 472 786 393 q 772 620 786 551 q 726 739 758 689 q 638 818 693 789 q 500 847 583 847 q 363 818 418 847 q 274 739 307 789 q 226 620 240 689 q 213 472 213 551 m 918 472 q 894 278 918 368 q 821 121 871 188 q 692 17 771 54 q 500 -21 613 -21 q 308 17 388 -21 q 178 121 229 54 q 104 278 128 188 q 81 472 81 368 q 104 667 81 576 q 178 824 128 757 q 308 928 229 890 q 500 965 388 965 q 692 928 613 965 q 821 824 771 890 q 894 667 871 757 q 918 472 918 576 m 358 1226 l 494 1226 l 569 1058 l 569 1044 l 463 1044 l 358 1213 l 358 1226 z "},"Ó":{"ha":999,"x_min":81,"x_max":918,"o":"m 213 472 q 226 324 213 393 q 274 206 240 256 q 363 126 307 156 q 500 97 418 97 q 638 126 583 97 q 726 206 693 156 q 772 324 758 256 q 786 472 786 393 q 772 620 786 551 q 726 739 758 689 q 638 818 693 789 q 500 847 583 847 q 363 818 418 847 q 274 739 307 789 q 226 620 240 689 q 213 472 213 551 m 918 472 q 894 278 918 368 q 821 121 871 188 q 692 17 771 54 q 500 -21 613 -21 q 308 17 388 -21 q 178 121 229 54 q 104 278 128 188 q 81 472 81 368 q 104 667 81 576 q 178 824 128 757 q 308 928 229 890 q 500 965 388 965 q 692 928 613 965 q 821 824 771 890 q 894 667 871 757 q 918 472 918 576 m 656 1213 l 551 1044 l 444 1044 l 444 1058 l 519 1226 l 656 1226 l 656 1213 z "},"Ô":{"ha":999,"x_min":81,"x_max":918,"o":"m 213 472 q 226 324 213 393 q 274 206 240 256 q 363 126 307 156 q 500 97 418 97 q 638 126 583 97 q 726 206 693 156 q 772 324 758 256 q 786 472 786 393 q 772 620 786 551 q 726 739 758 689 q 638 818 693 789 q 500 847 583 847 q 363 818 418 847 q 274 739 307 789 q 226 620 240 689 q 213 472 213 551 m 918 472 q 894 278 918 368 q 821 121 871 188 q 692 17 771 54 q 500 -21 613 -21 q 308 17 388 -21 q 178 121 229 54 q 104 278 128 188 q 81 472 81 368 q 104 667 81 576 q 178 824 128 757 q 308 928 229 890 q 500 965 388 965 q 692 928 613 965 q 821 824 771 890 q 894 667 871 757 q 918 472 918 576 m 708 1058 l 708 1044 l 594 1044 l 507 1143 l 419 1044 l 306 1044 l 306 1058 l 436 1226 l 578 1226 l 708 1058 z "},"Õ":{"ha":999,"x_min":81,"x_max":918,"o":"m 213 472 q 226 324 213 393 q 274 206 240 256 q 363 126 307 156 q 500 97 418 97 q 638 126 583 97 q 726 206 693 156 q 772 324 758 256 q 786 472 786 393 q 772 620 786 551 q 726 739 758 689 q 638 818 693 789 q 500 847 583 847 q 363 818 418 847 q 274 739 307 789 q 226 620 240 689 q 213 472 213 551 m 918 472 q 894 278 918 368 q 821 121 871 188 q 692 17 771 54 q 500 -21 613 -21 q 308 17 388 -21 q 178 121 229 54 q 104 278 128 188 q 81 472 81 368 q 104 667 81 576 q 178 824 128 757 q 308 928 229 890 q 500 965 388 965 q 692 928 613 965 q 821 824 771 890 q 894 667 871 757 q 918 472 918 576 m 293 1135 q 343 1188 313 1163 q 418 1214 374 1214 q 464 1205 440 1214 q 510 1185 488 1196 q 556 1167 533 1175 q 599 1158 578 1158 q 642 1171 622 1158 q 681 1207 663 1183 l 718 1138 q 663 1081 693 1103 q 593 1058 633 1058 q 547 1067 569 1058 q 502 1085 525 1075 q 456 1105 479 1096 q 411 1114 433 1114 q 368 1101 389 1114 q 331 1065 347 1088 l 293 1135 z "},"Ö":{"ha":999,"x_min":81,"x_max":918,"o":"m 213 472 q 226 324 213 393 q 274 206 240 256 q 363 126 307 156 q 500 97 418 97 q 638 126 583 97 q 726 206 693 156 q 772 324 758 256 q 786 472 786 393 q 772 620 786 551 q 726 739 758 689 q 638 818 693 789 q 500 847 583 847 q 363 818 418 847 q 274 739 307 789 q 226 620 240 689 q 213 472 213 551 m 918 472 q 894 278 918 368 q 821 121 871 188 q 692 17 771 54 q 500 -21 613 -21 q 308 17 388 -21 q 178 121 229 54 q 104 278 128 188 q 81 472 81 368 q 104 667 81 576 q 178 824 128 757 q 308 928 229 890 q 500 965 388 965 q 692 928 613 965 q 821 824 771 890 q 894 667 871 757 q 918 472 918 576 m 274 1133 q 295 1190 274 1169 q 353 1211 317 1211 q 412 1190 390 1211 q 433 1133 433 1169 q 412 1076 433 1097 q 353 1054 390 1054 q 295 1076 317 1054 q 274 1133 274 1097 m 578 1133 q 599 1190 578 1169 q 657 1211 621 1211 q 716 1190 694 1211 q 738 1133 738 1169 q 716 1076 738 1097 q 657 1054 694 1054 q 599 1076 621 1054 q 578 1133 578 1097 z "},"×":{"ha":819,"x_min":107,"x_max":713,"o":"m 408 446 l 638 675 l 710 603 l 481 374 l 713 143 l 640 71 l 410 301 l 182 75 l 110 147 l 336 374 l 107 604 l 179 676 l 408 446 z "},"Ø":{"ha":999,"x_min":81,"x_max":918,"o":"m 136 14 l 194 101 q 108 265 135 169 q 81 472 81 360 q 104 667 81 576 q 178 824 128 757 q 308 928 229 890 q 500 965 388 965 q 628 949 571 965 q 731 906 686 933 l 785 985 l 864 931 l 804 843 q 891 681 864 776 q 918 472 918 585 q 894 278 918 368 q 821 121 871 188 q 692 17 771 54 q 500 -21 613 -21 q 370 -6 428 -21 q 267 39 313 10 l 217 -37 l 136 14 m 786 472 q 774 615 786 549 q 729 732 761 682 l 336 142 q 408 108 368 119 q 500 97 447 97 q 638 126 583 97 q 726 206 693 156 q 772 324 758 256 q 786 472 786 393 m 213 472 q 225 330 213 396 q 268 214 238 264 l 663 803 q 592 835 632 824 q 500 847 551 847 q 363 818 418 847 q 274 739 307 789 q 226 620 240 689 q 213 472 213 551 z "},"Ù":{"ha":964,"x_min":117,"x_max":846,"o":"m 244 944 l 244 360 q 258 251 244 300 q 301 169 272 203 q 375 116 331 135 q 482 97 419 97 q 589 116 544 97 q 662 169 633 135 q 704 251 690 203 q 718 360 718 300 l 718 944 l 846 944 l 846 346 q 824 194 846 261 q 758 78 803 126 q 645 5 714 31 q 482 -21 576 -21 q 317 5 386 -21 q 204 78 249 31 q 138 194 160 126 q 117 347 117 263 l 117 944 l 244 944 m 328 1226 l 464 1226 l 539 1058 l 539 1044 l 432 1044 l 328 1213 l 328 1226 z "},"Ú":{"ha":964,"x_min":117,"x_max":846,"o":"m 244 944 l 244 360 q 258 251 244 300 q 301 169 272 203 q 375 116 331 135 q 482 97 419 97 q 589 116 544 97 q 662 169 633 135 q 704 251 690 203 q 718 360 718 300 l 718 944 l 846 944 l 846 346 q 824 194 846 261 q 758 78 803 126 q 645 5 714 31 q 482 -21 576 -21 q 317 5 386 -21 q 204 78 249 31 q 138 194 160 126 q 117 347 117 263 l 117 944 l 244 944 m 629 1213 l 525 1044 l 418 1044 l 418 1058 l 493 1226 l 629 1226 l 629 1213 z "},"Û":{"ha":964,"x_min":117,"x_max":846,"o":"m 244 944 l 244 360 q 258 251 244 300 q 301 169 272 203 q 375 116 331 135 q 482 97 419 97 q 589 116 544 97 q 662 169 633 135 q 704 251 690 203 q 718 360 718 300 l 718 944 l 846 944 l 846 346 q 824 194 846 261 q 758 78 803 126 q 645 5 714 31 q 482 -21 576 -21 q 317 5 386 -21 q 204 78 249 31 q 138 194 160 126 q 117 347 117 263 l 117 944 l 244 944 m 681 1058 l 681 1044 l 567 1044 l 479 1143 l 392 1044 l 278 1044 l 278 1058 l 408 1226 l 550 1226 l 681 1058 z "},"Ü":{"ha":964,"x_min":117,"x_max":846,"o":"m 244 944 l 244 360 q 258 251 244 300 q 301 169 272 203 q 375 116 331 135 q 482 97 419 97 q 589 116 544 97 q 662 169 633 135 q 704 251 690 203 q 718 360 718 300 l 718 944 l 846 944 l 846 346 q 824 194 846 261 q 758 78 803 126 q 645 5 714 31 q 482 -21 576 -21 q 317 5 386 -21 q 204 78 249 31 q 138 194 160 126 q 117 347 117 263 l 117 944 l 244 944 m 247 1133 q 269 1190 247 1169 q 326 1211 290 1211 q 385 1190 364 1211 q 407 1133 407 1169 q 385 1076 407 1097 q 326 1054 364 1054 q 269 1076 290 1054 q 247 1133 247 1097 m 551 1133 q 573 1190 551 1169 q 631 1211 594 1211 q 690 1190 668 1211 q 711 1133 711 1169 q 690 1076 711 1097 q 631 1054 668 1054 q 573 1076 594 1054 q 551 1133 551 1097 z "},"Ý":{"ha":778,"x_min":13,"x_max":768,"o":"m 150 944 l 388 519 l 390 519 l 632 944 l 768 944 l 768 931 l 453 399 l 453 0 l 325 0 l 325 399 l 13 931 l 13 944 l 150 944 m 544 1213 l 440 1044 l 333 1044 l 333 1058 l 408 1226 l 544 1226 l 544 1213 z "},"Þ":{"ha":832,"x_min":126,"x_max":767,"o":"m 126 0 l 126 944 l 254 944 l 254 774 l 461 774 q 598 753 540 774 q 693 696 656 733 q 749 605 731 658 q 767 483 767 551 q 748 362 767 415 q 692 271 729 308 q 597 213 654 233 q 461 193 539 193 l 254 193 l 254 0 l 126 0 m 254 308 l 450 308 q 592 356 549 308 q 635 483 635 404 q 592 610 635 563 q 450 658 549 658 l 254 658 l 254 308 z "},"ß":{"ha":833,"x_min":106,"x_max":768,"o":"m 106 660 q 127 799 106 739 q 187 899 149 858 q 278 959 225 939 q 397 979 332 979 q 519 958 465 979 q 611 901 574 938 q 669 817 649 865 q 689 715 689 769 q 678 642 689 672 q 649 589 667 611 q 610 551 632 567 q 567 525 589 536 l 567 522 q 638 493 601 513 q 703 443 674 474 q 750 371 732 413 q 768 275 768 329 q 744 144 768 200 q 677 51 721 88 q 573 -3 633 15 q 438 -21 513 -21 q 399 -20 418 -21 q 368 -17 379 -19 l 368 92 q 400 90 383 90 q 438 89 417 89 q 588 133 535 89 q 640 275 640 178 q 589 409 640 357 q 422 461 538 461 l 400 461 l 400 564 l 429 564 q 530 602 499 564 q 561 707 561 640 q 521 823 561 776 q 401 869 481 869 q 274 817 314 869 q 233 650 233 765 l 233 0 l 106 0 l 106 660 z "},"à":{"ha":722,"x_min":57,"x_max":682,"o":"m 393 303 q 294 295 333 303 q 230 274 254 288 q 195 240 206 260 q 185 194 185 219 q 215 115 185 140 q 300 89 244 89 q 396 104 347 89 q 481 146 444 119 l 481 303 l 393 303 m 501 60 q 399 1 456 22 q 275 -21 342 -21 q 189 -7 229 -21 q 119 33 149 7 q 74 97 90 58 q 57 186 57 136 q 81 288 57 247 q 147 354 104 329 q 247 390 189 379 q 374 400 304 400 l 481 400 l 481 435 q 446 544 481 507 q 331 581 411 581 q 230 563 282 581 q 139 522 178 546 l 92 617 q 199 669 136 649 q 333 690 261 690 q 535 624 464 690 q 606 432 606 558 l 606 129 q 612 102 606 111 q 644 93 618 93 l 682 93 l 682 -6 q 650 -13 667 -10 q 614 -17 633 -17 q 540 4 565 -17 q 504 60 515 25 l 501 60 m 189 986 l 325 986 l 414 818 l 414 804 l 307 804 l 189 972 l 189 986 z "},"á":{"ha":722,"x_min":57,"x_max":682,"o":"m 393 303 q 294 295 333 303 q 230 274 254 288 q 195 240 206 260 q 185 194 185 219 q 215 115 185 140 q 300 89 244 89 q 396 104 347 89 q 481 146 444 119 l 481 303 l 393 303 m 501 60 q 399 1 456 22 q 275 -21 342 -21 q 189 -7 229 -21 q 119 33 149 7 q 74 97 90 58 q 57 186 57 136 q 81 288 57 247 q 147 354 104 329 q 247 390 189 379 q 374 400 304 400 l 481 400 l 481 435 q 446 544 481 507 q 331 581 411 581 q 230 563 282 581 q 139 522 178 546 l 92 617 q 199 669 136 649 q 333 690 261 690 q 535 624 464 690 q 606 432 606 558 l 606 129 q 612 102 606 111 q 644 93 618 93 l 682 93 l 682 -6 q 650 -13 667 -10 q 614 -17 633 -17 q 540 4 565 -17 q 504 60 515 25 l 501 60 m 522 972 l 404 804 l 297 804 l 297 818 l 386 986 l 522 986 l 522 972 z "},"â":{"ha":722,"x_min":57,"x_max":682,"o":"m 393 303 q 294 295 333 303 q 230 274 254 288 q 195 240 206 260 q 185 194 185 219 q 215 115 185 140 q 300 89 244 89 q 396 104 347 89 q 481 146 444 119 l 481 303 l 393 303 m 501 60 q 399 1 456 22 q 275 -21 342 -21 q 189 -7 229 -21 q 119 33 149 7 q 74 97 90 58 q 57 186 57 136 q 81 288 57 247 q 147 354 104 329 q 247 390 189 379 q 374 400 304 400 l 481 400 l 481 435 q 446 544 481 507 q 331 581 411 581 q 230 563 282 581 q 139 522 178 546 l 92 617 q 199 669 136 649 q 333 690 261 690 q 535 624 464 690 q 606 432 606 558 l 606 129 q 612 102 606 111 q 644 93 618 93 l 682 93 l 682 -6 q 650 -13 667 -10 q 614 -17 633 -17 q 540 4 565 -17 q 504 60 515 25 l 501 60 m 550 818 l 550 804 l 436 804 l 349 907 l 261 804 l 147 804 l 147 818 l 278 986 l 419 986 l 550 818 z "},"ã":{"ha":722,"x_min":57,"x_max":682,"o":"m 393 303 q 294 295 333 303 q 230 274 254 288 q 195 240 206 260 q 185 194 185 219 q 215 115 185 140 q 300 89 244 89 q 396 104 347 89 q 481 146 444 119 l 481 303 l 393 303 m 501 60 q 399 1 456 22 q 275 -21 342 -21 q 189 -7 229 -21 q 119 33 149 7 q 74 97 90 58 q 57 186 57 136 q 81 288 57 247 q 147 354 104 329 q 247 390 189 379 q 374 400 304 400 l 481 400 l 481 435 q 446 544 481 507 q 331 581 411 581 q 230 563 282 581 q 139 522 178 546 l 92 617 q 199 669 136 649 q 333 690 261 690 q 535 624 464 690 q 606 432 606 558 l 606 129 q 612 102 606 111 q 644 93 618 93 l 682 93 l 682 -6 q 650 -13 667 -10 q 614 -17 633 -17 q 540 4 565 -17 q 504 60 515 25 l 501 60 m 136 881 q 186 934 156 908 q 261 960 217 960 q 307 951 283 960 q 353 931 331 942 q 399 913 376 921 q 442 904 421 904 q 485 917 465 904 q 524 953 506 929 l 561 883 q 506 826 536 849 q 436 804 476 804 q 390 813 413 804 q 345 831 368 821 q 299 851 322 842 q 254 860 276 860 q 211 847 232 860 q 174 811 190 833 l 136 881 z "},"ä":{"ha":722,"x_min":57,"x_max":682,"o":"m 393 303 q 294 295 333 303 q 230 274 254 288 q 195 240 206 260 q 185 194 185 219 q 215 115 185 140 q 300 89 244 89 q 396 104 347 89 q 481 146 444 119 l 481 303 l 393 303 m 501 60 q 399 1 456 22 q 275 -21 342 -21 q 189 -7 229 -21 q 119 33 149 7 q 74 97 90 58 q 57 186 57 136 q 81 288 57 247 q 147 354 104 329 q 247 390 189 379 q 374 400 304 400 l 481 400 l 481 435 q 446 544 481 507 q 331 581 411 581 q 230 563 282 581 q 139 522 178 546 l 92 617 q 199 669 136 649 q 333 690 261 690 q 535 624 464 690 q 606 432 606 558 l 606 129 q 612 102 606 111 q 644 93 618 93 l 682 93 l 682 -6 q 650 -13 667 -10 q 614 -17 633 -17 q 540 4 565 -17 q 504 60 515 25 l 501 60 m 138 881 q 159 938 138 917 q 217 958 181 958 q 276 938 254 958 q 297 881 297 917 q 276 823 297 844 q 217 801 254 801 q 159 823 181 801 q 138 881 138 844 m 414 881 q 435 938 414 917 q 493 958 457 958 q 552 938 531 958 q 574 881 574 917 q 552 823 574 844 q 493 801 531 801 q 435 823 457 801 q 414 881 414 844 z "},"å":{"ha":722,"x_min":57,"x_max":682,"o":"m 393 303 q 294 295 333 303 q 230 274 254 288 q 195 240 206 260 q 185 194 185 219 q 215 115 185 140 q 300 89 244 89 q 396 104 347 89 q 481 146 444 119 l 481 303 l 393 303 m 501 60 q 399 1 456 22 q 275 -21 342 -21 q 189 -7 229 -21 q 119 33 149 7 q 74 97 90 58 q 57 186 57 136 q 81 288 57 247 q 147 354 104 329 q 247 390 189 379 q 374 400 304 400 l 481 400 l 481 435 q 446 544 481 507 q 331 581 411 581 q 230 563 282 581 q 139 522 178 546 l 92 617 q 199 669 136 649 q 333 690 261 690 q 535 624 464 690 q 606 432 606 558 l 606 129 q 612 102 606 111 q 644 93 618 93 l 682 93 l 682 -6 q 650 -13 667 -10 q 614 -17 633 -17 q 540 4 565 -17 q 504 60 515 25 l 501 60 m 290 886 q 306 844 290 858 q 350 831 322 831 q 394 844 378 831 q 410 886 410 858 q 394 927 410 914 q 350 940 378 940 q 306 927 322 940 q 290 886 290 914 m 208 886 q 248 982 208 949 q 350 1015 288 1015 q 451 982 413 1015 q 490 886 490 949 q 451 790 490 824 q 350 756 413 756 q 248 790 288 756 q 208 886 208 824 z "},"æ":{"ha":1143,"x_min":57,"x_max":1079,"o":"m 615 294 q 667 145 615 203 q 815 88 718 88 q 926 106 883 88 q 1004 147 968 124 l 1053 51 q 950 1 1008 22 q 804 -21 892 -21 q 653 19 714 -21 q 553 122 592 60 q 505 65 532 90 q 443 19 478 39 q 367 -10 408 0 q 275 -21 325 -21 q 189 -7 229 -21 q 119 33 149 7 q 74 97 90 58 q 57 186 57 136 q 80 288 57 247 q 143 352 103 328 q 240 387 183 376 q 365 397 297 397 l 493 397 l 493 435 q 483 498 493 471 q 452 544 472 525 q 402 572 432 563 q 332 581 372 581 q 231 564 283 581 q 140 524 179 547 l 94 617 q 201 669 139 649 q 335 690 263 690 q 477 664 415 690 q 571 589 539 638 q 660 658 603 626 q 796 690 718 690 q 929 666 875 690 q 1017 602 983 642 q 1065 510 1050 563 q 1079 401 1079 457 q 1076 344 1079 375 q 1071 294 1074 313 l 615 294 m 957 394 q 958 409 958 401 q 958 424 958 417 q 949 488 958 458 q 920 538 940 517 q 869 572 900 560 q 796 583 839 583 q 722 569 754 583 q 666 531 689 556 q 631 471 643 506 q 615 394 618 436 l 957 394 m 385 294 q 285 288 325 294 q 222 269 246 282 q 188 238 197 257 q 178 194 178 219 q 211 115 178 140 q 300 89 244 89 q 367 101 333 89 q 430 140 401 114 q 476 204 458 165 q 494 294 494 243 l 385 294 z "},"ç":{"ha":669,"x_min":69,"x_max":608,"o":"m 301 -101 l 332 -15 q 220 24 269 -6 q 138 100 171 54 q 87 205 104 146 q 69 335 69 264 q 92 479 69 414 q 156 591 114 544 q 258 664 197 638 q 399 690 319 690 q 508 676 451 690 q 608 642 565 661 l 576 544 q 497 569 546 557 q 400 581 449 581 q 309 560 347 581 q 246 504 271 539 q 209 425 221 469 q 197 335 197 381 q 209 244 197 289 q 246 165 221 200 q 309 110 271 131 q 400 89 347 89 q 497 101 449 89 q 576 125 546 113 l 608 28 q 521 -3 569 10 q 424 -19 472 -17 l 404 -67 q 476 -99 449 -74 q 503 -167 503 -124 q 456 -267 503 -237 q 339 -296 410 -296 q 278 -290 306 -296 q 235 -276 250 -283 l 254 -200 q 287 -210 268 -206 q 328 -215 306 -215 q 377 -205 360 -215 q 394 -167 394 -194 q 370 -126 394 -136 q 310 -115 346 -115 l 301 -101 z "},"è":{"ha":746,"x_min":68,"x_max":682,"o":"m 194 294 q 210 210 194 249 q 253 144 225 172 q 319 101 281 117 q 407 86 358 86 q 524 104 476 86 q 607 146 571 122 l 656 51 q 547 1 611 22 q 396 -21 483 -21 q 248 8 310 -21 q 146 86 186 38 q 87 200 106 135 q 68 338 68 265 q 88 469 68 406 q 147 582 107 533 q 245 660 186 631 q 383 690 304 690 q 519 666 463 690 q 612 602 575 642 q 665 510 649 563 q 682 401 682 457 q 679 344 682 375 q 674 294 676 313 l 194 294 m 560 394 q 561 409 561 401 q 561 424 561 417 q 549 488 561 458 q 515 538 538 517 q 460 572 493 560 q 383 583 426 583 q 308 569 342 583 q 249 531 274 556 q 211 471 225 506 q 194 394 197 436 l 560 394 m 236 986 l 372 986 l 461 818 l 461 804 l 354 804 l 236 972 l 236 986 z "},"é":{"ha":746,"x_min":68,"x_max":682,"o":"m 194 294 q 210 210 194 249 q 253 144 225 172 q 319 101 281 117 q 407 86 358 86 q 524 104 476 86 q 607 146 571 122 l 656 51 q 547 1 611 22 q 396 -21 483 -21 q 248 8 310 -21 q 146 86 186 38 q 87 200 106 135 q 68 338 68 265 q 88 469 68 406 q 147 582 107 533 q 245 660 186 631 q 383 690 304 690 q 519 666 463 690 q 612 602 575 642 q 665 510 649 563 q 682 401 682 457 q 679 344 682 375 q 674 294 676 313 l 194 294 m 560 394 q 561 409 561 401 q 561 424 561 417 q 549 488 561 458 q 515 538 538 517 q 460 572 493 560 q 383 583 426 583 q 308 569 342 583 q 249 531 274 556 q 211 471 225 506 q 194 394 197 436 l 560 394 m 563 972 l 444 804 l 338 804 l 338 818 l 426 986 l 563 986 l 563 972 z "},"ê":{"ha":746,"x_min":68,"x_max":682,"o":"m 194 294 q 210 210 194 249 q 253 144 225 172 q 319 101 281 117 q 407 86 358 86 q 524 104 476 86 q 607 146 571 122 l 656 51 q 547 1 611 22 q 396 -21 483 -21 q 248 8 310 -21 q 146 86 186 38 q 87 200 106 135 q 68 338 68 265 q 88 469 68 406 q 147 582 107 533 q 245 660 186 631 q 383 690 304 690 q 519 666 463 690 q 612 602 575 642 q 665 510 649 563 q 682 401 682 457 q 679 344 682 375 q 674 294 676 313 l 194 294 m 560 394 q 561 409 561 401 q 561 424 561 417 q 549 488 561 458 q 515 538 538 517 q 460 572 493 560 q 383 583 426 583 q 308 569 342 583 q 249 531 274 556 q 211 471 225 506 q 194 394 197 436 l 560 394 m 594 818 l 594 804 l 481 804 l 393 907 l 306 804 l 192 804 l 192 818 l 322 986 l 464 986 l 594 818 z "},"ë":{"ha":746,"x_min":68,"x_max":682,"o":"m 194 294 q 210 210 194 249 q 253 144 225 172 q 319 101 281 117 q 407 86 358 86 q 524 104 476 86 q 607 146 571 122 l 656 51 q 547 1 611 22 q 396 -21 483 -21 q 248 8 310 -21 q 146 86 186 38 q 87 200 106 135 q 68 338 68 265 q 88 469 68 406 q 147 582 107 533 q 245 660 186 631 q 383 690 304 690 q 519 666 463 690 q 612 602 575 642 q 665 510 649 563 q 682 401 682 457 q 679 344 682 375 q 674 294 676 313 l 194 294 m 560 394 q 561 409 561 401 q 561 424 561 417 q 549 488 561 458 q 515 538 538 517 q 460 572 493 560 q 383 583 426 583 q 308 569 342 583 q 249 531 274 556 q 211 471 225 506 q 194 394 197 436 l 560 394 m 175 881 q 197 938 175 917 q 254 958 218 958 q 313 938 292 958 q 335 881 335 917 q 313 823 335 844 q 254 801 292 801 q 197 823 218 801 q 175 881 175 844 m 451 881 q 473 938 451 917 q 531 958 494 958 q 590 938 568 958 q 611 881 611 917 q 590 823 611 844 q 531 801 568 801 q 473 823 494 801 q 451 881 451 844 z "},"ì":{"ha":336,"x_min":3,"x_max":231,"o":"m 106 0 l 106 669 l 231 669 l 231 0 l 106 0 m 3 986 l 139 986 l 228 818 l 228 804 l 121 804 l 3 972 l 3 986 z "},"í":{"ha":336,"x_min":106,"x_max":338,"o":"m 106 0 l 106 669 l 231 669 l 231 0 l 106 0 m 338 972 l 219 804 l 113 804 l 113 818 l 201 986 l 338 986 l 338 972 z "},"î":{"ha":336,"x_min":-32,"x_max":371,"o":"m 106 0 l 106 669 l 231 669 l 231 0 l 106 0 m 371 818 l 371 804 l 257 804 l 169 907 l 82 804 l -32 804 l -32 818 l 99 986 l 240 986 l 371 818 z "},"ï":{"ha":336,"x_min":-49,"x_max":388,"o":"m 106 0 l 106 669 l 231 669 l 231 0 l 106 0 m -49 881 q -27 938 -49 917 q 31 958 -6 958 q 90 938 68 958 q 111 881 111 917 q 90 823 111 844 q 31 801 68 801 q -27 823 -6 801 q -49 881 -49 844 m 228 881 q 249 938 228 917 q 307 958 271 958 q 366 938 344 958 q 388 881 388 917 q 366 823 388 844 q 307 801 344 801 q 249 823 271 801 q 228 881 228 844 z "},"ð":{"ha":814,"x_min":68,"x_max":744,"o":"m 538 810 q 618 699 581 756 q 683 583 656 642 q 728 463 711 524 q 744 339 744 401 q 722 194 744 260 q 656 80 700 128 q 549 6 613 32 q 406 -21 486 -21 q 263 6 325 -21 q 157 78 200 32 q 91 188 114 125 q 68 324 68 250 q 90 462 68 400 q 153 567 113 524 q 249 635 193 611 q 374 660 306 660 q 422 655 396 660 q 471 642 447 650 q 515 623 494 633 q 550 603 536 613 l 553 606 q 499 692 532 646 q 429 778 465 739 l 282 739 l 253 821 l 358 849 q 301 907 332 876 q 243 958 269 938 l 243 972 l 386 972 q 428 928 406 953 q 471 882 451 903 l 608 918 l 638 835 l 538 810 m 196 324 q 211 231 196 272 q 254 159 226 189 q 321 113 282 129 q 406 97 360 97 q 559 158 501 97 q 617 324 617 219 q 559 485 617 429 q 406 542 501 542 q 254 485 313 542 q 196 324 196 429 z "},"ñ":{"ha":792,"x_min":106,"x_max":693,"o":"m 194 669 l 210 608 l 213 608 q 253 633 228 619 q 309 660 278 647 q 376 681 340 672 q 449 690 413 690 q 627 626 561 690 q 693 435 693 561 l 693 0 l 568 0 l 568 410 q 531 538 568 496 q 418 581 494 581 q 365 574 392 581 q 312 558 338 568 q 265 537 286 549 q 231 515 244 525 l 231 0 l 106 0 l 106 669 l 194 669 m 197 881 q 247 934 217 908 q 322 960 278 960 q 368 951 344 960 q 415 931 392 942 q 460 913 438 921 q 503 904 482 904 q 547 917 526 904 q 585 953 567 929 l 622 883 q 567 826 597 849 q 497 804 538 804 q 451 813 474 804 q 406 831 429 821 q 360 851 383 842 q 315 860 338 860 q 272 847 293 860 q 235 811 251 833 l 197 881 z "},"ò":{"ha":797,"x_min":68,"x_max":729,"o":"m 196 335 q 206 238 196 283 q 240 160 217 193 q 302 108 264 126 q 396 89 340 89 q 492 108 453 89 q 555 160 531 126 q 590 238 579 193 q 601 335 601 283 q 590 431 601 386 q 555 510 579 476 q 492 562 531 543 q 396 581 453 581 q 302 562 340 581 q 240 510 264 543 q 206 431 217 476 q 196 335 196 386 m 729 335 q 710 197 729 261 q 651 84 692 132 q 548 8 611 36 q 396 -21 485 -21 q 246 8 308 -21 q 144 84 183 36 q 86 197 104 132 q 68 335 68 261 q 86 472 68 407 q 144 585 104 538 q 246 662 183 633 q 396 690 308 690 q 548 662 485 690 q 651 585 611 633 q 710 472 692 538 q 729 335 729 407 m 236 986 l 372 986 l 461 818 l 461 804 l 354 804 l 236 972 l 236 986 z "},"ó":{"ha":797,"x_min":68,"x_max":729,"o":"m 196 335 q 206 238 196 283 q 240 160 217 193 q 302 108 264 126 q 396 89 340 89 q 492 108 453 89 q 555 160 531 126 q 590 238 579 193 q 601 335 601 283 q 590 431 601 386 q 555 510 579 476 q 492 562 531 543 q 396 581 453 581 q 302 562 340 581 q 240 510 264 543 q 206 431 217 476 q 196 335 196 386 m 729 335 q 710 197 729 261 q 651 84 692 132 q 548 8 611 36 q 396 -21 485 -21 q 246 8 308 -21 q 144 84 183 36 q 86 197 104 132 q 68 335 68 261 q 86 472 68 407 q 144 585 104 538 q 246 662 183 633 q 396 690 308 690 q 548 662 485 690 q 651 585 611 633 q 710 472 692 538 q 729 335 729 407 m 565 972 l 447 804 l 340 804 l 340 818 l 429 986 l 565 986 l 565 972 z "},"ô":{"ha":797,"x_min":68,"x_max":729,"o":"m 196 335 q 206 238 196 283 q 240 160 217 193 q 302 108 264 126 q 396 89 340 89 q 492 108 453 89 q 555 160 531 126 q 590 238 579 193 q 601 335 601 283 q 590 431 601 386 q 555 510 579 476 q 492 562 531 543 q 396 581 453 581 q 302 562 340 581 q 240 510 264 543 q 206 431 217 476 q 196 335 196 386 m 729 335 q 710 197 729 261 q 651 84 692 132 q 548 8 611 36 q 396 -21 485 -21 q 246 8 308 -21 q 144 84 183 36 q 86 197 104 132 q 68 335 68 261 q 86 472 68 407 q 144 585 104 538 q 246 662 183 633 q 396 690 308 690 q 548 662 485 690 q 651 585 611 633 q 710 472 692 538 q 729 335 729 407 m 600 818 l 600 804 l 486 804 l 399 907 l 311 804 l 197 804 l 197 818 l 328 986 l 469 986 l 600 818 z "},"õ":{"ha":797,"x_min":68,"x_max":729,"o":"m 196 335 q 206 238 196 283 q 240 160 217 193 q 302 108 264 126 q 396 89 340 89 q 492 108 453 89 q 555 160 531 126 q 590 238 579 193 q 601 335 601 283 q 590 431 601 386 q 555 510 579 476 q 492 562 531 543 q 396 581 453 581 q 302 562 340 581 q 240 510 264 543 q 206 431 217 476 q 196 335 196 386 m 729 335 q 710 197 729 261 q 651 84 692 132 q 548 8 611 36 q 396 -21 485 -21 q 246 8 308 -21 q 144 84 183 36 q 86 197 104 132 q 68 335 68 261 q 86 472 68 407 q 144 585 104 538 q 246 662 183 633 q 396 690 308 690 q 548 662 485 690 q 651 585 611 633 q 710 472 692 538 q 729 335 729 407 m 186 881 q 236 934 206 908 q 311 960 267 960 q 357 951 333 960 q 403 931 381 942 q 449 913 426 921 q 492 904 471 904 q 535 917 515 904 q 574 953 556 929 l 611 883 q 556 826 586 849 q 486 804 526 804 q 440 813 463 804 q 395 831 418 821 q 349 851 372 842 q 304 860 326 860 q 261 847 282 860 q 224 811 240 833 l 186 881 z "},"ö":{"ha":797,"x_min":68,"x_max":729,"o":"m 196 335 q 206 238 196 283 q 240 160 217 193 q 302 108 264 126 q 396 89 340 89 q 492 108 453 89 q 555 160 531 126 q 590 238 579 193 q 601 335 601 283 q 590 431 601 386 q 555 510 579 476 q 492 562 531 543 q 396 581 453 581 q 302 562 340 581 q 240 510 264 543 q 206 431 217 476 q 196 335 196 386 m 729 335 q 710 197 729 261 q 651 84 692 132 q 548 8 611 36 q 396 -21 485 -21 q 246 8 308 -21 q 144 84 183 36 q 86 197 104 132 q 68 335 68 261 q 86 472 68 407 q 144 585 104 538 q 246 662 183 633 q 396 690 308 690 q 548 662 485 690 q 651 585 611 633 q 710 472 692 538 q 729 335 729 407 m 181 881 q 202 938 181 917 q 260 958 224 958 q 319 938 297 958 q 340 881 340 917 q 319 823 340 844 q 260 801 297 801 q 202 823 224 801 q 181 881 181 844 m 457 881 q 478 938 457 917 q 536 958 500 958 q 595 938 574 958 q 617 881 617 917 q 595 823 617 844 q 536 801 574 801 q 478 823 500 801 q 457 881 457 844 z "},"÷":{"ha":819,"x_min":78,"x_max":740,"o":"m 740 426 l 740 324 l 78 324 l 78 426 l 740 426 m 318 97 q 342 163 318 138 q 407 188 367 188 q 472 163 447 188 q 496 97 496 138 q 472 32 496 57 q 407 7 447 7 q 342 32 367 7 q 318 97 318 57 m 318 653 q 342 718 318 693 q 407 743 367 743 q 472 718 447 743 q 496 653 496 693 q 472 588 496 613 q 407 563 447 563 q 342 588 367 563 q 318 653 318 613 z "},"ø":{"ha":797,"x_min":68,"x_max":729,"o":"m 100 19 l 147 81 q 87 194 106 129 q 68 335 68 260 q 86 472 68 407 q 144 585 104 538 q 246 662 183 633 q 396 690 308 690 q 499 678 453 690 q 581 644 544 667 l 628 708 l 704 649 l 653 582 q 711 470 693 533 q 729 335 729 407 q 710 197 729 261 q 651 84 692 132 q 548 8 611 36 q 396 -21 485 -21 q 299 -10 343 -21 q 221 19 256 0 l 172 -43 l 100 19 m 601 335 q 595 411 601 375 q 574 478 589 447 l 292 113 q 396 89 335 89 q 492 108 453 89 q 555 160 531 126 q 590 238 579 193 q 601 335 601 283 m 196 335 q 203 253 196 290 q 226 183 210 215 l 510 551 q 459 573 488 565 q 396 581 431 581 q 302 562 340 581 q 240 510 264 543 q 206 431 217 476 q 196 335 196 386 z "},"ù":{"ha":782,"x_min":99,"x_max":676,"o":"m 224 669 l 224 260 q 257 131 224 174 q 368 89 290 89 q 421 95 394 89 q 472 111 447 101 q 517 133 496 121 q 551 154 538 144 l 551 669 l 676 669 l 676 0 l 588 0 l 572 61 l 569 61 q 529 36 554 50 q 474 10 504 22 q 409 -12 444 -3 q 338 -21 374 -21 q 162 44 225 -21 q 99 235 99 108 l 99 669 l 224 669 m 228 986 l 364 986 l 453 818 l 453 804 l 346 804 l 228 972 l 228 986 z "},"ú":{"ha":782,"x_min":99,"x_max":676,"o":"m 224 669 l 224 260 q 257 131 224 174 q 368 89 290 89 q 421 95 394 89 q 472 111 447 101 q 517 133 496 121 q 551 154 538 144 l 551 669 l 676 669 l 676 0 l 588 0 l 572 61 l 569 61 q 529 36 554 50 q 474 10 504 22 q 409 -12 444 -3 q 338 -21 374 -21 q 162 44 225 -21 q 99 235 99 108 l 99 669 l 224 669 m 561 972 l 443 804 l 336 804 l 336 818 l 425 986 l 561 986 l 561 972 z "},"û":{"ha":782,"x_min":99,"x_max":676,"o":"m 224 669 l 224 260 q 257 131 224 174 q 368 89 290 89 q 421 95 394 89 q 472 111 447 101 q 517 133 496 121 q 551 154 538 144 l 551 669 l 676 669 l 676 0 l 588 0 l 572 61 l 569 61 q 529 36 554 50 q 474 10 504 22 q 409 -12 444 -3 q 338 -21 374 -21 q 162 44 225 -21 q 99 235 99 108 l 99 669 l 224 669 m 593 818 l 593 804 l 479 804 l 392 907 l 304 804 l 190 804 l 190 818 l 321 986 l 463 986 l 593 818 z "},"ü":{"ha":782,"x_min":99,"x_max":676,"o":"m 224 669 l 224 260 q 257 131 224 174 q 368 89 290 89 q 421 95 394 89 q 472 111 447 101 q 517 133 496 121 q 551 154 538 144 l 551 669 l 676 669 l 676 0 l 588 0 l 572 61 l 569 61 q 529 36 554 50 q 474 10 504 22 q 409 -12 444 -3 q 338 -21 374 -21 q 162 44 225 -21 q 99 235 99 108 l 99 669 l 224 669 m 174 881 q 195 938 174 917 q 253 958 217 958 q 312 938 290 958 q 333 881 333 917 q 312 823 333 844 q 253 801 290 801 q 195 823 217 801 q 174 881 174 844 m 450 881 q 472 938 450 917 q 529 958 493 958 q 588 938 567 958 q 610 881 610 917 q 588 823 610 844 q 529 801 567 801 q 472 823 493 801 q 450 881 450 844 z "},"ý":{"ha":701,"x_min":28,"x_max":669,"o":"m 669 656 l 389 -89 q 292 -246 349 -196 q 157 -296 236 -296 q 99 -291 129 -296 q 50 -282 69 -286 l 50 -176 q 97 -183 71 -179 q 146 -186 122 -186 q 218 -161 190 -186 q 265 -82 246 -136 l 297 7 l 28 656 l 28 669 l 153 669 l 351 149 l 356 149 l 546 669 l 669 669 l 669 656 m 531 972 l 413 804 l 306 804 l 306 818 l 394 986 l 531 986 l 531 972 z "},"þ":{"ha":796,"x_min":106,"x_max":726,"o":"m 231 154 q 313 107 263 125 q 413 89 363 89 q 501 108 465 89 q 559 161 538 128 q 590 240 581 194 q 599 335 599 285 q 589 430 599 385 q 558 508 579 475 q 500 561 536 542 q 411 581 464 581 q 313 563 361 581 q 231 515 264 544 l 231 154 m 106 972 l 231 972 l 231 622 l 233 622 q 318 669 269 649 q 444 690 367 690 q 572 662 518 690 q 659 585 625 633 q 710 472 693 538 q 726 335 726 407 q 710 197 726 261 q 660 84 694 132 q 573 8 626 36 q 446 -21 519 -21 q 319 0 368 -21 q 233 47 269 21 l 231 47 l 231 -275 l 106 -275 l 106 972 z "},"ÿ":{"ha":701,"x_min":28,"x_max":669,"o":"m 669 656 l 389 -89 q 292 -246 349 -196 q 157 -296 236 -296 q 99 -291 129 -296 q 50 -282 69 -286 l 50 -176 q 97 -183 71 -179 q 146 -186 122 -186 q 218 -161 190 -186 q 265 -82 246 -136 l 297 7 l 28 656 l 28 669 l 153 669 l 351 149 l 356 149 l 546 669 l 669 669 l 669 656 m 136 881 q 158 938 136 917 q 215 958 179 958 q 274 938 253 958 q 296 881 296 917 q 274 823 296 844 q 215 801 253 801 q 158 823 179 801 q 136 881 136 844 m 413 881 q 434 938 413 917 q 492 958 456 958 q 551 938 529 958 q 572 881 572 917 q 551 823 572 844 q 492 801 529 801 q 434 823 456 801 q 413 881 413 844 z "},"Ā":{"ha":876,"x_min":17,"x_max":860,"o":"m 860 0 l 726 0 l 642 236 l 235 236 l 149 0 l 17 0 l 374 944 l 503 944 l 860 0 m 436 794 l 276 344 l 599 344 l 439 794 l 436 794 m 254 1079 l 254 1182 l 622 1182 l 622 1079 l 254 1079 z "},"ā":{"ha":722,"x_min":57,"x_max":682,"o":"m 393 303 q 294 295 333 303 q 230 274 254 288 q 195 240 206 260 q 185 194 185 219 q 215 115 185 140 q 300 89 244 89 q 396 104 347 89 q 481 146 444 119 l 481 303 l 393 303 m 501 60 q 399 1 456 22 q 275 -21 342 -21 q 189 -7 229 -21 q 119 33 149 7 q 74 97 90 58 q 57 186 57 136 q 81 288 57 247 q 147 354 104 329 q 247 390 189 379 q 374 400 304 400 l 481 400 l 481 435 q 446 544 481 507 q 331 581 411 581 q 230 563 282 581 q 139 522 178 546 l 92 617 q 199 669 136 649 q 333 690 261 690 q 535 624 464 690 q 606 432 606 558 l 606 129 q 612 102 606 111 q 644 93 618 93 l 682 93 l 682 -6 q 650 -13 667 -10 q 614 -17 633 -17 q 540 4 565 -17 q 504 60 515 25 l 501 60 m 165 829 l 165 932 l 533 932 l 533 829 l 165 829 z "},"Ă":{"ha":876,"x_min":17,"x_max":860,"o":"m 860 0 l 726 0 l 642 236 l 235 236 l 149 0 l 17 0 l 374 944 l 503 944 l 860 0 m 436 794 l 276 344 l 599 344 l 439 794 l 436 794 m 438 1164 q 528 1173 485 1164 q 604 1208 572 1182 l 646 1150 q 559 1081 613 1103 q 438 1060 506 1060 q 317 1081 371 1060 q 231 1150 264 1103 l 272 1208 q 348 1173 304 1182 q 438 1164 392 1164 z "},"ă":{"ha":722,"x_min":57,"x_max":682,"o":"m 393 303 q 294 295 333 303 q 230 274 254 288 q 195 240 206 260 q 185 194 185 219 q 215 115 185 140 q 300 89 244 89 q 396 104 347 89 q 481 146 444 119 l 481 303 l 393 303 m 501 60 q 399 1 456 22 q 275 -21 342 -21 q 189 -7 229 -21 q 119 33 149 7 q 74 97 90 58 q 57 186 57 136 q 81 288 57 247 q 147 354 104 329 q 247 390 189 379 q 374 400 304 400 l 481 400 l 481 435 q 446 544 481 507 q 331 581 411 581 q 230 563 282 581 q 139 522 178 546 l 92 617 q 199 669 136 649 q 333 690 261 690 q 535 624 464 690 q 606 432 606 558 l 606 129 q 612 102 606 111 q 644 93 618 93 l 682 93 l 682 -6 q 650 -13 667 -10 q 614 -17 633 -17 q 540 4 565 -17 q 504 60 515 25 l 501 60 m 349 908 q 440 917 396 908 q 515 953 483 926 l 557 894 q 470 826 524 847 q 349 804 417 804 q 228 826 282 804 q 142 894 175 847 l 183 953 q 259 917 215 926 q 349 908 303 908 z "},"Ą":{"ha":876,"x_min":17,"x_max":876,"o":"m 756 -296 q 704 -288 729 -296 q 659 -265 679 -281 q 627 -225 639 -250 q 615 -164 615 -200 q 647 -74 615 -114 q 726 0 678 -33 l 642 236 l 235 236 l 149 0 l 17 0 l 374 944 l 503 944 l 860 0 q 796 -34 822 -17 q 753 -69 769 -51 q 728 -104 736 -86 q 721 -140 721 -122 q 737 -185 721 -169 q 783 -200 753 -200 q 830 -190 810 -200 q 865 -171 850 -181 l 876 -257 q 825 -283 857 -271 q 756 -296 793 -296 m 436 794 l 276 344 l 599 344 l 439 794 l 436 794 z "},"ą":{"ha":722,"x_min":57,"x_max":685,"o":"m 393 303 q 294 295 333 303 q 230 274 254 288 q 195 240 206 260 q 185 194 185 219 q 215 115 185 140 q 300 89 244 89 q 396 104 347 89 q 481 146 444 119 l 481 303 l 393 303 m 536 1 q 517 25 525 11 q 504 57 508 39 l 501 57 q 399 1 456 22 q 275 -21 342 -21 q 189 -7 229 -21 q 119 33 149 7 q 74 97 90 58 q 57 186 57 136 q 81 288 57 247 q 147 354 104 329 q 247 390 189 379 q 374 400 304 400 l 481 400 l 481 435 q 446 544 481 507 q 331 581 411 581 q 230 563 282 581 q 139 522 178 546 l 92 617 q 199 669 136 649 q 333 690 261 690 q 535 624 464 690 q 606 432 606 558 l 606 125 q 612 98 606 107 q 644 89 618 89 l 682 89 l 682 -3 q 624 -36 651 -19 q 575 -69 596 -53 q 542 -104 554 -86 q 529 -140 529 -122 q 592 -200 529 -200 q 638 -190 618 -200 q 674 -171 658 -181 l 685 -257 q 633 -283 665 -271 q 564 -296 601 -296 q 513 -288 538 -296 q 467 -265 488 -281 q 435 -225 447 -250 q 424 -164 424 -200 q 456 -73 424 -111 q 536 1 488 -35 z "},"Ć":{"ha":831,"x_min":79,"x_max":767,"o":"m 79 472 q 108 673 79 582 q 191 829 136 764 q 327 930 246 894 q 515 965 408 965 q 640 949 576 965 q 767 904 704 933 l 732 803 q 620 838 672 829 q 515 847 568 847 q 378 821 436 847 q 283 746 321 794 q 228 628 246 697 q 211 472 211 558 q 228 317 211 386 q 283 199 246 247 q 378 124 321 150 q 515 97 436 97 q 620 106 568 97 q 732 142 672 115 l 767 40 q 640 -5 704 11 q 515 -21 576 -21 q 327 15 408 -21 q 191 115 246 50 q 108 271 136 181 q 79 472 79 361 m 642 1213 l 538 1044 l 431 1044 l 431 1058 l 506 1226 l 642 1226 l 642 1213 z "},"ć":{"ha":668,"x_min":68,"x_max":607,"o":"m 68 335 q 90 479 68 414 q 154 591 113 544 q 257 664 196 638 q 397 690 318 690 q 507 676 450 690 q 607 642 564 661 l 575 544 q 496 569 544 557 q 399 581 447 581 q 308 560 346 581 q 244 504 269 539 q 208 425 219 469 q 196 335 196 381 q 208 244 196 289 q 244 165 219 200 q 308 110 269 131 q 399 89 346 89 q 496 101 447 89 q 575 125 544 113 l 607 28 q 507 -6 564 8 q 397 -21 450 -21 q 257 6 318 -21 q 154 78 196 32 q 90 190 113 125 q 68 335 68 256 m 554 972 l 436 804 l 329 804 l 329 818 l 418 986 l 554 986 l 554 972 z "},"Ĉ":{"ha":831,"x_min":79,"x_max":767,"o":"m 79 472 q 108 673 79 582 q 191 829 136 764 q 327 930 246 894 q 515 965 408 965 q 640 949 576 965 q 767 904 704 933 l 732 803 q 620 838 672 829 q 515 847 568 847 q 378 821 436 847 q 283 746 321 794 q 228 628 246 697 q 211 472 211 558 q 228 317 211 386 q 283 199 246 247 q 378 124 321 150 q 515 97 436 97 q 620 106 568 97 q 732 142 672 115 l 767 40 q 640 -5 704 11 q 515 -21 576 -21 q 327 15 408 -21 q 191 115 246 50 q 108 271 136 181 q 79 472 79 361 m 700 1058 l 700 1044 l 586 1044 l 499 1143 l 411 1044 l 297 1044 l 297 1058 l 428 1226 l 569 1226 l 700 1058 z "},"ĉ":{"ha":668,"x_min":68,"x_max":607,"o":"m 68 335 q 90 479 68 414 q 154 591 113 544 q 257 664 196 638 q 397 690 318 690 q 507 676 450 690 q 607 642 564 661 l 575 544 q 496 569 544 557 q 399 581 447 581 q 308 560 346 581 q 244 504 269 539 q 208 425 219 469 q 196 335 196 381 q 208 244 196 289 q 244 165 219 200 q 308 110 269 131 q 399 89 346 89 q 496 101 447 89 q 575 125 544 113 l 607 28 q 507 -6 564 8 q 397 -21 450 -21 q 257 6 318 -21 q 154 78 196 32 q 90 190 113 125 q 68 335 68 256 m 583 818 l 583 804 l 469 804 l 382 907 l 294 804 l 181 804 l 181 818 l 311 986 l 453 986 l 583 818 z "},"Ċ":{"ha":831,"x_min":79,"x_max":767,"o":"m 79 472 q 108 673 79 582 q 191 829 136 764 q 327 930 246 894 q 515 965 408 965 q 640 949 576 965 q 767 904 704 933 l 732 803 q 620 838 672 829 q 515 847 568 847 q 378 821 436 847 q 283 746 321 794 q 228 628 246 697 q 211 472 211 558 q 228 317 211 386 q 283 199 246 247 q 378 124 321 150 q 515 97 436 97 q 620 106 568 97 q 732 142 672 115 l 767 40 q 640 -5 704 11 q 515 -21 576 -21 q 327 15 408 -21 q 191 115 246 50 q 108 271 136 181 q 79 472 79 361 m 417 1133 q 438 1190 417 1169 q 496 1211 460 1211 q 555 1190 533 1211 q 576 1133 576 1169 q 555 1076 576 1097 q 496 1054 533 1054 q 438 1076 460 1054 q 417 1133 417 1097 z "},"ċ":{"ha":668,"x_min":68,"x_max":607,"o":"m 68 335 q 90 479 68 414 q 154 591 113 544 q 257 664 196 638 q 397 690 318 690 q 507 676 450 690 q 607 642 564 661 l 575 544 q 496 569 544 557 q 399 581 447 581 q 308 560 346 581 q 244 504 269 539 q 208 425 219 469 q 196 335 196 381 q 208 244 196 289 q 244 165 219 200 q 308 110 269 131 q 399 89 346 89 q 496 101 447 89 q 575 125 544 113 l 607 28 q 507 -6 564 8 q 397 -21 450 -21 q 257 6 318 -21 q 154 78 196 32 q 90 190 113 125 q 68 335 68 256 m 304 881 q 326 938 304 917 q 383 958 347 958 q 442 938 421 958 q 464 881 464 917 q 442 823 464 844 q 383 801 421 801 q 326 823 347 801 q 304 881 304 844 z "},"Č":{"ha":831,"x_min":79,"x_max":767,"o":"m 79 472 q 108 673 79 582 q 191 829 136 764 q 327 930 246 894 q 515 965 408 965 q 640 949 576 965 q 767 904 704 933 l 732 803 q 620 838 672 829 q 515 847 568 847 q 378 821 436 847 q 283 746 321 794 q 228 628 246 697 q 211 472 211 558 q 228 317 211 386 q 283 199 246 247 q 378 124 321 150 q 515 97 436 97 q 620 106 568 97 q 732 142 672 115 l 767 40 q 640 -5 704 11 q 515 -21 576 -21 q 327 15 408 -21 q 191 115 246 50 q 108 271 136 181 q 79 472 79 361 m 288 1213 l 288 1226 l 401 1226 l 489 1128 l 576 1226 l 690 1226 l 690 1213 l 560 1044 l 418 1044 l 288 1213 z "},"č":{"ha":668,"x_min":68,"x_max":607,"o":"m 68 335 q 90 479 68 414 q 154 591 113 544 q 257 664 196 638 q 397 690 318 690 q 507 676 450 690 q 607 642 564 661 l 575 544 q 496 569 544 557 q 399 581 447 581 q 308 560 346 581 q 244 504 269 539 q 208 425 219 469 q 196 335 196 381 q 208 244 196 289 q 244 165 219 200 q 308 110 269 131 q 399 89 346 89 q 496 101 447 89 q 575 125 544 113 l 607 28 q 507 -6 564 8 q 397 -21 450 -21 q 257 6 318 -21 q 154 78 196 32 q 90 190 113 125 q 68 335 68 256 m 182 972 l 182 986 l 296 986 l 383 883 l 471 986 l 585 986 l 585 972 l 454 804 l 313 804 l 182 972 z "},"Ď":{"ha":954,"x_min":126,"x_max":871,"o":"m 126 944 l 388 944 q 610 914 518 944 q 760 823 701 883 q 844 674 818 763 q 871 472 871 586 q 844 269 871 357 q 760 122 818 182 q 610 31 701 61 q 388 0 518 0 l 126 0 l 126 944 m 369 115 q 551 136 479 115 q 664 201 622 157 q 722 312 706 244 q 739 472 739 379 q 722 633 739 565 q 664 744 706 700 q 551 808 622 788 q 369 829 479 829 l 254 829 l 254 115 l 369 115 m 253 1213 l 253 1226 l 367 1226 l 454 1128 l 542 1226 l 656 1226 l 656 1213 l 525 1044 l 383 1044 l 253 1213 z "},"ď":{"ha":796,"x_min":69,"x_max":903,"o":"m 565 515 q 484 563 533 544 q 385 581 435 581 q 296 561 332 581 q 238 508 260 542 q 206 430 215 475 q 197 335 197 385 q 206 240 197 285 q 238 161 215 194 q 296 108 260 128 q 385 89 332 89 q 484 107 435 89 q 565 154 533 125 l 565 515 m 690 972 l 690 0 l 601 0 l 588 61 l 585 61 q 542 34 567 49 q 488 7 518 19 q 424 -13 458 -6 q 351 -21 390 -21 q 224 8 278 -21 q 136 84 171 36 q 85 197 101 132 q 69 335 69 261 q 85 472 69 407 q 136 585 101 538 q 224 662 171 633 q 351 690 278 690 q 477 669 428 690 q 563 622 526 649 l 565 622 l 565 972 l 690 972 m 746 749 l 774 944 l 903 944 l 903 931 l 844 735 l 746 735 l 746 749 z "},"Đ":{"ha":956,"x_min":60,"x_max":872,"o":"m 128 408 l 60 408 l 60 524 l 128 524 l 128 944 l 389 944 q 611 914 519 944 q 761 823 703 883 q 846 674 819 763 q 872 472 872 586 q 846 269 872 357 q 761 122 819 182 q 611 31 703 61 q 389 0 519 0 l 128 0 l 128 408 m 371 115 q 552 136 481 115 q 665 201 624 157 q 724 312 707 244 q 740 472 740 379 q 724 633 740 565 q 665 744 707 700 q 552 808 624 788 q 371 829 481 829 l 256 829 l 256 524 l 483 524 l 483 408 l 256 408 l 256 115 l 371 115 z "},"đ":{"ha":796,"x_min":69,"x_max":778,"o":"m 690 772 l 690 0 l 601 0 l 588 61 l 585 61 q 542 34 567 49 q 488 7 518 19 q 424 -13 458 -6 q 351 -21 390 -21 q 224 8 278 -21 q 136 84 171 36 q 85 197 101 132 q 69 335 69 261 q 85 472 69 407 q 136 585 101 538 q 224 662 171 633 q 351 690 278 690 q 477 669 428 690 q 563 622 526 649 l 565 622 l 565 772 l 410 772 l 410 875 l 565 875 l 565 972 l 690 972 l 690 875 l 778 875 l 778 772 l 690 772 m 565 515 q 484 563 533 544 q 385 581 435 581 q 296 561 332 581 q 238 508 260 542 q 206 430 215 475 q 197 335 197 385 q 206 240 197 285 q 238 161 215 194 q 296 108 260 128 q 385 89 332 89 q 484 107 435 89 q 565 154 533 125 l 565 515 z "},"Ē":{"ha":814,"x_min":126,"x_max":732,"o":"m 728 944 l 728 829 l 254 829 l 254 539 l 683 539 l 683 424 l 254 424 l 254 115 l 732 115 l 732 0 l 126 0 l 126 944 l 728 944 m 254 1079 l 254 1182 l 622 1182 l 622 1079 l 254 1079 z "},"ē":{"ha":746,"x_min":68,"x_max":682,"o":"m 194 294 q 210 210 194 249 q 253 144 225 172 q 319 101 281 117 q 407 86 358 86 q 524 104 476 86 q 607 146 571 122 l 656 51 q 547 1 611 22 q 396 -21 483 -21 q 248 8 310 -21 q 146 86 186 38 q 87 200 106 135 q 68 338 68 265 q 88 469 68 406 q 147 582 107 533 q 245 660 186 631 q 383 690 304 690 q 519 666 463 690 q 612 602 575 642 q 665 510 649 563 q 682 401 682 457 q 679 344 682 375 q 674 294 676 313 l 194 294 m 560 394 q 561 409 561 401 q 561 424 561 417 q 549 488 561 458 q 515 538 538 517 q 460 572 493 560 q 383 583 426 583 q 308 569 342 583 q 249 531 274 556 q 211 471 225 506 q 194 394 197 436 l 560 394 m 210 829 l 210 932 l 578 932 l 578 829 l 210 829 z "},"Ĕ":{"ha":814,"x_min":126,"x_max":732,"o":"m 728 944 l 728 829 l 254 829 l 254 539 l 683 539 l 683 424 l 254 424 l 254 115 l 732 115 l 732 0 l 126 0 l 126 944 l 728 944 m 433 1164 q 524 1173 481 1164 q 600 1208 568 1182 l 642 1150 q 555 1081 608 1103 q 433 1060 501 1060 q 313 1081 367 1060 q 226 1150 260 1103 l 268 1208 q 344 1173 300 1182 q 433 1164 388 1164 z "},"ĕ":{"ha":746,"x_min":68,"x_max":682,"o":"m 194 294 q 210 210 194 249 q 253 144 225 172 q 319 101 281 117 q 407 86 358 86 q 524 104 476 86 q 607 146 571 122 l 656 51 q 547 1 611 22 q 396 -21 483 -21 q 248 8 310 -21 q 146 86 186 38 q 87 200 106 135 q 68 338 68 265 q 88 469 68 406 q 147 582 107 533 q 245 660 186 631 q 383 690 304 690 q 519 666 463 690 q 612 602 575 642 q 665 510 649 563 q 682 401 682 457 q 679 344 682 375 q 674 294 676 313 l 194 294 m 560 394 q 561 409 561 401 q 561 424 561 417 q 549 488 561 458 q 515 538 538 517 q 460 572 493 560 q 383 583 426 583 q 308 569 342 583 q 249 531 274 556 q 211 471 225 506 q 194 394 197 436 l 560 394 m 401 908 q 492 917 449 908 q 568 953 536 926 l 610 894 q 523 826 576 847 q 401 804 469 804 q 281 826 335 804 q 194 894 228 847 l 236 953 q 312 917 268 926 q 401 908 356 908 z "},"Ė":{"ha":814,"x_min":126,"x_max":732,"o":"m 728 944 l 728 829 l 254 829 l 254 539 l 683 539 l 683 424 l 254 424 l 254 115 l 732 115 l 732 0 l 126 0 l 126 944 l 728 944 m 358 1133 q 380 1190 358 1169 q 438 1211 401 1211 q 497 1190 475 1211 q 518 1133 518 1169 q 497 1076 518 1097 q 438 1054 475 1054 q 380 1076 401 1054 q 358 1133 358 1097 z "},"ė":{"ha":746,"x_min":68,"x_max":682,"o":"m 194 294 q 210 210 194 249 q 253 144 225 172 q 319 101 281 117 q 407 86 358 86 q 524 104 476 86 q 607 146 571 122 l 656 51 q 547 1 611 22 q 396 -21 483 -21 q 248 8 310 -21 q 146 86 186 38 q 87 200 106 135 q 68 338 68 265 q 88 469 68 406 q 147 582 107 533 q 245 660 186 631 q 383 690 304 690 q 519 666 463 690 q 612 602 575 642 q 665 510 649 563 q 682 401 682 457 q 679 344 682 375 q 674 294 676 313 l 194 294 m 560 394 q 561 409 561 401 q 561 424 561 417 q 549 488 561 458 q 515 538 538 517 q 460 572 493 560 q 383 583 426 583 q 308 569 342 583 q 249 531 274 556 q 211 471 225 506 q 194 394 197 436 l 560 394 m 314 881 q 335 938 314 917 q 393 958 357 958 q 452 938 431 958 q 474 881 474 917 q 452 823 474 844 q 393 801 431 801 q 335 823 357 801 q 314 881 314 844 z "},"Ę":{"ha":814,"x_min":126,"x_max":757,"o":"m 636 -296 q 585 -288 610 -296 q 540 -265 560 -281 q 508 -225 519 -250 q 496 -164 496 -200 q 504 -117 496 -139 q 527 -74 513 -94 q 562 -35 542 -54 q 606 0 582 -17 l 126 0 l 126 944 l 728 944 l 728 829 l 254 829 l 254 539 l 683 539 l 683 424 l 254 424 l 254 115 l 732 115 l 732 0 q 676 -35 700 -18 q 635 -70 651 -53 q 610 -105 618 -87 q 601 -140 601 -122 q 617 -185 601 -169 q 664 -200 633 -200 q 710 -190 690 -200 q 746 -171 731 -181 l 757 -257 q 706 -283 738 -271 q 636 -296 674 -296 z "},"ę":{"ha":746,"x_min":68,"x_max":682,"o":"m 442 -18 q 419 -20 431 -19 q 396 -21 407 -21 q 248 8 310 -21 q 146 86 186 38 q 87 200 106 135 q 68 338 68 265 q 88 469 68 406 q 147 582 107 533 q 245 660 186 631 q 383 690 304 690 q 519 666 463 690 q 612 602 575 642 q 665 510 649 563 q 682 401 682 457 q 679 344 682 375 q 674 294 676 313 l 194 294 q 210 210 194 249 q 253 144 225 172 q 319 101 281 117 q 407 86 358 86 q 524 104 476 86 q 607 146 571 122 l 656 51 q 642 42 649 46 q 625 33 635 39 q 553 -15 581 8 q 510 -60 525 -39 q 489 -102 494 -82 q 483 -140 483 -122 q 546 -200 483 -200 q 592 -190 572 -200 q 628 -171 613 -181 l 639 -257 q 588 -283 619 -271 q 518 -296 556 -296 q 467 -288 492 -296 q 422 -265 442 -281 q 390 -225 401 -250 q 378 -164 378 -200 q 392 -90 378 -128 q 442 -21 407 -53 l 442 -18 m 560 394 q 561 409 561 401 q 561 424 561 417 q 549 488 561 458 q 515 538 538 517 q 460 572 493 560 q 383 583 426 583 q 308 569 342 583 q 249 531 274 556 q 211 471 225 506 q 194 394 197 436 l 560 394 z "},"Ě":{"ha":814,"x_min":126,"x_max":732,"o":"m 728 944 l 728 829 l 254 829 l 254 539 l 683 539 l 683 424 l 254 424 l 254 115 l 732 115 l 732 0 l 126 0 l 126 944 l 728 944 m 235 1213 l 235 1226 l 349 1226 l 436 1128 l 524 1226 l 638 1226 l 638 1213 l 507 1044 l 365 1044 l 235 1213 z "},"ě":{"ha":746,"x_min":68,"x_max":682,"o":"m 194 294 q 210 210 194 249 q 253 144 225 172 q 319 101 281 117 q 407 86 358 86 q 524 104 476 86 q 607 146 571 122 l 656 51 q 547 1 611 22 q 396 -21 483 -21 q 248 8 310 -21 q 146 86 186 38 q 87 200 106 135 q 68 338 68 265 q 88 469 68 406 q 147 582 107 533 q 245 660 186 631 q 383 690 304 690 q 519 666 463 690 q 612 602 575 642 q 665 510 649 563 q 682 401 682 457 q 679 344 682 375 q 674 294 676 313 l 194 294 m 560 394 q 561 409 561 401 q 561 424 561 417 q 549 488 561 458 q 515 538 538 517 q 460 572 493 560 q 383 583 426 583 q 308 569 342 583 q 249 531 274 556 q 211 471 225 506 q 194 394 197 436 l 560 394 m 192 972 l 192 986 l 306 986 l 393 883 l 481 986 l 594 986 l 594 972 l 464 804 l 322 804 l 192 972 z "},"Ĝ":{"ha":918,"x_min":81,"x_max":824,"o":"m 824 471 l 824 75 q 679 7 765 35 q 503 -21 593 -21 q 313 16 392 -21 q 181 118 233 53 q 105 274 129 183 q 81 472 81 365 q 105 669 81 579 q 182 826 129 760 q 317 928 235 892 q 515 965 400 965 q 688 938 613 965 q 819 878 763 910 l 774 776 q 648 827 717 807 q 515 847 579 847 q 376 822 433 847 q 283 747 319 796 q 229 629 246 699 q 213 472 213 560 q 228 322 213 390 q 277 203 243 253 q 367 125 311 153 q 503 97 422 97 q 608 106 560 97 q 696 139 657 115 l 696 356 l 508 383 l 508 471 l 824 471 m 699 1058 l 699 1044 l 585 1044 l 497 1143 l 410 1044 l 296 1044 l 296 1058 l 426 1226 l 568 1226 l 699 1058 z "},"ĝ":{"ha":796,"x_min":69,"x_max":690,"o":"m 565 515 q 483 563 532 544 q 383 581 433 581 q 294 562 331 581 q 237 510 258 543 q 206 432 215 476 q 197 338 197 388 q 206 243 197 288 q 237 165 215 199 q 294 113 258 132 q 383 94 331 94 q 483 113 433 94 q 565 160 532 131 l 565 515 m 690 -3 q 669 -122 690 -68 q 609 -215 649 -176 q 513 -275 569 -254 q 385 -296 457 -296 q 252 -281 313 -296 q 142 -246 192 -267 l 175 -147 q 274 -176 219 -165 q 385 -186 328 -186 q 517 -146 468 -186 q 565 -18 565 -106 l 565 53 l 563 53 q 478 6 526 26 q 353 -15 431 -15 q 226 13 279 -15 q 138 88 172 40 q 86 200 103 136 q 69 338 69 264 q 86 474 69 410 q 138 587 103 539 q 226 663 172 635 q 353 690 279 690 q 426 683 392 690 q 489 663 460 675 q 542 635 518 650 q 582 608 565 621 l 585 608 l 601 669 l 690 669 l 690 -3 m 613 818 l 613 804 l 499 804 l 411 907 l 324 804 l 210 804 l 210 818 l 340 986 l 482 986 l 613 818 z "},"Ğ":{"ha":918,"x_min":81,"x_max":824,"o":"m 824 471 l 824 75 q 679 7 765 35 q 503 -21 593 -21 q 313 16 392 -21 q 181 118 233 53 q 105 274 129 183 q 81 472 81 365 q 105 669 81 579 q 182 826 129 760 q 317 928 235 892 q 515 965 400 965 q 688 938 613 965 q 819 878 763 910 l 774 776 q 648 827 717 807 q 515 847 579 847 q 376 822 433 847 q 283 747 319 796 q 229 629 246 699 q 213 472 213 560 q 228 322 213 390 q 277 203 243 253 q 367 125 311 153 q 503 97 422 97 q 608 106 560 97 q 696 139 657 115 l 696 356 l 508 383 l 508 471 l 824 471 m 500 1164 q 591 1173 547 1164 q 667 1208 635 1182 l 708 1150 q 622 1081 675 1103 q 500 1060 568 1060 q 380 1081 433 1060 q 293 1150 326 1103 l 335 1208 q 410 1173 367 1182 q 500 1164 454 1164 z "},"ğ":{"ha":796,"x_min":69,"x_max":690,"o":"m 565 515 q 483 563 532 544 q 383 581 433 581 q 294 562 331 581 q 237 510 258 543 q 206 432 215 476 q 197 338 197 388 q 206 243 197 288 q 237 165 215 199 q 294 113 258 132 q 383 94 331 94 q 483 113 433 94 q 565 160 532 131 l 565 515 m 690 -3 q 669 -122 690 -68 q 609 -215 649 -176 q 513 -275 569 -254 q 385 -296 457 -296 q 252 -281 313 -296 q 142 -246 192 -267 l 175 -147 q 274 -176 219 -165 q 385 -186 328 -186 q 517 -146 468 -186 q 565 -18 565 -106 l 565 53 l 563 53 q 478 6 526 26 q 353 -15 431 -15 q 226 13 279 -15 q 138 88 172 40 q 86 200 103 136 q 69 338 69 264 q 86 474 69 410 q 138 587 103 539 q 226 663 172 635 q 353 690 279 690 q 426 683 392 690 q 489 663 460 675 q 542 635 518 650 q 582 608 565 621 l 585 608 l 601 669 l 690 669 l 690 -3 m 417 908 q 508 917 464 908 q 583 953 551 926 l 625 894 q 538 826 592 847 q 417 804 485 804 q 297 826 350 804 q 210 894 243 847 l 251 953 q 327 917 283 926 q 417 908 371 908 z "},"Ġ":{"ha":918,"x_min":81,"x_max":824,"o":"m 824 471 l 824 75 q 679 7 765 35 q 503 -21 593 -21 q 313 16 392 -21 q 181 118 233 53 q 105 274 129 183 q 81 472 81 365 q 105 669 81 579 q 182 826 129 760 q 317 928 235 892 q 515 965 400 965 q 688 938 613 965 q 819 878 763 910 l 774 776 q 648 827 717 807 q 515 847 579 847 q 376 822 433 847 q 283 747 319 796 q 229 629 246 699 q 213 472 213 560 q 228 322 213 390 q 277 203 243 253 q 367 125 311 153 q 503 97 422 97 q 608 106 560 97 q 696 139 657 115 l 696 356 l 508 383 l 508 471 l 824 471 m 418 1133 q 440 1190 418 1169 q 497 1211 461 1211 q 556 1190 535 1211 q 578 1133 578 1169 q 556 1076 578 1097 q 497 1054 535 1054 q 440 1076 461 1054 q 418 1133 418 1097 z "},"ġ":{"ha":796,"x_min":69,"x_max":690,"o":"m 565 515 q 483 563 532 544 q 383 581 433 581 q 294 562 331 581 q 237 510 258 543 q 206 432 215 476 q 197 338 197 388 q 206 243 197 288 q 237 165 215 199 q 294 113 258 132 q 383 94 331 94 q 483 113 433 94 q 565 160 532 131 l 565 515 m 690 -3 q 669 -122 690 -68 q 609 -215 649 -176 q 513 -275 569 -254 q 385 -296 457 -296 q 252 -281 313 -296 q 142 -246 192 -267 l 175 -147 q 274 -176 219 -165 q 385 -186 328 -186 q 517 -146 468 -186 q 565 -18 565 -106 l 565 53 l 563 53 q 478 6 526 26 q 353 -15 431 -15 q 226 13 279 -15 q 138 88 172 40 q 86 200 103 136 q 69 338 69 264 q 86 474 69 410 q 138 587 103 539 q 226 663 172 635 q 353 690 279 690 q 426 683 392 690 q 489 663 460 675 q 542 635 518 650 q 582 608 565 621 l 585 608 l 601 669 l 690 669 l 690 -3 m 332 881 q 353 938 332 917 q 411 958 375 958 q 470 938 449 958 q 492 881 492 917 q 470 823 492 844 q 411 801 449 801 q 353 823 375 801 q 332 881 332 844 z "},"Ģ":{"ha":918,"x_min":81,"x_max":824,"o":"m 824 471 l 824 75 q 679 7 765 35 q 503 -21 593 -21 q 313 16 392 -21 q 181 118 233 53 q 105 274 129 183 q 81 472 81 365 q 105 669 81 579 q 182 826 129 760 q 317 928 235 892 q 515 965 400 965 q 688 938 613 965 q 819 878 763 910 l 774 776 q 648 827 717 807 q 515 847 579 847 q 376 822 433 847 q 283 747 319 796 q 229 629 246 699 q 213 472 213 560 q 228 322 213 390 q 277 203 243 253 q 367 125 311 153 q 503 97 422 97 q 608 106 560 97 q 696 139 657 115 l 696 356 l 508 383 l 508 471 l 824 471 m 407 -289 l 435 -93 l 564 -93 l 564 -107 l 506 -303 l 407 -303 l 407 -289 z "},"ģ":{"ha":796,"x_min":69,"x_max":690,"o":"m 565 515 q 483 563 532 544 q 383 581 433 581 q 294 562 331 581 q 237 510 258 543 q 206 432 215 476 q 197 338 197 388 q 206 243 197 288 q 237 165 215 199 q 294 113 258 132 q 383 94 331 94 q 483 113 433 94 q 565 160 532 131 l 565 515 m 690 -3 q 669 -122 690 -68 q 609 -215 649 -176 q 513 -275 569 -254 q 385 -296 457 -296 q 252 -281 313 -296 q 142 -246 192 -267 l 175 -147 q 274 -176 219 -165 q 385 -186 328 -186 q 517 -146 468 -186 q 565 -18 565 -106 l 565 53 l 563 53 q 478 6 526 26 q 353 -15 431 -15 q 226 13 279 -15 q 138 88 172 40 q 86 200 103 136 q 69 338 69 264 q 86 474 69 410 q 138 587 103 539 q 226 663 172 635 q 353 690 279 690 q 426 683 392 690 q 489 663 460 675 q 542 635 518 650 q 582 608 565 621 l 585 608 l 601 669 l 690 669 l 690 -3 m 506 986 l 478 790 l 349 790 l 349 804 l 407 1000 l 506 1000 l 506 986 z "},"Ĥ":{"ha":976,"x_min":126,"x_max":850,"o":"m 722 424 l 254 424 l 254 0 l 126 0 l 126 944 l 254 944 l 254 539 l 722 539 l 722 944 l 850 944 l 850 0 l 722 0 l 722 424 m 694 1058 l 694 1044 l 581 1044 l 493 1143 l 406 1044 l 292 1044 l 292 1058 l 422 1226 l 564 1226 l 694 1058 z "},"ĥ":{"ha":792,"x_min":106,"x_max":693,"o":"m 568 0 l 568 410 q 531 538 568 496 q 418 581 494 581 q 365 574 392 581 q 312 558 338 568 q 265 537 286 549 q 231 515 244 525 l 231 0 l 106 0 l 106 972 l 231 972 l 231 622 l 233 622 q 271 644 249 632 q 321 667 293 657 q 381 683 349 676 q 449 690 413 690 q 627 626 561 690 q 693 435 693 561 l 693 0 l 568 0 m 613 1058 l 613 1044 l 499 1044 l 411 1143 l 324 1044 l 210 1044 l 210 1058 l 340 1226 l 482 1226 l 613 1058 z "},"Ħ":{"ha":982,"x_min":60,"x_max":922,"o":"m 725 424 l 257 424 l 257 0 l 129 0 l 129 706 l 60 706 l 60 821 l 129 821 l 129 944 l 257 944 l 257 821 l 725 821 l 725 944 l 853 944 l 853 821 l 922 821 l 922 706 l 853 706 l 853 0 l 725 0 l 725 424 m 725 539 l 725 706 l 257 706 l 257 539 l 725 539 z "},"ħ":{"ha":792,"x_min":19,"x_max":693,"o":"m 231 774 l 231 622 l 233 622 q 271 644 249 632 q 321 667 293 657 q 381 683 349 676 q 449 690 413 690 q 627 626 561 690 q 693 435 693 561 l 693 0 l 568 0 l 568 410 q 531 538 568 496 q 418 581 494 581 q 365 574 392 581 q 312 558 338 568 q 265 537 286 549 q 231 515 244 525 l 231 0 l 106 0 l 106 774 l 19 774 l 19 876 l 106 876 l 106 972 l 231 972 l 231 876 l 388 876 l 388 774 l 231 774 z "},"Ĩ":{"ha":381,"x_min":-22,"x_max":403,"o":"m 254 0 l 126 0 l 126 944 l 254 944 l 254 0 m -22 1135 q 28 1188 -3 1163 q 103 1214 58 1214 q 149 1205 125 1214 q 195 1185 172 1196 q 240 1167 218 1175 q 283 1158 263 1158 q 327 1171 307 1158 q 365 1207 347 1183 l 403 1138 q 348 1081 378 1103 q 278 1058 318 1058 q 232 1067 254 1058 q 187 1085 210 1075 q 141 1105 164 1096 q 96 1114 118 1114 q 53 1101 74 1114 q 15 1065 32 1088 l -22 1135 z "},"ĩ":{"ha":336,"x_min":-43,"x_max":382,"o":"m 106 0 l 106 669 l 231 669 l 231 0 l 106 0 m -43 881 q 7 934 -24 908 q 82 960 38 960 q 128 951 104 960 q 174 931 151 942 q 219 913 197 921 q 263 904 242 904 q 306 917 286 904 q 344 953 326 929 l 382 883 q 327 826 357 849 q 257 804 297 804 q 211 813 233 804 q 166 831 189 821 q 120 851 143 842 q 75 860 97 860 q 32 847 53 860 q -6 811 11 833 l -43 881 z "},"Ī":{"ha":381,"x_min":6,"x_max":374,"o":"m 254 0 l 126 0 l 126 944 l 254 944 l 254 0 m 6 1079 l 6 1182 l 374 1182 l 374 1079 l 6 1079 z "},"ī":{"ha":336,"x_min":-14,"x_max":354,"o":"m 106 0 l 106 669 l 231 669 l 231 0 l 106 0 m -14 829 l -14 932 l 354 932 l 354 829 l -14 829 z "},"Ĭ":{"ha":381,"x_min":-19,"x_max":396,"o":"m 254 0 l 126 0 l 126 944 l 254 944 l 254 0 m 188 1164 q 278 1173 235 1164 q 354 1208 322 1182 l 396 1150 q 309 1081 363 1103 q 188 1060 256 1060 q 67 1081 121 1060 q -19 1150 14 1103 l 22 1208 q 98 1173 54 1182 q 188 1164 142 1164 z "},"ĭ":{"ha":336,"x_min":-37,"x_max":378,"o":"m 106 0 l 106 669 l 231 669 l 231 0 l 106 0 m 169 908 q 260 917 217 908 q 336 953 304 926 l 378 894 q 291 826 344 847 q 169 804 238 804 q 49 826 103 804 q -37 894 -4 847 l 4 953 q 80 917 36 926 q 169 908 124 908 z "},"Į":{"ha":381,"x_min":15,"x_max":276,"o":"m 156 -296 q 104 -288 129 -296 q 59 -265 79 -281 q 27 -225 39 -250 q 15 -164 15 -200 q 47 -74 15 -114 q 126 0 78 -33 l 126 944 l 254 944 l 254 0 q 196 -33 221 -17 q 154 -68 171 -50 q 129 -104 138 -86 q 121 -140 121 -122 q 137 -185 121 -169 q 183 -200 153 -200 q 230 -190 210 -200 q 265 -171 250 -181 l 276 -257 q 225 -283 257 -271 q 156 -296 193 -296 z "},"į":{"ha":336,"x_min":-11,"x_max":250,"o":"m 129 -296 q 78 -288 103 -296 q 33 -265 53 -281 q 1 -225 13 -250 q -11 -164 -11 -200 q 22 -71 -11 -111 q 106 4 54 -31 l 106 669 l 231 669 l 231 0 q 126 -70 157 -36 q 94 -140 94 -104 q 110 -185 94 -169 q 157 -200 126 -200 q 203 -190 183 -200 q 239 -171 224 -181 l 250 -257 q 199 -283 231 -271 q 129 -296 167 -296 m 89 881 q 110 938 89 917 q 168 958 132 958 q 227 938 206 958 q 249 881 249 917 q 227 823 249 844 q 168 801 206 801 q 110 823 132 801 q 89 881 89 844 z "},"İ":{"ha":381,"x_min":111,"x_max":271,"o":"m 254 0 l 126 0 l 126 944 l 254 944 l 254 0 m 111 1133 q 133 1190 111 1169 q 190 1211 154 1211 q 249 1190 228 1211 q 271 1133 271 1169 q 249 1076 271 1097 q 190 1054 228 1054 q 133 1076 154 1054 q 111 1133 111 1097 z "},"ı":{"ha":336,"x_min":106,"x_max":231,"o":"m 106 0 l 106 669 l 231 669 l 231 0 l 106 0 z "},"Ĳ":{"ha":1025,"x_min":126,"x_max":906,"o":"m 254 0 l 126 0 l 126 944 l 254 944 l 254 0 m 472 169 q 503 144 488 157 q 538 120 519 131 q 581 103 557 110 q 633 97 604 97 q 694 109 667 97 q 740 147 721 121 q 768 213 758 174 q 778 310 778 253 l 778 944 l 906 944 l 906 300 q 833 60 906 142 q 633 -21 760 -21 q 505 10 563 -21 q 408 81 447 42 l 472 169 z "},"ĳ":{"ha":672,"x_min":89,"x_max":585,"o":"m 106 0 l 106 669 l 231 669 l 231 0 l 106 0 m 89 881 q 110 938 89 917 q 168 958 132 958 q 227 938 206 958 q 249 881 249 917 q 227 823 249 844 q 168 801 206 801 q 110 823 132 801 q 89 881 89 844 m 567 669 l 567 -81 q 517 -240 567 -183 q 368 -296 468 -296 q 321 -293 349 -296 q 272 -286 293 -290 l 272 -179 q 315 -184 290 -182 q 356 -186 339 -186 q 421 -163 400 -186 q 442 -85 442 -140 l 442 669 l 567 669 m 425 881 q 447 938 425 917 q 504 958 468 958 q 563 938 542 958 q 585 881 585 917 q 563 823 585 844 q 504 801 542 801 q 447 823 468 801 q 425 881 425 844 z "},"Ĵ":{"ha":644,"x_min":28,"x_max":665,"o":"m 92 169 q 123 144 107 157 q 158 120 139 131 q 200 103 176 110 q 253 97 224 97 q 313 109 286 97 q 359 147 340 121 q 388 213 378 174 q 397 310 397 253 l 397 944 l 525 944 l 525 300 q 452 60 525 142 q 253 -21 379 -21 q 124 10 182 -21 q 28 81 67 42 l 92 169 m 665 1058 l 665 1044 l 551 1044 l 464 1143 l 376 1044 l 263 1044 l 263 1058 l 393 1226 l 535 1226 l 665 1058 z "},"ĵ":{"ha":336,"x_min":-64,"x_max":368,"o":"m 231 669 l 231 -81 q 181 -240 231 -183 q 32 -296 132 -296 q -15 -293 13 -296 q -64 -286 -43 -290 l -64 -179 q -22 -184 -46 -182 q 19 -186 3 -186 q 85 -163 64 -186 q 106 -85 106 -140 l 106 669 l 231 669 m 368 818 l 368 804 l 254 804 l 167 907 l 79 804 l -35 804 l -35 818 l 96 986 l 238 986 l 368 818 z "},"Ķ":{"ha":835,"x_min":126,"x_max":813,"o":"m 254 431 l 254 0 l 126 0 l 126 944 l 254 944 l 254 481 l 257 481 l 644 944 l 793 944 l 793 931 l 394 463 l 813 14 l 813 0 l 656 0 l 257 431 l 254 431 m 343 -289 l 371 -93 l 500 -93 l 500 -107 l 442 -303 l 343 -303 l 343 -289 z "},"ķ":{"ha":696,"x_min":106,"x_max":667,"o":"m 231 310 l 231 0 l 106 0 l 106 972 l 231 972 l 231 358 l 233 358 l 508 669 l 656 669 l 656 660 l 363 338 l 667 11 l 667 0 l 517 0 l 233 310 l 231 310 m 256 -289 l 283 -93 l 413 -93 l 413 -107 l 354 -303 l 256 -303 l 256 -289 z "},"ĸ":{"ha":696,"x_min":106,"x_max":668,"o":"m 229 301 l 229 0 l 106 0 l 106 669 l 229 669 l 229 344 l 232 344 l 511 669 l 653 669 l 653 660 l 361 329 l 668 10 l 668 0 l 519 0 l 232 301 l 229 301 z "},"Ĺ":{"ha":728,"x_min":126,"x_max":686,"o":"m 254 944 l 254 115 l 686 115 l 686 0 l 126 0 l 126 944 l 254 944 m 347 1213 l 243 1044 l 136 1044 l 136 1058 l 211 1226 l 347 1226 l 347 1213 z "},"ĺ":{"ha":368,"x_min":107,"x_max":331,"o":"m 331 -6 q 294 -13 315 -10 q 249 -17 272 -17 q 140 24 174 -17 q 107 138 107 65 l 107 972 l 232 972 l 232 129 q 238 102 232 111 q 271 93 244 93 l 331 93 l 331 -6 m 328 1213 l 224 1044 l 117 1044 l 117 1058 l 192 1226 l 328 1226 l 328 1213 z "},"Ļ":{"ha":728,"x_min":126,"x_max":686,"o":"m 254 944 l 254 115 l 686 115 l 686 0 l 126 0 l 126 944 l 254 944 m 322 -289 l 350 -93 l 479 -93 l 479 -107 l 421 -303 l 322 -303 l 322 -289 z "},"ļ":{"ha":368,"x_min":107,"x_max":331,"o":"m 331 -6 q 294 -13 315 -10 q 249 -17 272 -17 q 140 24 174 -17 q 107 138 107 65 l 107 972 l 232 972 l 232 129 q 238 102 232 111 q 271 93 244 93 l 331 93 l 331 -6 m 126 -289 l 154 -93 l 283 -93 l 283 -107 l 225 -303 l 126 -303 l 126 -289 z "},"Ľ":{"ha":728,"x_min":126,"x_max":686,"o":"m 254 944 l 254 115 l 686 115 l 686 0 l 126 0 l 126 944 l 254 944 m 401 749 l 429 944 l 558 944 l 558 931 l 500 735 l 401 735 l 401 749 z "},"ľ":{"ha":361,"x_min":107,"x_max":451,"o":"m 331 -6 q 294 -13 315 -10 q 249 -17 272 -17 q 140 24 174 -17 q 107 138 107 65 l 107 972 l 232 972 l 232 129 q 238 102 232 111 q 271 93 244 93 l 331 93 l 331 -6 m 294 749 l 322 944 l 451 944 l 451 931 l 393 735 l 294 735 l 294 749 z "},"Ŀ":{"ha":729,"x_min":126,"x_max":686,"o":"m 254 944 l 254 115 l 686 115 l 686 0 l 126 0 l 126 944 l 254 944 m 449 489 q 473 554 449 529 q 538 579 497 579 q 602 554 578 579 q 626 489 626 529 q 602 424 626 449 q 538 399 578 399 q 473 424 497 399 q 449 489 449 449 z "},"ŀ":{"ha":494,"x_min":107,"x_max":511,"o":"m 331 -6 q 294 -13 315 -10 q 249 -17 272 -17 q 140 24 174 -17 q 107 138 107 65 l 107 972 l 232 972 l 232 129 q 238 102 232 111 q 271 93 244 93 l 331 93 l 331 -6 m 333 489 q 358 554 333 529 q 422 579 382 579 q 487 554 463 579 q 511 489 511 529 q 487 424 511 449 q 422 399 463 399 q 358 424 382 399 q 333 489 333 449 z "},"Ł":{"ha":747,"x_min":44,"x_max":706,"o":"m 274 944 l 274 579 l 422 661 l 436 661 l 436 546 l 274 456 l 274 115 l 706 115 l 706 0 l 146 0 l 146 385 l 58 338 l 44 338 l 44 453 l 146 508 l 146 944 l 274 944 z "},"ł":{"ha":443,"x_min":33,"x_max":408,"o":"m 372 -6 q 335 -13 357 -10 q 290 -17 314 -17 q 182 24 215 -17 q 149 138 149 65 l 149 379 l 47 324 l 33 324 l 33 439 l 149 501 l 149 972 l 274 972 l 274 569 l 394 636 l 408 636 l 408 521 l 274 447 l 274 129 q 280 102 274 111 q 313 93 286 93 l 372 93 l 372 -6 z "},"Ń":{"ha":989,"x_min":126,"x_max":863,"o":"m 735 201 l 735 944 l 863 944 l 863 0 l 731 0 l 257 743 l 254 743 l 254 0 l 126 0 l 126 944 l 257 944 l 732 201 l 735 201 m 636 1213 l 532 1044 l 425 1044 l 425 1058 l 500 1226 l 636 1226 l 636 1213 z "},"ń":{"ha":792,"x_min":106,"x_max":693,"o":"m 194 669 l 210 608 l 213 608 q 253 633 228 619 q 309 660 278 647 q 376 681 340 672 q 449 690 413 690 q 627 626 561 690 q 693 435 693 561 l 693 0 l 568 0 l 568 410 q 531 538 568 496 q 418 581 494 581 q 365 574 392 581 q 312 558 338 568 q 265 537 286 549 q 231 515 244 525 l 231 0 l 106 0 l 106 669 l 194 669 m 572 972 l 454 804 l 347 804 l 347 818 l 436 986 l 572 986 l 572 972 z "},"Ņ":{"ha":989,"x_min":126,"x_max":863,"o":"m 735 201 l 735 944 l 863 944 l 863 0 l 731 0 l 257 743 l 254 743 l 254 0 l 126 0 l 126 944 l 257 944 l 732 201 l 735 201 m 401 -289 l 429 -93 l 558 -93 l 558 -107 l 500 -303 l 401 -303 l 401 -289 z "},"ņ":{"ha":792,"x_min":106,"x_max":693,"o":"m 194 669 l 210 608 l 213 608 q 253 633 228 619 q 309 660 278 647 q 376 681 340 672 q 449 690 413 690 q 627 626 561 690 q 693 435 693 561 l 693 0 l 568 0 l 568 410 q 531 538 568 496 q 418 581 494 581 q 365 574 392 581 q 312 558 338 568 q 265 537 286 549 q 231 515 244 525 l 231 0 l 106 0 l 106 669 l 194 669 m 303 -289 l 331 -93 l 460 -93 l 460 -107 l 401 -303 l 303 -303 l 303 -289 z "},"Ň":{"ha":989,"x_min":126,"x_max":863,"o":"m 735 201 l 735 944 l 863 944 l 863 0 l 731 0 l 257 743 l 254 743 l 254 0 l 126 0 l 126 944 l 257 944 l 732 201 l 735 201 m 293 1213 l 293 1226 l 407 1226 l 494 1128 l 582 1226 l 696 1226 l 696 1213 l 565 1044 l 424 1044 l 293 1213 z "},"ň":{"ha":792,"x_min":106,"x_max":693,"o":"m 194 669 l 210 608 l 213 608 q 253 633 228 619 q 309 660 278 647 q 376 681 340 672 q 449 690 413 690 q 627 626 561 690 q 693 435 693 561 l 693 0 l 568 0 l 568 410 q 531 538 568 496 q 418 581 494 581 q 365 574 392 581 q 312 558 338 568 q 265 537 286 549 q 231 515 244 525 l 231 0 l 106 0 l 106 669 l 194 669 m 206 972 l 206 986 l 319 986 l 407 883 l 494 986 l 608 986 l 608 972 l 478 804 l 336 804 l 206 972 z "},"ŉ":{"ha":792,"x_min":-10,"x_max":693,"o":"m 194 669 l 210 608 l 213 608 q 253 633 228 619 q 309 660 278 647 q 376 681 340 672 q 449 690 413 690 q 627 626 561 690 q 693 435 693 561 l 693 0 l 568 0 l 568 410 q 531 538 568 496 q 418 581 494 581 q 365 574 392 581 q 312 558 338 568 q 265 537 286 549 q 231 515 244 525 l 231 0 l 106 0 l 106 669 l 194 669 m -10 749 l 18 944 l 147 944 l 147 931 l 89 735 l -10 735 l -10 749 z "},"Ŋ":{"ha":989,"x_min":126,"x_max":863,"o":"m 735 211 l 735 944 l 863 944 l 863 -81 q 813 -240 863 -183 q 664 -296 764 -296 q 617 -293 644 -296 q 568 -286 589 -290 l 568 -171 q 610 -176 586 -174 q 651 -178 635 -178 q 715 -159 696 -178 q 735 -85 735 -140 l 735 0 l 257 743 l 254 743 l 254 0 l 126 0 l 126 944 l 257 944 l 732 211 l 735 211 z "},"ŋ":{"ha":792,"x_min":106,"x_max":693,"o":"m 194 669 l 210 608 l 213 608 q 253 633 228 619 q 309 660 278 647 q 376 681 340 672 q 449 690 413 690 q 627 626 561 690 q 693 435 693 561 l 693 -81 q 644 -240 693 -183 q 494 -296 594 -296 q 447 -293 475 -296 q 399 -286 419 -290 l 399 -179 q 441 -184 417 -182 q 482 -186 465 -186 q 547 -163 526 -186 q 568 -85 568 -140 l 568 410 q 531 538 568 496 q 418 581 494 581 q 365 574 392 581 q 312 558 338 568 q 265 537 286 549 q 231 515 244 525 l 231 0 l 106 0 l 106 669 l 194 669 z "},"Ō":{"ha":999,"x_min":81,"x_max":918,"o":"m 213 472 q 226 324 213 393 q 274 206 240 256 q 363 126 307 156 q 500 97 418 97 q 638 126 583 97 q 726 206 693 156 q 772 324 758 256 q 786 472 786 393 q 772 620 786 551 q 726 739 758 689 q 638 818 693 789 q 500 847 583 847 q 363 818 418 847 q 274 739 307 789 q 226 620 240 689 q 213 472 213 551 m 918 472 q 894 278 918 368 q 821 121 871 188 q 692 17 771 54 q 500 -21 613 -21 q 308 17 388 -21 q 178 121 229 54 q 104 278 128 188 q 81 472 81 368 q 104 667 81 576 q 178 824 128 757 q 308 928 229 890 q 500 965 388 965 q 692 928 613 965 q 821 824 771 890 q 894 667 871 757 q 918 472 918 576 m 324 1079 l 324 1182 l 692 1182 l 692 1079 l 324 1079 z "},"ō":{"ha":797,"x_min":68,"x_max":729,"o":"m 196 335 q 206 238 196 283 q 240 160 217 193 q 302 108 264 126 q 396 89 340 89 q 492 108 453 89 q 555 160 531 126 q 590 238 579 193 q 601 335 601 283 q 590 431 601 386 q 555 510 579 476 q 492 562 531 543 q 396 581 453 581 q 302 562 340 581 q 240 510 264 543 q 206 431 217 476 q 196 335 196 386 m 729 335 q 710 197 729 261 q 651 84 692 132 q 548 8 611 36 q 396 -21 485 -21 q 246 8 308 -21 q 144 84 183 36 q 86 197 104 132 q 68 335 68 261 q 86 472 68 407 q 144 585 104 538 q 246 662 183 633 q 396 690 308 690 q 548 662 485 690 q 651 585 611 633 q 710 472 692 538 q 729 335 729 407 m 217 829 l 217 932 l 585 932 l 585 829 l 217 829 z "},"Ŏ":{"ha":999,"x_min":81,"x_max":918,"o":"m 213 472 q 226 324 213 393 q 274 206 240 256 q 363 126 307 156 q 500 97 418 97 q 638 126 583 97 q 726 206 693 156 q 772 324 758 256 q 786 472 786 393 q 772 620 786 551 q 726 739 758 689 q 638 818 693 789 q 500 847 583 847 q 363 818 418 847 q 274 739 307 789 q 226 620 240 689 q 213 472 213 551 m 918 472 q 894 278 918 368 q 821 121 871 188 q 692 17 771 54 q 500 -21 613 -21 q 308 17 388 -21 q 178 121 229 54 q 104 278 128 188 q 81 472 81 368 q 104 667 81 576 q 178 824 128 757 q 308 928 229 890 q 500 965 388 965 q 692 928 613 965 q 821 824 771 890 q 894 667 871 757 q 918 472 918 576 m 506 1164 q 597 1173 553 1164 q 672 1208 640 1182 l 714 1150 q 627 1081 681 1103 q 506 1060 574 1060 q 385 1081 439 1060 q 299 1150 332 1103 l 340 1208 q 416 1173 372 1182 q 506 1164 460 1164 z "},"ŏ":{"ha":797,"x_min":68,"x_max":729,"o":"m 196 335 q 206 238 196 283 q 240 160 217 193 q 302 108 264 126 q 396 89 340 89 q 492 108 453 89 q 555 160 531 126 q 590 238 579 193 q 601 335 601 283 q 590 431 601 386 q 555 510 579 476 q 492 562 531 543 q 396 581 453 581 q 302 562 340 581 q 240 510 264 543 q 206 431 217 476 q 196 335 196 386 m 729 335 q 710 197 729 261 q 651 84 692 132 q 548 8 611 36 q 396 -21 485 -21 q 246 8 308 -21 q 144 84 183 36 q 86 197 104 132 q 68 335 68 261 q 86 472 68 407 q 144 585 104 538 q 246 662 183 633 q 396 690 308 690 q 548 662 485 690 q 651 585 611 633 q 710 472 692 538 q 729 335 729 407 m 399 908 q 490 917 446 908 q 565 953 533 926 l 607 894 q 520 826 574 847 q 399 804 467 804 q 278 826 332 804 q 192 894 225 847 l 233 953 q 309 917 265 926 q 399 908 353 908 z "},"Ő":{"ha":999,"x_min":81,"x_max":918,"o":"m 213 472 q 226 324 213 393 q 274 206 240 256 q 363 126 307 156 q 500 97 418 97 q 638 126 583 97 q 726 206 693 156 q 772 324 758 256 q 786 472 786 393 q 772 620 786 551 q 726 739 758 689 q 638 818 693 789 q 500 847 583 847 q 363 818 418 847 q 274 739 307 789 q 226 620 240 689 q 213 472 213 551 m 918 472 q 894 278 918 368 q 821 121 871 188 q 692 17 771 54 q 500 -21 613 -21 q 308 17 388 -21 q 178 121 229 54 q 104 278 128 188 q 81 472 81 368 q 104 667 81 576 q 178 824 128 757 q 308 928 229 890 q 500 965 388 965 q 692 928 613 965 q 821 824 771 890 q 894 667 871 757 q 918 472 918 576 m 560 1213 l 442 1044 l 335 1044 l 335 1058 l 424 1226 l 560 1226 l 560 1213 m 793 1213 l 675 1044 l 568 1044 l 568 1058 l 657 1226 l 793 1226 l 793 1213 z "},"ő":{"ha":797,"x_min":68,"x_max":729,"o":"m 196 335 q 206 238 196 283 q 240 160 217 193 q 302 108 264 126 q 396 89 340 89 q 492 108 453 89 q 555 160 531 126 q 590 238 579 193 q 601 335 601 283 q 590 431 601 386 q 555 510 579 476 q 492 562 531 543 q 396 581 453 581 q 302 562 340 581 q 240 510 264 543 q 206 431 217 476 q 196 335 196 386 m 729 335 q 710 197 729 261 q 651 84 692 132 q 548 8 611 36 q 396 -21 485 -21 q 246 8 308 -21 q 144 84 183 36 q 86 197 104 132 q 68 335 68 261 q 86 472 68 407 q 144 585 104 538 q 246 662 183 633 q 396 690 308 690 q 548 662 485 690 q 651 585 611 633 q 710 472 692 538 q 729 335 729 407 m 469 972 l 351 804 l 244 804 l 244 818 l 333 986 l 469 986 l 469 972 m 703 972 l 585 804 l 478 804 l 478 818 l 567 986 l 703 986 l 703 972 z "},"Œ":{"ha":1332,"x_min":81,"x_max":1250,"o":"m 500 965 q 647 944 582 965 l 1246 944 l 1246 829 l 772 829 l 772 539 l 1201 539 l 1201 424 l 772 424 l 772 115 l 1250 115 l 1250 0 l 647 0 q 578 -16 615 -11 q 500 -21 540 -21 q 308 17 388 -21 q 178 121 229 54 q 104 278 128 188 q 81 472 81 368 q 104 667 81 576 q 178 824 128 757 q 308 928 229 890 q 500 965 388 965 m 500 97 q 580 103 544 97 q 644 121 615 108 l 644 822 q 580 841 615 835 q 500 847 544 847 q 363 818 418 847 q 274 739 307 789 q 226 620 240 689 q 213 472 213 551 q 226 324 213 393 q 274 206 240 256 q 363 126 307 156 q 500 97 418 97 z "},"œ":{"ha":1281,"x_min":68,"x_max":1217,"o":"m 729 294 q 744 211 729 249 q 788 146 760 174 q 854 103 815 118 q 942 88 893 88 q 1058 106 1011 88 q 1142 147 1106 124 l 1190 51 q 1082 1 1146 22 q 931 -21 1018 -21 q 772 16 836 -21 q 667 111 707 53 q 560 16 626 53 q 396 -21 494 -21 q 246 8 308 -21 q 144 84 183 36 q 86 197 104 132 q 68 335 68 261 q 86 472 68 407 q 144 585 104 538 q 246 662 183 633 q 396 690 308 690 q 560 653 494 690 q 667 557 626 615 q 769 652 707 614 q 918 690 831 690 q 1053 666 997 690 q 1147 602 1110 642 q 1200 510 1183 563 q 1217 401 1217 457 q 1214 344 1217 375 q 1208 294 1211 313 l 729 294 m 196 335 q 206 238 196 283 q 240 160 217 193 q 302 108 264 126 q 396 89 340 89 q 492 108 453 89 q 555 160 531 126 q 590 238 579 193 q 601 335 601 283 q 590 431 601 386 q 555 510 579 476 q 492 562 531 543 q 396 581 453 581 q 302 562 340 581 q 240 510 264 543 q 206 431 217 476 q 196 335 196 386 m 1094 394 q 1096 409 1096 401 q 1096 424 1096 417 q 1084 488 1096 458 q 1050 538 1072 517 q 994 572 1028 560 q 918 583 961 583 q 842 569 876 583 q 784 531 808 556 q 746 471 760 506 q 729 394 732 436 l 1094 394 z "},"Ŕ":{"ha":892,"x_min":126,"x_max":850,"o":"m 126 0 l 126 944 l 482 944 q 710 876 626 944 q 793 675 793 808 q 732 497 793 563 q 567 413 671 432 l 850 22 l 850 0 l 711 0 l 424 406 l 254 406 l 254 0 l 126 0 m 475 521 q 613 560 565 521 q 661 675 661 599 q 613 790 661 751 q 475 829 565 829 l 254 829 l 254 521 l 475 521 m 572 1213 l 468 1044 l 361 1044 l 361 1058 l 436 1226 l 572 1226 l 572 1213 z "},"ŕ":{"ha":497,"x_min":106,"x_max":471,"o":"m 194 669 l 210 597 l 213 597 q 249 635 229 618 q 293 665 269 653 q 343 683 317 676 q 399 690 369 690 q 438 688 418 690 q 471 681 457 685 l 453 568 q 419 573 438 571 q 385 575 400 575 q 287 548 319 575 q 231 478 254 521 l 231 0 l 106 0 l 106 669 l 194 669 m 435 972 l 317 804 l 210 804 l 210 818 l 299 986 l 435 986 l 435 972 z "},"Ŗ":{"ha":892,"x_min":126,"x_max":850,"o":"m 126 0 l 126 944 l 482 944 q 710 876 626 944 q 793 675 793 808 q 732 497 793 563 q 567 413 671 432 l 850 22 l 850 0 l 711 0 l 424 406 l 254 406 l 254 0 l 126 0 m 475 521 q 613 560 565 521 q 661 675 661 599 q 613 790 661 751 q 475 829 565 829 l 254 829 l 254 521 l 475 521 m 346 -289 l 374 -93 l 503 -93 l 503 -107 l 444 -303 l 346 -303 l 346 -289 z "},"ŗ":{"ha":497,"x_min":75,"x_max":471,"o":"m 194 669 l 210 597 l 213 597 q 249 635 229 618 q 293 665 269 653 q 343 683 317 676 q 399 690 369 690 q 438 688 418 690 q 471 681 457 685 l 453 568 q 419 573 438 571 q 385 575 400 575 q 287 548 319 575 q 231 478 254 521 l 231 0 l 106 0 l 106 669 l 194 669 m 75 -289 l 103 -93 l 232 -93 l 232 -107 l 174 -303 l 75 -303 l 75 -289 z "},"Ř":{"ha":892,"x_min":126,"x_max":850,"o":"m 126 0 l 126 944 l 482 944 q 710 876 626 944 q 793 675 793 808 q 732 497 793 563 q 567 413 671 432 l 850 22 l 850 0 l 711 0 l 424 406 l 254 406 l 254 0 l 126 0 m 475 521 q 613 560 565 521 q 661 675 661 599 q 613 790 661 751 q 475 829 565 829 l 254 829 l 254 521 l 475 521 m 210 1213 l 210 1226 l 324 1226 l 411 1128 l 499 1226 l 613 1226 l 613 1213 l 482 1044 l 340 1044 l 210 1213 z "},"ř":{"ha":497,"x_min":82,"x_max":485,"o":"m 194 669 l 210 597 l 213 597 q 249 635 229 618 q 293 665 269 653 q 343 683 317 676 q 399 690 369 690 q 438 688 418 690 q 471 681 457 685 l 453 568 q 419 573 438 571 q 385 575 400 575 q 287 548 319 575 q 231 478 254 521 l 231 0 l 106 0 l 106 669 l 194 669 m 82 972 l 82 986 l 196 986 l 283 883 l 371 986 l 485 986 l 485 972 l 354 804 l 213 804 l 82 972 z "},"Ś":{"ha":744,"x_min":64,"x_max":676,"o":"m 121 183 q 174 148 146 164 q 232 121 201 132 q 297 103 263 110 q 368 97 331 97 q 496 133 447 97 q 544 249 544 169 q 536 303 544 279 q 510 344 528 326 q 462 377 492 363 q 390 407 432 392 l 304 438 q 142 537 200 474 q 85 693 85 600 q 106 801 85 751 q 166 888 126 851 q 263 945 206 925 q 393 965 319 965 q 467 958 429 965 q 539 940 504 951 q 603 915 574 929 q 656 888 633 901 l 604 785 q 501 830 554 813 q 393 847 447 847 q 260 806 304 847 q 217 703 217 765 q 242 619 217 653 q 342 560 268 586 l 433 528 q 537 481 492 507 q 613 423 582 456 q 660 349 644 390 q 676 257 676 308 q 654 145 676 196 q 592 58 632 94 q 494 0 551 21 q 368 -21 438 -21 q 274 -12 318 -21 q 193 10 231 -4 q 123 44 156 25 q 64 82 90 63 l 121 183 m 532 1213 l 428 1044 l 321 1044 l 321 1058 l 396 1226 l 532 1226 l 532 1213 z "},"ś":{"ha":625,"x_min":60,"x_max":564,"o":"m 104 143 q 196 101 147 117 q 301 86 244 86 q 405 110 371 86 q 439 181 439 135 q 415 238 439 217 q 339 274 392 258 l 258 296 q 181 324 215 308 q 122 363 146 340 q 85 417 99 386 q 72 486 72 447 q 138 634 72 578 q 321 690 204 690 q 444 678 390 690 q 550 643 499 665 l 511 542 q 419 573 467 563 q 328 583 372 583 q 228 559 260 583 q 197 490 197 535 q 218 438 197 457 q 296 403 239 418 l 375 382 q 453 353 418 371 q 513 313 488 336 q 551 257 538 289 q 564 183 564 225 q 547 99 564 138 q 497 35 529 61 q 418 -6 465 8 q 313 -21 371 -21 q 169 -3 226 -21 q 60 43 111 14 l 104 143 l 104 143 m 486 972 l 368 804 l 261 804 l 261 818 l 350 986 l 486 986 l 486 972 z "},"Ŝ":{"ha":744,"x_min":64,"x_max":676,"o":"m 121 183 q 174 148 146 164 q 232 121 201 132 q 297 103 263 110 q 368 97 331 97 q 496 133 447 97 q 544 249 544 169 q 536 303 544 279 q 510 344 528 326 q 462 377 492 363 q 390 407 432 392 l 304 438 q 142 537 200 474 q 85 693 85 600 q 106 801 85 751 q 166 888 126 851 q 263 945 206 925 q 393 965 319 965 q 467 958 429 965 q 539 940 504 951 q 603 915 574 929 q 656 888 633 901 l 604 785 q 501 830 554 813 q 393 847 447 847 q 260 806 304 847 q 217 703 217 765 q 242 619 217 653 q 342 560 268 586 l 433 528 q 537 481 492 507 q 613 423 582 456 q 660 349 644 390 q 676 257 676 308 q 654 145 676 196 q 592 58 632 94 q 494 0 551 21 q 368 -21 438 -21 q 274 -12 318 -21 q 193 10 231 -4 q 123 44 156 25 q 64 82 90 63 l 121 183 m 583 1058 l 583 1044 l 469 1044 l 382 1143 l 294 1044 l 181 1044 l 181 1058 l 311 1226 l 453 1226 l 583 1058 z "},"ŝ":{"ha":625,"x_min":60,"x_max":564,"o":"m 104 143 q 196 101 147 117 q 301 86 244 86 q 405 110 371 86 q 439 181 439 135 q 415 238 439 217 q 339 274 392 258 l 258 296 q 181 324 215 308 q 122 363 146 340 q 85 417 99 386 q 72 486 72 447 q 138 634 72 578 q 321 690 204 690 q 444 678 390 690 q 550 643 499 665 l 511 542 q 419 573 467 563 q 328 583 372 583 q 228 559 260 583 q 197 490 197 535 q 218 438 197 457 q 296 403 239 418 l 375 382 q 453 353 418 371 q 513 313 488 336 q 551 257 538 289 q 564 183 564 225 q 547 99 564 138 q 497 35 529 61 q 418 -6 465 8 q 313 -21 371 -21 q 169 -3 226 -21 q 60 43 111 14 l 104 143 l 104 143 m 525 818 l 525 804 l 411 804 l 324 907 l 236 804 l 122 804 l 122 818 l 253 986 l 394 986 l 525 818 z "},"Ş":{"ha":746,"x_min":64,"x_max":676,"o":"m 289 -101 l 318 -18 q 174 18 236 -11 q 64 82 111 47 l 121 183 q 174 148 146 164 q 232 121 201 132 q 297 103 263 110 q 368 97 331 97 q 496 133 447 97 q 544 249 544 169 q 536 303 544 279 q 510 344 528 326 q 462 377 492 363 q 390 407 432 392 l 304 438 q 142 537 200 474 q 85 693 85 600 q 106 801 85 751 q 166 888 126 851 q 263 945 206 925 q 393 965 319 965 q 467 958 429 965 q 539 940 504 951 q 603 915 574 929 q 656 888 633 901 l 604 785 q 501 830 554 813 q 393 847 447 847 q 260 806 304 847 q 217 703 217 765 q 242 619 217 653 q 342 560 268 586 l 433 528 q 537 481 492 507 q 613 423 582 456 q 660 349 644 390 q 676 257 676 308 q 658 153 676 201 q 604 69 639 106 q 520 10 569 33 q 411 -18 471 -12 l 392 -67 q 463 -99 436 -74 q 490 -167 490 -124 q 444 -267 490 -237 q 326 -296 397 -296 q 265 -290 293 -296 q 222 -276 238 -283 l 242 -200 q 274 -210 256 -206 q 315 -215 293 -215 q 365 -205 347 -215 q 382 -167 382 -194 q 358 -126 382 -136 q 297 -115 333 -115 l 289 -101 z "},"ş":{"ha":626,"x_min":60,"x_max":564,"o":"m 236 -101 l 265 -19 q 151 2 199 -14 q 60 43 104 18 l 104 143 q 196 101 147 117 q 301 86 244 86 q 405 110 371 86 q 439 181 439 135 q 415 238 439 217 q 339 274 392 258 l 258 296 q 181 324 215 308 q 122 363 146 340 q 85 417 99 386 q 72 486 72 447 q 138 634 72 578 q 321 690 204 690 q 444 678 390 690 q 550 643 499 665 l 511 542 q 419 573 467 563 q 328 583 372 583 q 228 559 260 583 q 197 490 197 535 q 218 438 197 457 q 296 403 239 418 l 375 382 q 453 353 418 371 q 513 313 488 336 q 551 257 538 289 q 564 183 564 225 q 510 47 564 100 q 358 -18 456 -7 l 339 -67 q 410 -99 383 -74 q 438 -167 438 -124 q 391 -267 438 -237 q 274 -296 344 -296 q 213 -290 240 -296 q 169 -276 185 -283 l 189 -200 q 222 -210 203 -206 q 263 -215 240 -215 q 312 -205 294 -215 q 329 -167 329 -194 q 305 -126 329 -136 q 244 -115 281 -115 l 236 -101 z "},"Š":{"ha":744,"x_min":64,"x_max":676,"o":"m 121 183 q 174 148 146 164 q 232 121 201 132 q 297 103 263 110 q 368 97 331 97 q 496 133 447 97 q 544 249 544 169 q 536 303 544 279 q 510 344 528 326 q 462 377 492 363 q 390 407 432 392 l 304 438 q 142 537 200 474 q 85 693 85 600 q 106 801 85 751 q 166 888 126 851 q 263 945 206 925 q 393 965 319 965 q 467 958 429 965 q 539 940 504 951 q 603 915 574 929 q 656 888 633 901 l 604 785 q 501 830 554 813 q 393 847 447 847 q 260 806 304 847 q 217 703 217 765 q 242 619 217 653 q 342 560 268 586 l 433 528 q 537 481 492 507 q 613 423 582 456 q 660 349 644 390 q 676 257 676 308 q 654 145 676 196 q 592 58 632 94 q 494 0 551 21 q 368 -21 438 -21 q 274 -12 318 -21 q 193 10 231 -4 q 123 44 156 25 q 64 82 90 63 l 121 183 m 185 1213 l 185 1226 l 299 1226 l 386 1128 l 474 1226 l 588 1226 l 588 1213 l 457 1044 l 315 1044 l 185 1213 z "},"š":{"ha":625,"x_min":60,"x_max":564,"o":"m 104 143 q 196 101 147 117 q 301 86 244 86 q 405 110 371 86 q 439 181 439 135 q 415 238 439 217 q 339 274 392 258 l 258 296 q 181 324 215 308 q 122 363 146 340 q 85 417 99 386 q 72 486 72 447 q 138 634 72 578 q 321 690 204 690 q 444 678 390 690 q 550 643 499 665 l 511 542 q 419 573 467 563 q 328 583 372 583 q 228 559 260 583 q 197 490 197 535 q 218 438 197 457 q 296 403 239 418 l 375 382 q 453 353 418 371 q 513 313 488 336 q 551 257 538 289 q 564 183 564 225 q 547 99 564 138 q 497 35 529 61 q 418 -6 465 8 q 313 -21 371 -21 q 169 -3 226 -21 q 60 43 111 14 l 104 143 l 104 143 m 113 972 l 113 986 l 226 986 l 314 883 l 401 986 l 515 986 l 515 972 l 385 804 l 243 804 l 113 972 z "},"Ţ":{"ha":768,"x_min":44,"x_max":724,"o":"m 299 -101 l 338 0 l 321 0 l 321 829 l 44 829 l 44 944 l 724 944 l 724 829 l 449 829 l 449 0 l 432 0 l 401 -67 q 473 -99 446 -74 q 500 -167 500 -124 q 453 -267 500 -237 q 336 -296 407 -296 q 275 -290 303 -296 q 232 -276 247 -283 l 251 -200 q 284 -210 265 -206 q 325 -215 303 -215 q 374 -205 357 -215 q 392 -167 392 -194 q 367 -126 392 -136 q 307 -115 343 -115 l 299 -101 z "},"ţ":{"ha":510,"x_min":39,"x_max":463,"o":"m 217 -101 l 250 -7 q 176 61 193 14 q 158 186 158 108 l 158 567 l 39 567 l 39 642 l 158 669 l 158 825 l 283 825 l 283 669 l 463 669 l 463 567 l 283 567 l 283 168 q 303 108 283 126 q 357 89 322 89 q 415 95 385 89 q 461 106 446 101 l 461 -1 q 408 -14 442 -7 q 339 -21 374 -21 l 319 -67 q 391 -99 364 -74 q 418 -167 418 -124 q 372 -267 418 -237 q 254 -296 325 -296 q 193 -290 221 -296 q 150 -276 165 -283 l 169 -200 q 202 -210 183 -206 q 243 -215 221 -215 q 292 -205 274 -215 q 310 -167 310 -194 q 285 -126 310 -136 q 225 -115 261 -115 l 217 -101 z "},"Ť":{"ha":768,"x_min":44,"x_max":724,"o":"m 724 944 l 724 829 l 449 829 l 449 0 l 321 0 l 321 829 l 44 829 l 44 944 l 724 944 m 183 1213 l 183 1226 l 297 1226 l 385 1128 l 472 1226 l 586 1226 l 586 1213 l 456 1044 l 314 1044 l 183 1213 z "},"ť":{"ha":507,"x_min":38,"x_max":554,"o":"m 282 825 l 282 669 l 461 669 l 461 567 l 282 567 l 282 168 q 301 108 282 126 q 356 89 321 89 q 414 95 383 89 q 460 106 444 101 l 460 -1 q 405 -14 440 -7 q 328 -21 369 -21 q 201 22 244 -21 q 157 144 157 64 l 157 567 l 38 567 l 38 642 l 157 669 l 157 825 l 282 825 m 397 749 l 425 944 l 554 944 l 554 931 l 496 735 l 397 735 l 397 749 z "},"Ŧ":{"ha":768,"x_min":44,"x_max":724,"o":"m 449 450 l 449 0 l 321 0 l 321 450 l 146 450 l 146 565 l 321 565 l 321 829 l 44 829 l 44 944 l 724 944 l 724 829 l 449 829 l 449 565 l 625 565 l 625 450 l 449 450 z "},"ŧ":{"ha":513,"x_min":42,"x_max":465,"o":"m 286 325 l 286 168 q 306 108 286 126 q 360 89 325 89 q 418 95 388 89 q 464 106 449 101 l 464 -1 q 409 -14 444 -7 q 332 -21 374 -21 q 205 22 249 -21 q 161 144 161 64 l 161 325 l 60 325 l 60 428 l 161 428 l 161 567 l 42 567 l 42 642 l 161 669 l 161 825 l 286 825 l 286 669 l 465 669 l 465 567 l 286 567 l 286 428 l 428 428 l 428 325 l 286 325 z "},"Ũ":{"ha":964,"x_min":117,"x_max":846,"o":"m 244 944 l 244 360 q 258 251 244 300 q 301 169 272 203 q 375 116 331 135 q 482 97 419 97 q 589 116 544 97 q 662 169 633 135 q 704 251 690 203 q 718 360 718 300 l 718 944 l 846 944 l 846 346 q 824 194 846 261 q 758 78 803 126 q 645 5 714 31 q 482 -21 576 -21 q 317 5 386 -21 q 204 78 249 31 q 138 194 160 126 q 117 347 117 263 l 117 944 l 244 944 m 268 1135 q 318 1188 288 1163 q 393 1214 349 1214 q 439 1205 415 1214 q 485 1185 463 1196 q 531 1167 508 1175 q 574 1158 553 1158 q 617 1171 597 1158 q 656 1207 638 1183 l 693 1138 q 638 1081 668 1103 q 568 1058 608 1058 q 522 1067 544 1058 q 477 1085 500 1075 q 431 1105 454 1096 q 386 1114 408 1114 q 343 1101 364 1114 q 306 1065 322 1088 l 268 1135 z "},"ũ":{"ha":782,"x_min":99,"x_max":676,"o":"m 224 669 l 224 260 q 257 131 224 174 q 368 89 290 89 q 421 95 394 89 q 472 111 447 101 q 517 133 496 121 q 551 154 538 144 l 551 669 l 676 669 l 676 0 l 588 0 l 572 61 l 569 61 q 529 36 554 50 q 474 10 504 22 q 409 -12 444 -3 q 338 -21 374 -21 q 162 44 225 -21 q 99 235 99 108 l 99 669 l 224 669 m 179 881 q 229 934 199 908 q 304 960 260 960 q 350 951 326 960 q 397 931 374 942 q 442 913 419 921 q 485 904 464 904 q 528 917 508 904 q 567 953 549 929 l 604 883 q 549 826 579 849 q 479 804 519 804 q 433 813 456 804 q 388 831 411 821 q 342 851 365 842 q 297 860 319 860 q 254 847 275 860 q 217 811 233 833 l 179 881 z "},"Ū":{"ha":964,"x_min":117,"x_max":846,"o":"m 244 944 l 244 360 q 258 251 244 300 q 301 169 272 203 q 375 116 331 135 q 482 97 419 97 q 589 116 544 97 q 662 169 633 135 q 704 251 690 203 q 718 360 718 300 l 718 944 l 846 944 l 846 346 q 824 194 846 261 q 758 78 803 126 q 645 5 714 31 q 482 -21 576 -21 q 317 5 386 -21 q 204 78 249 31 q 138 194 160 126 q 117 347 117 263 l 117 944 l 244 944 m 297 1079 l 297 1182 l 665 1182 l 665 1079 l 297 1079 z "},"ū":{"ha":782,"x_min":99,"x_max":676,"o":"m 224 669 l 224 260 q 257 131 224 174 q 368 89 290 89 q 421 95 394 89 q 472 111 447 101 q 517 133 496 121 q 551 154 538 144 l 551 669 l 676 669 l 676 0 l 588 0 l 572 61 l 569 61 q 529 36 554 50 q 474 10 504 22 q 409 -12 444 -3 q 338 -21 374 -21 q 162 44 225 -21 q 99 235 99 108 l 99 669 l 224 669 m 208 829 l 208 932 l 576 932 l 576 829 l 208 829 z "},"Ŭ":{"ha":964,"x_min":117,"x_max":846,"o":"m 244 944 l 244 360 q 258 251 244 300 q 301 169 272 203 q 375 116 331 135 q 482 97 419 97 q 589 116 544 97 q 662 169 633 135 q 704 251 690 203 q 718 360 718 300 l 718 944 l 846 944 l 846 346 q 824 194 846 261 q 758 78 803 126 q 645 5 714 31 q 482 -21 576 -21 q 317 5 386 -21 q 204 78 249 31 q 138 194 160 126 q 117 347 117 263 l 117 944 l 244 944 m 479 1164 q 570 1173 526 1164 q 646 1208 614 1182 l 688 1150 q 601 1081 654 1103 q 479 1060 547 1060 q 359 1081 413 1060 q 272 1150 306 1103 l 314 1208 q 390 1173 346 1182 q 479 1164 433 1164 z "},"ŭ":{"ha":782,"x_min":99,"x_max":676,"o":"m 224 669 l 224 260 q 257 131 224 174 q 368 89 290 89 q 421 95 394 89 q 472 111 447 101 q 517 133 496 121 q 551 154 538 144 l 551 669 l 676 669 l 676 0 l 588 0 l 572 61 l 569 61 q 529 36 554 50 q 474 10 504 22 q 409 -12 444 -3 q 338 -21 374 -21 q 162 44 225 -21 q 99 235 99 108 l 99 669 l 224 669 m 394 908 q 485 917 442 908 q 561 953 529 926 l 603 894 q 516 826 569 847 q 394 804 463 804 q 274 826 328 804 q 188 894 221 847 l 229 953 q 305 917 261 926 q 394 908 349 908 z "},"Ů":{"ha":964,"x_min":117,"x_max":846,"o":"m 244 944 l 244 360 q 258 251 244 300 q 301 169 272 203 q 375 116 331 135 q 482 97 419 97 q 589 116 544 97 q 662 169 633 135 q 704 251 690 203 q 718 360 718 300 l 718 944 l 846 944 l 846 346 q 824 194 846 261 q 758 78 803 126 q 645 5 714 31 q 482 -21 576 -21 q 317 5 386 -21 q 204 78 249 31 q 138 194 160 126 q 117 347 117 263 l 117 944 l 244 944 m 422 1150 q 438 1108 422 1122 q 482 1094 454 1094 q 526 1108 510 1094 q 542 1150 542 1122 q 526 1191 542 1178 q 482 1204 510 1204 q 438 1191 454 1204 q 422 1150 422 1178 m 340 1150 q 380 1246 340 1213 q 482 1279 419 1279 q 583 1246 544 1279 q 622 1150 622 1213 q 583 1053 622 1088 q 482 1019 544 1019 q 380 1053 419 1019 q 340 1150 340 1088 z "},"ů":{"ha":782,"x_min":99,"x_max":676,"o":"m 224 669 l 224 260 q 257 131 224 174 q 368 89 290 89 q 421 95 394 89 q 472 111 447 101 q 517 133 496 121 q 551 154 538 144 l 551 669 l 676 669 l 676 0 l 588 0 l 572 61 l 569 61 q 529 36 554 50 q 474 10 504 22 q 409 -12 444 -3 q 338 -21 374 -21 q 162 44 225 -21 q 99 235 99 108 l 99 669 l 224 669 m 333 886 q 349 844 333 858 q 393 831 365 831 q 437 844 421 831 q 453 886 453 858 q 437 927 453 914 q 393 940 421 940 q 349 927 365 940 q 333 886 333 914 m 251 886 q 291 982 251 949 q 393 1015 331 1015 q 494 982 456 1015 q 533 886 533 949 q 494 790 533 824 q 393 756 456 756 q 291 790 331 756 q 251 886 251 824 z "},"Ű":{"ha":964,"x_min":117,"x_max":846,"o":"m 244 944 l 244 360 q 258 251 244 300 q 301 169 272 203 q 375 116 331 135 q 482 97 419 97 q 589 116 544 97 q 662 169 633 135 q 704 251 690 203 q 718 360 718 300 l 718 944 l 846 944 l 846 346 q 824 194 846 261 q 758 78 803 126 q 645 5 714 31 q 482 -21 576 -21 q 317 5 386 -21 q 204 78 249 31 q 138 194 160 126 q 117 347 117 263 l 117 944 l 244 944 m 531 1213 l 413 1044 l 306 1044 l 306 1058 l 394 1226 l 531 1226 l 531 1213 m 764 1213 l 646 1044 l 539 1044 l 539 1058 l 628 1226 l 764 1226 l 764 1213 z "},"ű":{"ha":782,"x_min":99,"x_max":679,"o":"m 224 669 l 224 260 q 257 131 224 174 q 368 89 290 89 q 421 95 394 89 q 472 111 447 101 q 517 133 496 121 q 551 154 538 144 l 551 669 l 676 669 l 676 0 l 588 0 l 572 61 l 569 61 q 529 36 554 50 q 474 10 504 22 q 409 -12 444 -3 q 338 -21 374 -21 q 162 44 225 -21 q 99 235 99 108 l 99 669 l 224 669 m 446 972 l 328 804 l 221 804 l 221 818 l 310 986 l 446 986 l 446 972 m 679 972 l 561 804 l 454 804 l 454 818 l 543 986 l 679 986 l 679 972 z "},"Ų":{"ha":965,"x_min":118,"x_max":847,"o":"m 501 -296 q 449 -288 474 -296 q 403 -265 424 -281 q 372 -225 383 -250 q 360 -164 360 -200 q 379 -77 360 -112 q 431 -18 399 -42 q 193 92 268 -4 q 118 347 118 189 l 118 944 l 246 944 l 246 360 q 260 251 246 300 q 303 169 274 203 q 376 116 332 135 q 483 97 421 97 q 590 116 546 97 q 663 169 635 135 q 706 251 692 203 q 719 360 719 300 l 719 944 l 847 944 l 847 346 q 830 207 847 269 q 776 98 813 144 q 685 22 740 51 q 556 -17 631 -7 q 492 -53 518 -22 q 465 -131 465 -83 q 529 -200 465 -200 q 574 -190 554 -200 q 610 -171 594 -181 l 622 -257 q 571 -283 603 -271 q 501 -296 539 -296 z "},"ų":{"ha":782,"x_min":99,"x_max":701,"o":"m 581 -296 q 529 -288 554 -296 q 484 -265 504 -281 q 452 -225 464 -250 q 440 -164 440 -200 q 451 -109 440 -135 q 481 -61 463 -83 q 526 -19 500 -39 q 582 21 551 1 l 572 61 l 569 61 q 529 36 554 50 q 474 10 504 22 q 409 -12 444 -3 q 338 -21 374 -21 q 162 44 225 -21 q 99 235 99 108 l 99 669 l 224 669 l 224 260 q 257 131 224 174 q 368 89 290 89 q 421 95 394 89 q 472 111 447 101 q 517 133 496 121 q 551 154 538 144 l 551 669 l 676 669 l 676 0 q 619 -34 643 -17 q 578 -69 594 -51 q 553 -104 561 -86 q 546 -140 546 -122 q 608 -200 546 -200 q 655 -190 635 -200 q 690 -171 675 -181 l 701 -257 q 650 -283 682 -271 q 581 -296 618 -296 z "},"Ŵ":{"ha":1357,"x_min":35,"x_max":1321,"o":"m 1321 931 l 1049 0 l 918 0 l 679 789 l 676 789 l 439 0 l 308 0 l 35 931 l 35 944 l 168 944 l 375 178 l 378 178 l 610 944 l 746 944 l 978 178 l 981 178 l 1188 944 l 1321 944 l 1321 931 m 879 1058 l 879 1044 l 765 1044 l 678 1143 l 590 1044 l 476 1044 l 476 1058 l 607 1226 l 749 1226 l 879 1058 z "},"ŵ":{"ha":1136,"x_min":36,"x_max":1100,"o":"m 1100 656 l 872 0 l 751 0 l 569 519 l 567 519 l 385 0 l 264 0 l 36 656 l 36 669 l 163 669 l 328 163 l 331 163 l 504 669 l 632 669 l 807 163 l 810 163 l 974 669 l 1100 669 l 1100 656 m 769 818 l 769 804 l 656 804 l 568 907 l 481 804 l 367 804 l 367 818 l 497 986 l 639 986 l 769 818 z "},"Ŷ":{"ha":778,"x_min":13,"x_max":768,"o":"m 150 944 l 388 519 l 390 519 l 632 944 l 768 944 l 768 931 l 453 399 l 453 0 l 325 0 l 325 399 l 13 931 l 13 944 l 150 944 m 592 1058 l 592 1044 l 478 1044 l 390 1143 l 303 1044 l 189 1044 l 189 1058 l 319 1226 l 461 1226 l 592 1058 z "},"ŷ":{"ha":701,"x_min":28,"x_max":669,"o":"m 669 656 l 389 -89 q 292 -246 349 -196 q 157 -296 236 -296 q 99 -291 129 -296 q 50 -282 69 -286 l 50 -176 q 97 -183 71 -179 q 146 -186 122 -186 q 218 -161 190 -186 q 265 -82 246 -136 l 297 7 l 28 656 l 28 669 l 153 669 l 351 149 l 356 149 l 546 669 l 669 669 l 669 656 m 556 818 l 556 804 l 442 804 l 354 907 l 267 804 l 153 804 l 153 818 l 283 986 l 425 986 l 556 818 z "},"Ÿ":{"ha":778,"x_min":13,"x_max":768,"o":"m 150 944 l 388 519 l 390 519 l 632 944 l 768 944 l 768 931 l 453 399 l 453 0 l 325 0 l 325 399 l 13 931 l 13 944 l 150 944 m 158 1133 q 180 1190 158 1169 q 238 1211 201 1211 q 297 1190 275 1211 q 318 1133 318 1169 q 297 1076 318 1097 q 238 1054 275 1054 q 180 1076 201 1054 q 158 1133 158 1097 m 463 1133 q 484 1190 463 1169 q 542 1211 506 1211 q 601 1190 579 1211 q 622 1133 622 1169 q 601 1076 622 1097 q 542 1054 579 1054 q 484 1076 506 1054 q 463 1133 463 1097 z "},"Ź":{"ha":767,"x_min":58,"x_max":697,"o":"m 697 944 l 697 842 l 217 118 l 217 115 l 697 115 l 697 0 l 58 0 l 58 103 l 538 826 l 538 829 l 83 829 l 83 944 l 697 944 m 531 1213 l 426 1044 l 319 1044 l 319 1058 l 394 1226 l 531 1226 l 531 1213 z "},"ź":{"ha":625,"x_min":56,"x_max":560,"o":"m 560 669 l 560 597 l 214 106 l 214 103 l 560 103 l 560 0 l 56 0 l 56 72 l 401 564 l 401 567 l 75 567 l 75 669 l 560 669 m 489 972 l 371 804 l 264 804 l 264 818 l 353 986 l 489 986 l 489 972 z "},"Ż":{"ha":767,"x_min":58,"x_max":697,"o":"m 697 944 l 697 842 l 217 118 l 217 115 l 697 115 l 697 0 l 58 0 l 58 103 l 538 826 l 538 829 l 83 829 l 83 944 l 697 944 m 317 1133 q 338 1190 317 1169 q 396 1211 360 1211 q 455 1190 433 1211 q 476 1133 476 1169 q 455 1076 476 1097 q 396 1054 433 1054 q 338 1076 360 1054 q 317 1133 317 1097 z "},"ż":{"ha":625,"x_min":56,"x_max":560,"o":"m 560 669 l 560 597 l 214 106 l 214 103 l 560 103 l 560 0 l 56 0 l 56 72 l 401 564 l 401 567 l 75 567 l 75 669 l 560 669 m 244 881 q 266 938 244 917 q 324 958 288 958 q 383 938 361 958 q 404 881 404 917 q 383 823 404 844 q 324 801 361 801 q 266 823 288 801 q 244 881 244 844 z "},"Ž":{"ha":767,"x_min":58,"x_max":697,"o":"m 697 944 l 697 842 l 217 118 l 217 115 l 697 115 l 697 0 l 58 0 l 58 103 l 538 826 l 538 829 l 83 829 l 83 944 l 697 944 m 193 1213 l 193 1226 l 307 1226 l 394 1128 l 482 1226 l 596 1226 l 596 1213 l 465 1044 l 324 1044 l 193 1213 z "},"ž":{"ha":625,"x_min":56,"x_max":560,"o":"m 560 669 l 560 597 l 214 106 l 214 103 l 560 103 l 560 0 l 56 0 l 56 72 l 401 564 l 401 567 l 75 567 l 75 669 l 560 669 m 122 972 l 122 986 l 236 986 l 324 883 l 411 986 l 525 986 l 525 972 l 394 804 l 253 804 l 122 972 z "},"ƒ":{"ha":819,"x_min":60,"x_max":756,"o":"m 217 411 l 235 514 l 376 514 l 417 747 q 498 915 438 864 q 663 965 558 965 q 710 963 683 965 q 756 957 736 960 l 743 846 q 704 852 728 849 q 661 856 681 856 q 583 835 611 856 q 543 757 554 814 l 501 514 l 671 514 l 653 411 l 483 411 l 396 -78 q 317 -245 376 -194 q 153 -296 257 -296 q 105 -293 132 -296 q 60 -287 78 -290 l 72 -176 q 110 -183 86 -179 q 154 -186 135 -186 q 231 -165 203 -186 q 269 -87 260 -144 l 358 411 l 217 411 z "},"Ǻ":{"ha":876,"x_min":17,"x_max":860,"o":"m 297 1001 q 337 1097 297 1064 q 439 1131 376 1131 q 540 1097 501 1131 q 579 1001 579 1064 q 565 935 579 964 q 522 892 550 907 l 860 0 l 726 0 l 642 236 l 235 236 l 149 0 l 17 0 l 354 892 q 312 936 326 908 q 297 1001 297 964 m 436 794 l 276 344 l 599 344 l 439 794 l 436 794 m 379 1001 q 395 960 379 974 q 439 946 411 946 q 483 960 467 946 q 499 1001 499 974 q 483 1042 499 1029 q 439 1056 467 1056 q 395 1042 411 1056 q 379 1001 379 1029 m 595 1324 l 492 1188 l 385 1188 l 385 1199 l 460 1335 l 595 1335 l 595 1324 z "},"ǻ":{"ha":722,"x_min":57,"x_max":682,"o":"m 297 856 q 313 817 297 828 q 357 807 329 807 q 401 817 385 807 q 417 856 417 828 q 401 893 417 883 q 357 903 385 903 q 313 893 329 903 q 297 856 297 883 m 215 856 q 255 948 215 918 q 357 978 294 978 q 458 948 419 978 q 497 856 497 918 q 458 763 497 793 q 357 732 419 732 q 255 763 294 732 q 215 856 215 793 m 514 1157 l 410 1021 l 304 1021 l 304 1032 l 378 1168 l 514 1168 l 514 1157 m 393 303 q 294 295 333 303 q 230 274 254 288 q 195 240 206 260 q 185 194 185 219 q 215 115 185 140 q 300 89 244 89 q 396 104 347 89 q 481 146 444 119 l 481 303 l 393 303 m 501 60 q 399 1 456 22 q 275 -21 342 -21 q 189 -7 229 -21 q 119 33 149 7 q 74 97 90 58 q 57 186 57 136 q 81 288 57 247 q 147 354 104 329 q 247 390 189 379 q 374 400 304 400 l 481 400 l 481 435 q 446 544 481 507 q 331 581 411 581 q 230 563 282 581 q 139 522 178 546 l 92 617 q 199 669 136 649 q 333 690 261 690 q 535 624 464 690 q 606 432 606 558 l 606 129 q 612 102 606 111 q 644 93 618 93 l 682 93 l 682 -6 q 650 -13 667 -10 q 614 -17 633 -17 q 540 4 565 -17 q 504 60 515 25 l 501 60 z "},"Ǽ":{"ha":1278,"x_min":-12,"x_max":1196,"o":"m -12 14 l 556 944 l 1192 944 l 1192 829 l 718 829 l 718 539 l 1147 539 l 1147 424 l 718 424 l 718 115 l 1196 115 l 1196 0 l 590 0 l 590 236 l 265 236 l 124 0 l -12 0 l -12 14 m 588 789 l 328 344 l 590 344 l 590 789 l 588 789 m 1010 1213 l 906 1044 l 799 1044 l 799 1058 l 874 1226 l 1010 1226 l 1010 1213 z "},"ǽ":{"ha":1143,"x_min":57,"x_max":1079,"o":"m 615 294 q 667 145 615 203 q 815 88 718 88 q 926 106 883 88 q 1004 147 968 124 l 1053 51 q 950 1 1008 22 q 804 -21 892 -21 q 653 19 714 -21 q 553 122 592 60 q 505 65 532 90 q 443 19 478 39 q 367 -10 408 0 q 275 -21 325 -21 q 189 -7 229 -21 q 119 33 149 7 q 74 97 90 58 q 57 186 57 136 q 80 288 57 247 q 143 352 103 328 q 240 387 183 376 q 365 397 297 397 l 493 397 l 493 435 q 483 498 493 471 q 452 544 472 525 q 402 572 432 563 q 332 581 372 581 q 231 564 283 581 q 140 524 179 547 l 94 617 q 201 669 139 649 q 335 690 263 690 q 477 664 415 690 q 571 589 539 638 q 660 658 603 626 q 796 690 718 690 q 929 666 875 690 q 1017 602 983 642 q 1065 510 1050 563 q 1079 401 1079 457 q 1076 344 1079 375 q 1071 294 1074 313 l 615 294 m 957 394 q 958 409 958 401 q 958 424 958 417 q 949 488 958 458 q 920 538 940 517 q 869 572 900 560 q 796 583 839 583 q 722 569 754 583 q 666 531 689 556 q 631 471 643 506 q 615 394 618 436 l 957 394 m 385 294 q 285 288 325 294 q 222 269 246 282 q 188 238 197 257 q 178 194 178 219 q 211 115 178 140 q 300 89 244 89 q 367 101 333 89 q 430 140 401 114 q 476 204 458 165 q 494 294 494 243 l 385 294 m 750 972 l 632 804 l 525 804 l 525 818 l 614 986 l 750 986 l 750 972 z "},"Ǿ":{"ha":999,"x_min":81,"x_max":918,"o":"m 136 14 l 194 101 q 108 265 135 169 q 81 472 81 360 q 104 667 81 576 q 178 824 128 757 q 308 928 229 890 q 500 965 388 965 q 628 949 571 965 q 731 906 686 933 l 785 985 l 864 931 l 804 843 q 891 681 864 776 q 918 472 918 585 q 894 278 918 368 q 821 121 871 188 q 692 17 771 54 q 500 -21 613 -21 q 370 -6 428 -21 q 267 39 313 10 l 217 -37 l 136 14 m 786 472 q 774 615 786 549 q 729 732 761 682 l 336 142 q 408 108 368 119 q 500 97 447 97 q 638 126 583 97 q 726 206 693 156 q 772 324 758 256 q 786 472 786 393 m 213 472 q 225 330 213 396 q 268 214 238 264 l 663 803 q 592 835 632 824 q 500 847 551 847 q 363 818 418 847 q 274 739 307 789 q 226 620 240 689 q 213 472 213 551 m 656 1213 l 551 1044 l 444 1044 l 444 1058 l 519 1226 l 656 1226 l 656 1213 z "},"ǿ":{"ha":797,"x_min":68,"x_max":729,"o":"m 100 19 l 147 81 q 87 194 106 129 q 68 335 68 260 q 86 472 68 407 q 144 585 104 538 q 246 662 183 633 q 396 690 308 690 q 499 678 453 690 q 581 644 544 667 l 628 708 l 704 649 l 653 582 q 711 470 693 533 q 729 335 729 407 q 710 197 729 261 q 651 84 692 132 q 548 8 611 36 q 396 -21 485 -21 q 299 -10 343 -21 q 221 19 256 0 l 172 -43 l 100 19 m 601 335 q 595 411 601 375 q 574 478 589 447 l 292 113 q 396 89 335 89 q 492 108 453 89 q 555 160 531 126 q 590 238 579 193 q 601 335 601 283 m 196 335 q 203 253 196 290 q 226 183 210 215 l 510 551 q 459 573 488 565 q 396 581 431 581 q 302 562 340 581 q 240 510 264 543 q 206 431 217 476 q 196 335 196 386 m 565 972 l 447 804 l 340 804 l 340 818 l 429 986 l 565 986 l 565 972 z "},"Ș":{"ha":744,"x_min":64,"x_max":676,"o":"m 121 183 q 174 148 146 164 q 232 121 201 132 q 297 103 263 110 q 368 97 331 97 q 496 133 447 97 q 544 249 544 169 q 536 303 544 279 q 510 344 528 326 q 462 377 492 363 q 390 407 432 392 l 304 438 q 142 537 200 474 q 85 693 85 600 q 106 801 85 751 q 166 888 126 851 q 263 945 206 925 q 393 965 319 965 q 467 958 429 965 q 539 940 504 951 q 603 915 574 929 q 656 888 633 901 l 604 785 q 501 830 554 813 q 393 847 447 847 q 260 806 304 847 q 217 703 217 765 q 242 619 217 653 q 342 560 268 586 l 433 528 q 537 481 492 507 q 613 423 582 456 q 660 349 644 390 q 676 257 676 308 q 654 145 676 196 q 592 58 632 94 q 494 0 551 21 q 368 -21 438 -21 q 274 -12 318 -21 q 193 10 231 -4 q 123 44 156 25 q 64 82 90 63 l 121 183 m 276 -289 l 304 -93 l 433 -93 l 433 -107 l 375 -303 l 276 -303 l 276 -289 z "},"ș":{"ha":625,"x_min":60,"x_max":564,"o":"m 104 143 q 196 101 147 117 q 301 86 244 86 q 405 110 371 86 q 439 181 439 135 q 415 238 439 217 q 339 274 392 258 l 258 296 q 181 324 215 308 q 122 363 146 340 q 85 417 99 386 q 72 486 72 447 q 138 634 72 578 q 321 690 204 690 q 444 678 390 690 q 550 643 499 665 l 511 542 q 419 573 467 563 q 328 583 372 583 q 228 559 260 583 q 197 490 197 535 q 218 438 197 457 q 296 403 239 418 l 375 382 q 453 353 418 371 q 513 313 488 336 q 551 257 538 289 q 564 183 564 225 q 547 99 564 138 q 497 35 529 61 q 418 -6 465 8 q 313 -21 371 -21 q 169 -3 226 -21 q 60 43 111 14 l 104 143 l 104 143 m 229 -289 l 257 -93 l 386 -93 l 386 -107 l 328 -303 l 229 -303 l 229 -289 z "},"Ț":{"ha":768,"x_min":44,"x_max":724,"o":"m 724 944 l 724 829 l 449 829 l 449 0 l 321 0 l 321 829 l 44 829 l 44 944 l 724 944 m 292 -289 l 319 -93 l 449 -93 l 449 -107 l 390 -303 l 292 -303 l 292 -289 z "},"ț":{"ha":507,"x_min":38,"x_max":461,"o":"m 282 825 l 282 669 l 461 669 l 461 567 l 282 567 l 282 168 q 301 108 282 126 q 356 89 321 89 q 414 95 383 89 q 460 106 444 101 l 460 -1 q 405 -14 440 -7 q 328 -21 369 -21 q 201 22 244 -21 q 157 144 157 64 l 157 567 l 38 567 l 38 642 l 157 669 l 157 825 l 282 825 m 194 -289 l 222 -93 l 351 -93 l 351 -107 l 293 -303 l 194 -303 l 194 -289 z "},"ȷ":{"ha":336,"x_min":-64,"x_max":231,"o":"m 231 669 l 231 -81 q 181 -240 231 -183 q 32 -296 132 -296 q -15 -293 13 -296 q -64 -286 -43 -290 l -64 -179 q -22 -184 -46 -182 q 19 -186 3 -186 q 85 -163 64 -186 q 106 -85 106 -140 l 106 669 l 231 669 z "},"ˆ":{"ha":819,"x_min":208,"x_max":611,"o":"m 611 818 l 611 804 l 497 804 l 410 907 l 322 804 l 208 804 l 208 818 l 339 986 l 481 986 l 611 818 z "},"ˇ":{"ha":819,"x_min":208,"x_max":611,"o":"m 208 972 l 208 986 l 322 986 l 410 883 l 497 986 l 611 986 l 611 972 l 481 804 l 339 804 l 208 972 z "},"ˉ":{"ha":819,"x_min":225,"x_max":593,"o":"m 225 843 l 225 946 l 593 946 l 593 843 l 225 843 z "},"˘":{"ha":819,"x_min":201,"x_max":617,"o":"m 408 908 q 499 917 456 908 q 575 953 543 926 l 617 894 q 530 826 583 847 q 408 804 476 804 q 288 826 342 804 q 201 894 235 847 l 243 953 q 319 917 275 926 q 408 908 363 908 z "},"˙":{"ha":819,"x_min":329,"x_max":489,"o":"m 329 881 q 351 938 329 917 q 408 958 372 958 q 467 938 446 958 q 489 881 489 917 q 467 823 489 844 q 408 801 446 801 q 351 823 372 801 q 329 881 329 844 z "},"˚":{"ha":819,"x_min":268,"x_max":550,"o":"m 350 886 q 366 844 350 858 q 410 831 382 831 q 453 844 438 831 q 469 886 469 858 q 453 927 469 914 q 410 940 438 940 q 366 927 382 940 q 350 886 350 914 m 268 886 q 308 982 268 949 q 410 1015 347 1015 q 511 982 472 1015 q 550 886 550 949 q 511 790 550 824 q 410 756 472 756 q 308 790 347 756 q 268 886 268 824 z "},"˛":{"ha":819,"x_min":278,"x_max":539,"o":"m 418 -296 q 367 -288 392 -296 q 322 -265 342 -281 q 290 -225 301 -250 q 278 -164 278 -200 q 292 -101 278 -131 q 333 -47 307 -72 q 392 2 358 -21 q 463 47 425 25 l 513 6 q 460 -32 483 -14 q 419 -68 436 -50 q 392 -104 401 -86 q 383 -140 383 -122 q 399 -185 383 -169 q 446 -200 415 -200 q 492 -190 472 -200 q 528 -171 513 -181 l 539 -257 q 488 -283 519 -271 q 418 -296 456 -296 z "},"˜":{"ha":819,"x_min":197,"x_max":622,"o":"m 197 881 q 247 934 217 908 q 322 960 278 960 q 368 951 344 960 q 415 931 392 942 q 460 913 438 921 q 503 904 482 904 q 547 917 526 904 q 585 953 567 929 l 622 883 q 567 826 597 849 q 497 804 538 804 q 451 813 474 804 q 406 831 429 821 q 360 851 383 842 q 315 860 338 860 q 272 847 293 860 q 235 811 251 833 l 197 881 z "},"˝":{"ha":819,"x_min":181,"x_max":639,"o":"m 406 972 l 288 804 l 181 804 l 181 818 l 269 986 l 406 986 l 406 972 m 639 972 l 521 804 l 414 804 l 414 818 l 503 986 l 639 986 l 639 972 z "},"΄":{"ha":819,"x_min":376,"x_max":542,"o":"m 542 972 l 472 776 l 376 776 l 376 790 l 417 986 l 542 986 l 542 972 z "},"΅":{"ha":819,"x_min":165,"x_max":724,"o":"m 165 853 q 187 910 165 889 q 244 931 208 931 q 303 910 282 931 q 325 853 325 889 q 303 795 325 817 q 244 774 282 774 q 187 795 208 774 q 165 853 165 817 m 564 853 q 585 910 564 889 q 643 931 607 931 q 702 910 681 931 q 724 853 724 889 q 702 795 724 817 q 643 774 681 774 q 585 795 607 774 q 564 853 564 817 m 536 972 l 474 763 l 374 763 l 374 776 l 407 986 l 536 986 l 536 972 z "},"Ά":{"ha":910,"x_min":50,"x_max":893,"o":"m 893 0 l 760 0 l 675 236 l 268 236 l 182 0 l 50 0 l 407 944 l 536 944 l 893 0 m 469 794 l 310 344 l 632 344 l 472 794 l 469 794 m 251 931 l 189 735 l 92 735 l 92 749 l 125 944 l 251 944 l 251 931 z "},"·":{"ha":367,"x_min":94,"x_max":272,"o":"m 94 403 q 119 468 94 443 q 183 493 143 493 q 248 468 224 493 q 272 403 272 443 q 248 338 272 363 q 183 313 224 313 q 119 338 143 313 q 94 403 94 363 z "},"Έ":{"ha":954,"x_min":25,"x_max":872,"o":"m 868 944 l 868 829 l 394 829 l 394 539 l 824 539 l 824 424 l 394 424 l 394 115 l 872 115 l 872 0 l 267 0 l 267 944 l 868 944 m 185 931 l 122 735 l 25 735 l 25 749 l 58 944 l 185 944 l 185 931 z "},"Ή":{"ha":1117,"x_min":25,"x_max":990,"o":"m 863 424 l 394 424 l 394 0 l 267 0 l 267 944 l 394 944 l 394 539 l 863 539 l 863 944 l 990 944 l 990 0 l 863 0 l 863 424 m 185 931 l 122 735 l 25 735 l 25 749 l 58 944 l 185 944 l 185 931 z "},"Ί":{"ha":521,"x_min":25,"x_max":394,"o":"m 394 0 l 267 0 l 267 944 l 394 944 l 394 0 m 185 931 l 122 735 l 25 735 l 25 749 l 58 944 l 185 944 l 185 931 z "},"Ό":{"ha":1106,"x_min":33,"x_max":1025,"o":"m 319 472 q 333 324 319 393 q 381 206 347 256 q 469 126 414 156 q 607 97 525 97 q 745 126 690 97 q 833 206 800 156 q 879 324 865 256 q 893 472 893 393 q 879 620 893 551 q 833 739 865 689 q 745 818 800 789 q 607 847 690 847 q 469 818 525 847 q 381 739 414 789 q 333 620 347 689 q 319 472 319 551 m 1025 472 q 1001 278 1025 368 q 928 121 978 188 q 799 17 878 54 q 607 -21 719 -21 q 415 17 494 -21 q 285 121 336 54 q 211 278 235 188 q 188 472 188 368 q 211 667 188 576 q 285 824 235 757 q 415 928 336 890 q 607 965 494 965 q 799 928 719 965 q 928 824 878 890 q 1001 667 978 757 q 1025 472 1025 576 m 193 931 l 131 735 l 33 735 l 33 749 l 67 944 l 193 944 l 193 931 z "},"Ύ":{"ha":1032,"x_min":42,"x_max":1022,"o":"m 404 944 l 642 519 l 644 519 l 886 944 l 1022 944 l 1022 931 l 707 399 l 707 0 l 579 0 l 579 399 l 267 931 l 267 944 l 404 944 m 201 931 l 139 735 l 42 735 l 42 749 l 75 944 l 201 944 l 201 931 z "},"Ώ":{"ha":1125,"x_min":36,"x_max":1036,"o":"m 204 115 l 392 115 q 319 182 354 143 q 257 272 283 221 q 215 385 231 324 q 199 521 199 447 q 222 681 199 601 q 297 824 246 761 q 426 926 347 888 q 618 965 506 965 q 810 926 731 965 q 939 824 889 888 q 1013 681 989 761 q 1036 521 1036 601 q 1020 385 1036 447 q 978 272 1004 324 q 916 182 951 221 q 843 115 881 143 l 1031 115 l 1031 0 l 693 0 l 693 110 q 781 182 742 143 q 847 270 819 221 q 890 379 875 319 q 904 514 904 439 q 890 637 904 576 q 844 744 876 697 q 756 819 811 790 q 618 847 701 847 q 481 819 536 847 q 392 744 425 790 q 344 638 358 697 q 331 514 331 578 q 346 380 331 440 q 388 271 361 319 q 454 183 415 222 q 542 110 493 143 l 542 0 l 204 0 l 204 115 m 196 931 l 133 735 l 36 735 l 36 749 l 69 944 l 196 944 l 196 931 z "},"ΐ":{"ha":376,"x_min":-81,"x_max":478,"o":"m 232 669 l 232 164 q 248 104 232 119 q 293 89 264 89 q 324 92 307 89 q 349 97 340 94 l 349 -10 q 303 -18 329 -15 q 254 -21 276 -21 q 147 20 188 -21 q 107 153 107 61 l 107 669 l 232 669 m -81 853 q -59 910 -81 889 q -1 931 -37 931 q 58 910 36 931 q 79 853 79 889 q 58 795 79 817 q -1 774 36 774 q -59 795 -37 774 q -81 853 -81 817 m 318 853 q 340 910 318 889 q 397 931 361 931 q 456 910 435 931 q 478 853 478 889 q 456 795 478 817 q 397 774 435 774 q 340 795 361 774 q 318 853 318 817 m 290 972 l 228 763 l 128 763 l 128 776 l 161 986 l 290 986 l 290 972 z "},"Α":{"ha":876,"x_min":17,"x_max":860,"o":"m 860 0 l 726 0 l 642 236 l 235 236 l 149 0 l 17 0 l 374 944 l 503 944 l 860 0 m 436 794 l 276 344 l 599 344 l 439 794 l 436 794 z "},"Β":{"ha":868,"x_min":126,"x_max":794,"o":"m 254 115 l 474 115 q 552 123 517 115 q 612 148 588 131 q 649 194 636 165 q 663 265 663 222 q 612 384 663 351 q 472 417 561 417 l 254 417 l 254 115 m 436 944 q 674 885 594 944 q 754 701 754 825 q 718 565 754 619 q 631 490 682 510 l 631 488 q 751 406 707 464 q 794 256 794 349 q 715 68 794 136 q 488 0 635 0 l 126 0 l 126 944 l 436 944 m 254 532 l 426 532 q 510 538 474 532 q 572 561 547 544 q 610 606 597 578 q 622 681 622 635 q 610 755 622 726 q 574 800 599 783 q 513 823 550 817 q 426 829 476 829 l 254 829 l 254 532 z "},"Γ":{"ha":728,"x_min":126,"x_max":686,"o":"m 126 0 l 126 944 l 686 944 l 686 829 l 254 829 l 254 0 l 126 0 z "},"Δ":{"ha":876,"x_min":21,"x_max":858,"o":"m 858 0 l 21 0 l 21 7 l 375 944 l 504 944 l 858 7 l 858 0 m 438 794 l 190 115 l 689 115 l 440 794 l 438 794 z "},"Ε":{"ha":814,"x_min":126,"x_max":732,"o":"m 728 944 l 728 829 l 254 829 l 254 539 l 683 539 l 683 424 l 254 424 l 254 115 l 732 115 l 732 0 l 126 0 l 126 944 l 728 944 z "},"Ζ":{"ha":767,"x_min":58,"x_max":697,"o":"m 697 944 l 697 842 l 217 118 l 217 115 l 697 115 l 697 0 l 58 0 l 58 103 l 538 826 l 538 829 l 83 829 l 83 944 l 697 944 z "},"Η":{"ha":976,"x_min":126,"x_max":850,"o":"m 722 424 l 254 424 l 254 0 l 126 0 l 126 944 l 254 944 l 254 539 l 722 539 l 722 944 l 850 944 l 850 0 l 722 0 l 722 424 z "},"Θ":{"ha":999,"x_min":81,"x_max":918,"o":"m 329 424 l 329 539 l 669 539 l 669 424 l 329 424 m 213 472 q 226 324 213 393 q 274 206 240 256 q 363 126 307 156 q 500 97 418 97 q 638 126 583 97 q 726 206 693 156 q 772 324 758 256 q 786 472 786 393 q 772 620 786 551 q 726 739 758 689 q 638 818 693 789 q 500 847 583 847 q 363 818 418 847 q 274 739 307 789 q 226 620 240 689 q 213 472 213 551 m 918 472 q 894 278 918 368 q 821 121 871 188 q 692 17 771 54 q 500 -21 613 -21 q 308 17 388 -21 q 178 121 229 54 q 104 278 128 188 q 81 472 81 368 q 104 667 81 576 q 178 824 128 757 q 308 928 229 890 q 500 965 388 965 q 692 928 613 965 q 821 824 771 890 q 894 667 871 757 q 918 472 918 576 z "},"Ι":{"ha":381,"x_min":126,"x_max":254,"o":"m 254 0 l 126 0 l 126 944 l 254 944 l 254 0 z "},"Κ":{"ha":835,"x_min":126,"x_max":813,"o":"m 254 431 l 254 0 l 126 0 l 126 944 l 254 944 l 254 481 l 257 481 l 644 944 l 793 944 l 793 931 l 394 463 l 813 14 l 813 0 l 656 0 l 257 431 l 254 431 z "},"Λ":{"ha":860,"x_min":18,"x_max":842,"o":"m 150 0 l 18 0 l 365 944 l 494 944 l 842 0 l 708 0 l 431 768 l 428 768 l 150 0 z "},"Μ":{"ha":1149,"x_min":126,"x_max":1022,"o":"m 575 394 l 900 944 l 1022 944 l 1022 0 l 894 0 l 894 710 l 892 710 l 621 238 l 529 238 l 257 710 l 254 710 l 254 0 l 126 0 l 126 944 l 247 944 l 572 394 l 575 394 z "},"Ν":{"ha":989,"x_min":126,"x_max":863,"o":"m 735 201 l 735 944 l 863 944 l 863 0 l 731 0 l 257 743 l 254 743 l 254 0 l 126 0 l 126 944 l 257 944 l 732 201 l 735 201 z "},"Ξ":{"ha":807,"x_min":88,"x_max":721,"o":"m 721 126 l 721 0 l 88 0 l 88 126 l 721 126 m 136 418 l 136 544 l 672 544 l 672 418 l 136 418 m 88 818 l 88 944 l 717 944 l 717 818 l 88 818 z "},"Ο":{"ha":999,"x_min":81,"x_max":918,"o":"m 213 472 q 226 324 213 393 q 274 206 240 256 q 363 126 307 156 q 500 97 418 97 q 638 126 583 97 q 726 206 693 156 q 772 324 758 256 q 786 472 786 393 q 772 620 786 551 q 726 739 758 689 q 638 818 693 789 q 500 847 583 847 q 363 818 418 847 q 274 739 307 789 q 226 620 240 689 q 213 472 213 551 m 918 472 q 894 278 918 368 q 821 121 871 188 q 692 17 771 54 q 500 -21 613 -21 q 308 17 388 -21 q 178 121 229 54 q 104 278 128 188 q 81 472 81 368 q 104 667 81 576 q 178 824 128 757 q 308 928 229 890 q 500 965 388 965 q 692 928 613 965 q 821 824 771 890 q 894 667 871 757 q 918 472 918 576 z "},"Π":{"ha":976,"x_min":126,"x_max":850,"o":"m 722 829 l 254 829 l 254 0 l 126 0 l 126 944 l 850 944 l 850 0 l 722 0 l 722 829 z "},"Ρ":{"ha":824,"x_min":126,"x_max":767,"o":"m 126 0 l 126 944 l 461 944 q 598 924 540 944 q 693 867 656 904 q 749 776 731 829 q 767 654 767 722 q 748 533 767 586 q 692 442 729 479 q 597 384 654 404 q 461 364 539 364 l 254 364 l 254 0 l 126 0 m 254 479 l 450 479 q 592 527 549 479 q 635 654 635 575 q 592 781 635 733 q 450 829 549 829 l 254 829 l 254 479 z "},"Σ":{"ha":788,"x_min":58,"x_max":717,"o":"m 58 101 l 319 481 l 81 842 l 81 944 l 717 944 l 717 829 l 229 829 l 463 486 l 206 115 l 717 115 l 717 0 l 58 0 l 58 101 z "},"Τ":{"ha":768,"x_min":44,"x_max":724,"o":"m 724 944 l 724 829 l 449 829 l 449 0 l 321 0 l 321 829 l 44 829 l 44 944 l 724 944 z "},"Υ":{"ha":778,"x_min":13,"x_max":768,"o":"m 150 944 l 388 519 l 390 519 l 632 944 l 768 944 l 768 931 l 453 399 l 453 0 l 325 0 l 325 399 l 13 931 l 13 944 l 150 944 z "},"Φ":{"ha":1138,"x_min":88,"x_max":1053,"o":"m 628 857 q 821 818 740 850 q 953 735 901 786 q 1028 617 1004 685 q 1053 474 1053 550 q 1028 329 1053 396 q 953 211 1004 263 q 821 128 901 160 q 628 89 740 96 l 628 0 l 500 0 l 500 89 q 308 128 386 96 q 180 211 229 160 q 109 329 131 263 q 88 474 88 396 q 109 617 88 550 q 180 735 131 685 q 308 818 229 786 q 500 857 386 850 l 500 944 l 628 944 l 628 857 m 219 474 q 233 369 219 417 q 278 287 246 322 q 365 228 311 251 q 500 200 418 206 l 500 747 q 365 718 418 740 q 278 660 311 696 q 233 578 246 625 q 219 474 219 531 m 921 474 q 906 578 921 531 q 856 660 890 625 q 765 718 821 696 q 628 747 708 740 l 628 200 q 765 228 708 206 q 856 287 821 251 q 906 369 890 322 q 921 474 921 417 z "},"Χ":{"ha":817,"x_min":40,"x_max":778,"o":"m 178 944 l 407 560 l 410 560 l 640 944 l 778 944 l 778 931 l 489 472 l 778 14 l 778 0 l 640 0 l 410 383 l 407 383 l 178 0 l 40 0 l 40 14 l 328 472 l 40 931 l 40 944 l 178 944 z "},"Ψ":{"ha":1004,"x_min":83,"x_max":921,"o":"m 565 333 q 739 399 685 335 q 793 582 793 464 l 793 944 l 921 944 l 921 568 q 835 309 921 401 q 565 215 750 217 l 565 0 l 438 0 l 438 215 q 278 240 344 217 q 168 309 211 264 q 104 420 125 354 q 83 569 83 486 l 83 944 l 211 944 l 211 582 q 265 400 211 464 q 438 333 318 336 l 438 944 l 565 944 l 565 333 z "},"Ω":{"ha":1015,"x_min":90,"x_max":928,"o":"m 96 115 l 283 115 q 210 182 246 143 q 149 272 175 221 q 106 385 122 324 q 90 521 90 447 q 114 681 90 601 q 188 824 138 761 q 318 926 239 888 q 510 965 397 965 q 701 926 622 965 q 831 824 781 888 q 904 681 881 761 q 928 521 928 601 q 912 385 928 447 q 869 272 896 324 q 808 182 843 221 q 735 115 772 143 l 922 115 l 922 0 l 585 0 l 585 110 q 672 182 633 143 q 739 270 711 221 q 781 379 767 319 q 796 514 796 439 q 782 637 796 576 q 735 744 768 697 q 648 819 703 790 q 510 847 593 847 q 372 819 428 847 q 283 744 317 790 q 236 638 250 697 q 222 514 222 578 q 238 380 222 440 q 280 271 253 319 q 346 183 307 222 q 433 110 385 143 l 433 0 l 96 0 l 96 115 z "},"Ϊ":{"ha":381,"x_min":-43,"x_max":421,"o":"m 254 0 l 126 0 l 126 944 l 254 944 l 254 0 m -43 1133 q -22 1190 -43 1169 q 36 1211 0 1211 q 95 1190 74 1211 q 117 1133 117 1169 q 95 1076 117 1097 q 36 1054 74 1054 q -22 1076 0 1054 q -43 1133 -43 1097 m 261 1133 q 283 1190 261 1169 q 340 1211 304 1211 q 399 1190 378 1211 q 421 1133 421 1169 q 399 1076 421 1097 q 340 1054 378 1054 q 283 1076 304 1054 q 261 1133 261 1097 z "},"Ϋ":{"ha":778,"x_min":13,"x_max":768,"o":"m 150 944 l 388 519 l 390 519 l 632 944 l 768 944 l 768 931 l 453 399 l 453 0 l 325 0 l 325 399 l 13 931 l 13 944 l 150 944 m 158 1133 q 180 1190 158 1169 q 238 1211 201 1211 q 297 1190 275 1211 q 318 1133 318 1169 q 297 1076 318 1097 q 238 1054 275 1054 q 180 1076 201 1054 q 158 1133 158 1097 m 463 1133 q 484 1190 463 1169 q 542 1211 506 1211 q 601 1190 579 1211 q 622 1133 622 1169 q 601 1076 622 1097 q 542 1054 579 1054 q 484 1076 506 1054 q 463 1133 463 1097 z "},"ά":{"ha":842,"x_min":69,"x_max":776,"o":"m 776 0 l 651 0 l 608 165 l 607 165 q 568 92 590 126 q 515 33 546 58 q 447 -6 485 8 q 361 -21 408 -21 q 228 8 283 -21 q 138 84 174 36 q 86 197 103 132 q 69 335 69 261 q 86 472 69 407 q 138 585 103 538 q 227 662 172 633 q 360 690 282 690 q 446 676 407 690 q 515 636 485 661 q 568 577 546 611 q 607 504 590 543 l 608 504 l 651 669 l 776 669 l 679 336 l 776 0 m 565 335 q 536 428 554 383 q 492 506 518 472 q 432 560 465 540 q 360 581 399 581 q 281 561 313 581 q 231 508 250 542 q 205 430 213 475 q 197 335 197 385 q 205 240 197 285 q 231 161 213 194 q 281 108 250 128 q 360 89 313 89 q 432 109 399 89 q 492 163 465 129 q 536 242 518 197 q 565 335 554 286 m 542 972 l 472 776 l 376 776 l 376 790 l 417 986 l 542 986 l 542 972 z "},"έ":{"ha":671,"x_min":68,"x_max":624,"o":"m 513 292 l 329 292 q 235 269 272 292 q 197 197 197 246 q 242 114 197 139 q 368 89 286 89 q 485 99 431 89 q 594 131 540 108 l 624 31 q 513 -7 576 7 q 368 -21 450 -21 q 242 -6 297 -21 q 147 35 186 8 q 88 99 108 61 q 68 181 68 136 q 99 285 68 244 q 188 346 129 326 l 188 349 q 117 401 146 364 q 89 496 89 439 q 155 636 89 582 q 361 690 221 690 q 490 678 426 690 q 603 644 553 665 l 576 544 q 472 571 524 561 q 364 581 419 581 q 248 553 278 581 q 218 481 218 526 q 228 441 218 457 q 256 415 239 425 q 295 399 274 404 q 338 394 317 394 l 513 394 l 513 292 m 508 972 l 439 776 l 343 776 l 343 790 l 383 986 l 508 986 l 508 972 z "},"ή":{"ha":792,"x_min":106,"x_max":693,"o":"m 194 669 l 210 608 l 213 608 q 253 633 228 619 q 309 660 278 647 q 376 681 340 672 q 449 690 413 690 q 627 626 561 690 q 693 435 693 561 l 693 -275 l 568 -275 l 568 410 q 531 538 568 496 q 418 581 494 581 q 365 574 392 581 q 312 558 338 568 q 265 537 286 549 q 231 515 244 525 l 231 0 l 106 0 l 106 669 l 194 669 m 557 972 l 488 776 l 392 776 l 392 790 l 432 986 l 557 986 l 557 972 z "},"ί":{"ha":376,"x_min":107,"x_max":349,"o":"m 232 669 l 232 164 q 248 104 232 119 q 293 89 264 89 q 324 92 307 89 q 349 97 340 94 l 349 -10 q 303 -18 329 -15 q 254 -21 276 -21 q 147 20 188 -21 q 107 153 107 61 l 107 669 l 232 669 m 297 972 l 228 776 l 132 776 l 132 790 l 172 986 l 297 986 l 297 972 z "},"ΰ":{"ha":764,"x_min":96,"x_max":690,"o":"m 221 301 q 265 141 221 193 q 393 89 310 89 q 520 146 475 89 q 565 339 565 203 q 543 506 565 418 q 492 669 521 594 l 626 669 q 649 597 638 636 q 670 514 661 557 q 685 426 679 471 q 690 339 690 382 q 612 66 690 153 q 393 -21 533 -21 q 174 56 251 -21 q 96 283 96 132 l 96 669 l 221 669 l 221 301 m 485 972 l 415 776 l 319 776 l 319 790 l 360 986 l 485 986 l 485 972 z "},"α":{"ha":842,"x_min":69,"x_max":776,"o":"m 776 0 l 651 0 l 608 165 l 607 165 q 568 92 590 126 q 515 33 546 58 q 447 -6 485 8 q 361 -21 408 -21 q 228 8 283 -21 q 138 84 174 36 q 86 197 103 132 q 69 335 69 261 q 86 472 69 407 q 138 585 103 538 q 227 662 172 633 q 360 690 282 690 q 446 676 407 690 q 515 636 485 661 q 568 577 546 611 q 607 504 590 543 l 608 504 l 651 669 l 776 669 l 679 336 l 776 0 m 565 335 q 536 428 554 383 q 492 506 518 472 q 432 560 465 540 q 360 581 399 581 q 281 561 313 581 q 231 508 250 542 q 205 430 213 475 q 197 335 197 385 q 205 240 197 285 q 231 161 213 194 q 281 108 250 128 q 360 89 313 89 q 432 109 399 89 q 492 163 465 129 q 536 242 518 197 q 565 335 554 286 z "},"β":{"ha":796,"x_min":106,"x_max":732,"o":"m 233 35 l 233 -275 l 106 -275 l 106 681 q 177 906 106 833 q 379 979 249 979 q 499 959 447 979 q 587 905 551 939 q 640 824 622 871 q 657 722 657 776 q 645 647 657 679 q 615 591 633 615 q 575 550 597 567 q 531 522 553 533 l 531 519 q 601 490 565 510 q 667 440 638 471 q 714 366 696 410 q 732 265 732 322 q 708 146 732 199 q 643 56 685 93 q 546 -1 601 19 q 428 -21 490 -21 q 313 -3 363 -21 q 236 35 264 15 l 233 35 m 233 147 q 308 106 264 122 q 421 89 353 89 q 554 136 504 89 q 604 264 604 183 q 553 407 604 356 q 386 458 503 458 l 329 458 l 329 561 l 393 561 q 496 604 463 561 q 529 714 529 647 q 490 826 529 783 q 383 869 451 869 q 270 824 307 869 q 233 671 233 779 l 233 147 z "},"γ":{"ha":699,"x_min":31,"x_max":658,"o":"m 275 -275 l 275 7 l 31 656 l 31 669 l 156 669 l 339 149 l 342 149 q 410 272 379 208 q 464 401 440 336 q 506 534 488 467 q 535 669 524 601 l 658 669 l 658 656 q 566 342 632 504 q 400 4 500 181 l 400 -275 l 275 -275 z "},"δ":{"ha":792,"x_min":67,"x_max":728,"o":"m 590 853 q 525 865 563 860 q 453 869 488 869 q 404 865 425 869 q 368 850 383 860 q 345 825 353 840 q 338 788 338 810 q 367 730 338 758 q 439 670 396 701 q 533 603 482 639 q 626 522 583 567 q 699 424 669 478 q 728 301 728 369 q 709 183 728 240 q 650 80 690 125 q 547 7 610 35 q 394 -21 483 -21 q 244 6 307 -21 q 142 78 182 33 q 85 181 103 124 q 67 297 67 238 q 131 501 67 419 q 303 632 196 583 q 238 701 263 664 q 213 788 213 739 q 231 871 213 835 q 281 931 249 907 q 357 967 313 956 q 456 979 401 979 q 489 978 471 979 q 526 974 507 976 q 561 969 544 972 q 590 964 578 967 l 590 853 m 600 301 q 581 386 600 349 q 530 456 561 424 q 460 515 499 488 q 382 571 421 543 q 313 525 346 551 q 253 465 279 499 q 210 389 226 431 q 194 297 194 347 q 205 221 194 258 q 239 154 215 183 q 301 107 263 125 q 394 89 339 89 q 490 108 451 89 q 553 156 529 126 q 589 224 578 186 q 600 301 600 263 z "},"ε":{"ha":671,"x_min":68,"x_max":624,"o":"m 513 292 l 329 292 q 235 269 272 292 q 197 197 197 246 q 242 114 197 139 q 368 89 286 89 q 485 99 431 89 q 594 131 540 108 l 624 31 q 513 -7 576 7 q 368 -21 450 -21 q 242 -6 297 -21 q 147 35 186 8 q 88 99 108 61 q 68 181 68 136 q 99 285 68 244 q 188 346 129 326 l 188 349 q 117 401 146 364 q 89 496 89 439 q 155 636 89 582 q 361 690 221 690 q 490 678 426 690 q 603 644 553 665 l 576 544 q 472 571 524 561 q 364 581 419 581 q 248 553 278 581 q 218 481 218 526 q 228 441 218 457 q 256 415 239 425 q 295 399 274 404 q 338 394 317 394 l 513 394 l 513 292 z "},"ζ":{"ha":622,"x_min":58,"x_max":599,"o":"m 599 972 l 599 888 q 407 659 486 754 q 279 494 328 564 q 208 375 231 425 q 186 282 186 325 q 213 198 186 229 q 281 146 240 167 q 369 110 322 125 q 458 73 417 94 q 526 19 499 51 q 553 -68 553 -14 q 544 -124 553 -99 q 519 -172 535 -150 q 484 -212 504 -194 q 442 -244 464 -231 l 357 -178 q 377 -162 365 -172 q 399 -140 389 -153 q 417 -113 410 -128 q 425 -82 425 -99 q 398 -37 425 -54 q 330 -3 371 -19 q 242 31 289 13 q 153 81 194 50 q 85 158 113 111 q 58 279 58 206 q 83 394 58 335 q 157 522 108 453 q 276 676 206 592 q 438 867 347 760 l 438 869 l 82 869 l 82 972 l 599 972 z "},"η":{"ha":792,"x_min":106,"x_max":693,"o":"m 194 669 l 210 608 l 213 608 q 253 633 228 619 q 309 660 278 647 q 376 681 340 672 q 449 690 413 690 q 627 626 561 690 q 693 435 693 561 l 693 -275 l 568 -275 l 568 410 q 531 538 568 496 q 418 581 494 581 q 365 574 392 581 q 312 558 338 568 q 265 537 286 549 q 231 515 244 525 l 231 0 l 106 0 l 106 669 l 194 669 z "},"θ":{"ha":824,"x_min":75,"x_max":749,"o":"m 749 479 q 731 273 749 365 q 672 115 713 181 q 568 15 632 50 q 414 -21 504 -21 q 258 15 322 -21 q 153 115 193 50 q 94 273 113 181 q 75 479 75 365 q 94 685 75 593 q 153 843 113 778 q 258 944 193 908 q 414 979 322 979 q 568 944 504 979 q 672 843 632 908 q 731 685 713 778 q 749 479 749 593 m 414 869 q 318 844 357 869 q 254 774 279 819 q 217 665 229 729 q 203 521 206 600 l 619 521 q 606 665 617 600 q 571 774 594 729 q 508 844 547 819 q 414 869 469 869 m 414 89 q 506 113 468 89 q 567 178 543 136 q 604 282 592 221 q 619 418 617 343 l 204 418 q 219 282 207 343 q 257 178 232 221 q 320 113 282 136 q 414 89 358 89 z "},"ι":{"ha":376,"x_min":107,"x_max":349,"o":"m 232 669 l 232 164 q 248 104 232 119 q 293 89 264 89 q 324 92 307 89 q 349 97 340 94 l 349 -10 q 303 -18 329 -15 q 254 -21 276 -21 q 147 20 188 -21 q 107 153 107 61 l 107 669 l 232 669 z "},"κ":{"ha":696,"x_min":106,"x_max":668,"o":"m 229 301 l 229 0 l 106 0 l 106 669 l 229 669 l 229 344 l 232 344 l 511 669 l 653 669 l 653 660 l 361 329 l 668 10 l 668 0 l 519 0 l 232 301 l 229 301 z "},"λ":{"ha":701,"x_min":28,"x_max":669,"o":"m 669 0 l 546 0 l 358 514 l 354 514 l 153 0 l 28 0 l 28 14 l 297 663 l 251 789 q 216 847 238 825 q 157 869 194 869 q 123 867 142 869 q 86 860 104 864 l 86 965 q 129 976 107 972 q 179 979 151 979 q 247 968 218 979 q 298 936 276 957 q 335 886 319 915 q 364 822 351 857 l 669 14 l 669 0 z "},"μ":{"ha":789,"x_min":107,"x_max":685,"o":"m 107 -275 l 107 669 l 232 669 l 232 225 q 267 123 232 157 q 376 89 301 89 q 429 95 403 89 q 480 111 456 101 q 525 133 504 121 q 560 154 546 144 l 560 669 l 685 669 l 685 0 l 596 0 l 581 61 l 578 61 q 538 36 563 50 q 483 10 513 22 q 417 -12 453 -3 q 346 -21 382 -21 q 283 -8 314 -21 q 232 29 251 4 l 232 -275 l 107 -275 z "},"ν":{"ha":697,"x_min":31,"x_max":658,"o":"m 658 656 q 565 340 632 503 q 397 0 499 178 l 278 0 l 31 656 l 31 669 l 156 669 l 336 149 l 339 149 q 408 272 376 208 q 463 401 439 336 q 506 534 488 467 q 535 669 524 601 l 658 669 l 658 656 z "},"ξ":{"ha":664,"x_min":68,"x_max":615,"o":"m 208 869 l 69 869 l 69 972 l 615 972 l 615 869 l 417 869 q 328 856 365 869 q 267 819 292 842 q 232 766 243 796 q 221 703 221 736 q 232 640 221 671 q 267 585 243 610 q 327 547 290 561 q 415 532 364 532 l 539 532 l 539 429 l 426 429 q 316 415 360 429 q 245 378 272 401 q 207 326 218 356 q 196 263 196 296 q 226 181 196 210 q 303 133 257 151 q 403 102 350 115 q 503 70 457 89 q 581 21 550 51 q 611 -64 611 -10 q 576 -171 611 -126 q 494 -244 542 -215 l 410 -178 q 431 -162 418 -172 q 456 -140 444 -153 q 475 -113 467 -128 q 483 -82 483 -99 q 453 -38 483 -54 q 376 -9 422 -22 q 276 20 329 4 q 176 64 222 36 q 99 136 129 92 q 68 253 68 181 q 115 401 68 340 q 233 488 161 461 l 233 490 q 183 520 208 500 q 138 567 158 540 q 106 627 118 594 q 93 696 93 660 q 124 801 93 760 q 208 867 156 842 l 208 869 z "},"ο":{"ha":797,"x_min":68,"x_max":729,"o":"m 196 335 q 206 238 196 283 q 240 160 217 193 q 302 108 264 126 q 396 89 340 89 q 492 108 453 89 q 555 160 531 126 q 590 238 579 193 q 601 335 601 283 q 590 431 601 386 q 555 510 579 476 q 492 562 531 543 q 396 581 453 581 q 302 562 340 581 q 240 510 264 543 q 206 431 217 476 q 196 335 196 386 m 729 335 q 710 197 729 261 q 651 84 692 132 q 548 8 611 36 q 396 -21 485 -21 q 246 8 308 -21 q 144 84 183 36 q 86 197 104 132 q 68 335 68 261 q 86 472 68 407 q 144 585 104 538 q 246 662 183 633 q 396 690 308 690 q 548 662 485 690 q 651 585 611 633 q 710 472 692 538 q 729 335 729 407 z "},"π":{"ha":800,"x_min":13,"x_max":769,"o":"m 769 669 l 769 567 l 636 567 l 636 164 q 652 104 636 119 q 697 89 668 89 q 728 92 711 89 q 753 97 744 94 l 753 -10 q 707 -18 733 -15 q 658 -21 681 -21 q 551 20 592 -21 q 511 153 511 61 l 511 567 l 271 567 l 271 0 l 146 0 l 146 567 l 13 567 l 13 669 l 769 669 z "},"ρ":{"ha":789,"x_min":94,"x_max":721,"o":"m 222 154 q 290 108 253 126 q 389 89 326 89 q 485 108 446 89 q 548 161 524 128 q 583 240 572 194 q 593 335 593 285 q 583 430 593 385 q 549 508 572 475 q 489 561 526 542 q 397 581 451 581 q 271 529 319 581 q 222 363 222 478 l 222 154 m 94 -275 l 94 356 q 119 510 94 447 q 185 614 143 574 q 281 672 226 654 q 397 690 336 690 q 546 662 485 690 q 646 585 607 633 q 703 472 685 538 q 721 335 721 407 q 703 197 721 261 q 650 84 686 132 q 558 8 614 36 q 424 -21 501 -21 q 303 0 354 -21 q 225 42 253 21 l 222 42 l 222 -275 l 94 -275 z "},"ς":{"ha":643,"x_min":67,"x_max":606,"o":"m 574 544 q 494 569 543 557 q 397 581 446 581 q 306 560 344 581 q 243 504 268 539 q 206 425 218 469 q 194 335 194 381 q 222 240 194 276 q 292 178 250 204 q 383 133 333 153 q 474 88 432 113 q 543 27 515 63 q 571 -64 571 -8 q 562 -121 571 -94 q 538 -170 553 -147 q 502 -212 522 -193 q 460 -244 482 -231 l 375 -178 q 395 -162 383 -172 q 417 -140 407 -153 q 435 -113 428 -128 q 443 -82 443 -99 q 415 -28 443 -50 q 346 13 388 -7 q 255 56 304 33 q 164 115 206 79 q 94 203 122 150 q 67 335 67 256 q 89 479 67 414 q 153 591 111 544 q 256 664 194 638 q 396 690 317 690 q 506 676 449 690 q 606 642 563 661 l 574 544 l 574 544 z "},"σ":{"ha":815,"x_min":69,"x_max":751,"o":"m 607 564 q 701 461 671 526 q 731 325 731 396 q 712 191 731 254 q 653 81 693 128 q 549 6 613 33 q 397 -21 486 -21 q 247 6 310 -21 q 145 81 185 33 q 88 191 106 128 q 69 325 69 254 q 88 459 69 396 q 145 569 106 522 q 247 642 185 615 q 397 669 310 669 l 751 669 l 751 567 l 607 567 l 607 564 m 197 325 q 208 232 197 275 q 242 157 218 189 q 303 107 265 125 q 397 89 342 89 q 493 107 454 89 q 556 157 532 125 q 592 232 581 189 q 603 325 603 275 q 592 418 603 375 q 556 492 581 461 q 493 542 532 524 q 397 560 454 560 q 303 542 342 560 q 242 492 265 524 q 208 418 218 461 q 197 325 197 375 z "},"τ":{"ha":642,"x_min":35,"x_max":597,"o":"m 597 669 l 597 567 l 363 567 l 363 168 q 382 108 363 126 q 436 89 401 89 q 494 95 464 89 q 540 106 525 101 l 540 -1 q 485 -14 521 -7 q 408 -21 450 -21 q 281 22 325 -21 q 238 144 238 64 l 238 567 l 35 567 l 35 669 l 597 669 z "},"υ":{"ha":764,"x_min":96,"x_max":690,"o":"m 221 301 q 265 141 221 193 q 393 89 310 89 q 520 146 475 89 q 565 339 565 203 q 543 506 565 418 q 492 669 521 594 l 626 669 q 649 597 638 636 q 670 514 661 557 q 685 426 679 471 q 690 339 690 382 q 612 66 690 153 q 393 -21 533 -21 q 174 56 251 -21 q 96 283 96 132 l 96 669 l 221 669 l 221 301 z "},"φ":{"ha":946,"x_min":71,"x_max":876,"o":"m 293 669 q 254 590 272 632 q 224 507 236 549 q 203 424 211 465 q 196 347 196 383 q 206 253 196 297 q 241 174 217 208 q 306 115 265 139 q 407 85 346 92 l 407 413 q 462 619 407 547 q 626 690 517 690 q 740 664 693 690 q 817 592 788 638 q 862 486 847 547 q 876 357 876 425 q 858 217 876 282 q 800 103 840 153 q 694 24 760 54 q 532 -15 628 -7 l 532 -275 l 407 -275 l 407 -15 q 249 23 313 -8 q 145 102 185 54 q 88 213 106 150 q 71 346 71 275 q 78 429 71 386 q 98 515 86 472 q 125 597 110 557 q 156 669 140 636 l 293 669 m 532 86 q 636 117 594 94 q 703 175 678 140 q 738 256 728 210 q 749 356 749 301 q 742 440 749 400 q 720 512 735 481 q 683 562 706 543 q 626 581 660 581 q 577 569 596 581 q 549 534 558 557 q 535 478 539 511 q 532 401 532 444 l 532 86 z "},"χ":{"ha":701,"x_min":25,"x_max":679,"o":"m 150 669 l 350 296 l 354 296 l 554 669 l 679 669 l 679 656 l 426 197 l 679 -261 l 679 -275 l 556 -275 l 354 97 l 350 97 l 150 -275 l 25 -275 l 25 -261 l 278 197 l 25 656 l 25 669 l 150 669 z "},"ψ":{"ha":968,"x_min":96,"x_max":896,"o":"m 550 86 q 638 100 597 86 q 708 144 679 114 q 754 223 738 175 q 771 339 771 271 q 746 506 771 418 q 688 669 721 594 l 825 669 q 850 597 838 636 q 873 514 863 557 q 890 426 883 471 q 896 339 896 382 q 870 178 896 246 q 799 68 844 111 q 689 4 753 25 q 550 -17 625 -17 l 550 -275 l 425 -275 l 425 -17 q 290 2 350 -17 q 186 58 229 21 q 119 152 143 96 q 96 283 96 208 l 96 669 l 221 669 l 221 301 q 276 140 221 193 q 425 86 332 86 l 425 972 l 550 972 l 550 86 z "},"ω":{"ha":1146,"x_min":71,"x_max":1075,"o":"m 964 669 q 1009 597 989 636 q 1044 514 1029 557 q 1067 426 1058 471 q 1075 339 1075 382 q 1001 66 1075 153 q 793 -21 926 -21 q 664 12 718 -21 q 575 111 610 44 l 572 111 q 481 12 536 44 q 353 -21 426 -21 q 145 66 219 -21 q 71 339 71 153 q 78 426 71 382 q 101 514 86 471 q 136 597 115 557 q 182 669 157 636 l 315 669 l 315 656 q 228 499 261 581 q 196 339 196 417 q 238 146 196 203 q 353 89 279 89 q 469 141 428 89 q 511 301 511 193 l 511 499 l 636 499 l 636 301 q 677 141 636 193 q 793 89 718 89 q 909 146 868 89 q 950 339 950 203 q 917 499 950 417 q 831 656 883 581 l 831 669 l 964 669 z "},"ϊ":{"ha":376,"x_min":-43,"x_max":393,"o":"m 232 669 l 232 164 q 248 104 232 119 q 293 89 264 89 q 324 92 307 89 q 349 97 340 94 l 349 -10 q 303 -18 329 -15 q 254 -21 276 -21 q 147 20 188 -21 q 107 153 107 61 l 107 669 l 232 669 m -43 881 q -22 938 -43 917 q 36 958 0 958 q 95 938 74 958 q 117 881 117 917 q 95 823 117 844 q 36 801 74 801 q -22 823 0 801 q -43 881 -43 844 m 233 881 q 255 938 233 917 q 313 958 276 958 q 372 938 350 958 q 393 881 393 917 q 372 823 393 844 q 313 801 350 801 q 255 823 276 801 q 233 881 233 844 z "},"ϋ":{"ha":764,"x_min":96,"x_max":690,"o":"m 221 301 q 265 141 221 193 q 393 89 310 89 q 520 146 475 89 q 565 339 565 203 q 543 506 565 418 q 492 669 521 594 l 626 669 q 649 597 638 636 q 670 514 661 557 q 685 426 679 471 q 690 339 690 382 q 612 66 690 153 q 393 -21 533 -21 q 174 56 251 -21 q 96 283 96 132 l 96 669 l 221 669 l 221 301 m 163 881 q 184 938 163 917 q 242 958 206 958 q 301 938 279 958 q 322 881 322 917 q 301 823 322 844 q 242 801 279 801 q 184 823 206 801 q 163 881 163 844 m 439 881 q 460 938 439 917 q 518 958 482 958 q 577 938 556 958 q 599 881 599 917 q 577 823 599 844 q 518 801 556 801 q 460 823 482 801 q 439 881 439 844 z "},"ό":{"ha":797,"x_min":68,"x_max":729,"o":"m 196 335 q 206 238 196 283 q 240 160 217 193 q 302 108 264 126 q 396 89 340 89 q 492 108 453 89 q 555 160 531 126 q 590 238 579 193 q 601 335 601 283 q 590 431 601 386 q 555 510 579 476 q 492 562 531 543 q 396 581 453 581 q 302 562 340 581 q 240 510 264 543 q 206 431 217 476 q 196 335 196 386 m 729 335 q 710 197 729 261 q 651 84 692 132 q 548 8 611 36 q 396 -21 485 -21 q 246 8 308 -21 q 144 84 183 36 q 86 197 104 132 q 68 335 68 261 q 86 472 68 407 q 144 585 104 538 q 246 662 183 633 q 396 690 308 690 q 548 662 485 690 q 651 585 611 633 q 710 472 692 538 q 729 335 729 407 m 531 972 l 461 776 l 365 776 l 365 790 l 406 986 l 531 986 l 531 972 z "},"ύ":{"ha":764,"x_min":96,"x_max":690,"o":"m 221 301 q 265 141 221 193 q 393 89 310 89 q 520 146 475 89 q 565 339 565 203 q 543 506 565 418 q 492 669 521 594 l 626 669 q 649 597 638 636 q 670 514 661 557 q 685 426 679 471 q 690 339 690 382 q 612 66 690 153 q 393 -21 533 -21 q 174 56 251 -21 q 96 283 96 132 l 96 669 l 221 669 l 221 301 m 486 972 l 417 776 l 321 776 l 321 790 l 361 986 l 486 986 l 486 972 z "},"ώ":{"ha":1146,"x_min":71,"x_max":1075,"o":"m 964 669 q 1009 597 989 636 q 1044 514 1029 557 q 1067 426 1058 471 q 1075 339 1075 382 q 1001 66 1075 153 q 793 -21 926 -21 q 664 12 718 -21 q 575 111 610 44 l 572 111 q 481 12 536 44 q 353 -21 426 -21 q 145 66 219 -21 q 71 339 71 153 q 78 426 71 382 q 101 514 86 471 q 136 597 115 557 q 182 669 157 636 l 315 669 l 315 656 q 228 499 261 581 q 196 339 196 417 q 238 146 196 203 q 353 89 279 89 q 469 141 428 89 q 511 301 511 193 l 511 499 l 636 499 l 636 301 q 677 141 636 193 q 793 89 718 89 q 909 146 868 89 q 950 339 950 203 q 917 499 950 417 q 831 656 883 581 l 831 669 l 964 669 m 713 972 l 643 776 l 547 776 l 547 790 l 588 986 l 713 986 l 713 972 z "},"Ѐ":{"ha":814,"x_min":126,"x_max":732,"o":"m 728 944 l 728 829 l 254 829 l 254 539 l 683 539 l 683 424 l 254 424 l 254 115 l 732 115 l 732 0 l 126 0 l 126 944 l 728 944 m 279 1226 l 415 1226 l 490 1058 l 490 1044 l 383 1044 l 279 1213 l 279 1226 z "},"Ё":{"ha":814,"x_min":126,"x_max":732,"o":"m 728 944 l 728 829 l 254 829 l 254 539 l 683 539 l 683 424 l 254 424 l 254 115 l 732 115 l 732 0 l 126 0 l 126 944 l 728 944 m 194 1133 q 216 1190 194 1169 q 274 1211 238 1211 q 333 1190 311 1211 q 354 1133 354 1169 q 333 1076 354 1097 q 274 1054 311 1054 q 216 1076 238 1054 q 194 1133 194 1097 m 499 1133 q 520 1190 499 1169 q 578 1211 542 1211 q 637 1190 615 1211 q 658 1133 658 1169 q 637 1076 658 1097 q 578 1054 615 1054 q 520 1076 542 1054 q 499 1133 499 1097 z "},"Ђ":{"ha":964,"x_min":40,"x_max":911,"o":"m 625 -79 q 687 -1 658 -42 q 735 84 715 40 q 767 173 756 128 q 779 263 779 218 q 766 344 779 308 q 728 403 753 379 q 667 440 703 428 q 588 453 632 453 q 481 442 535 453 q 374 415 426 431 l 374 0 l 246 0 l 246 829 l 40 829 l 40 944 l 669 944 l 669 829 l 374 829 l 374 531 q 484 557 422 546 q 608 568 546 568 q 735 547 679 568 q 831 488 792 526 q 890 392 869 449 q 911 263 911 335 q 895 147 911 201 q 852 40 879 92 q 790 -58 825 -11 q 715 -150 754 -106 l 625 -79 z "},"Ѓ":{"ha":769,"x_min":126,"x_max":728,"o":"m 728 944 l 728 829 l 254 829 l 254 0 l 126 0 l 126 944 l 728 944 m 583 1213 l 479 1044 l 372 1044 l 372 1058 l 447 1226 l 583 1226 l 583 1213 z "},"Є":{"ha":828,"x_min":79,"x_max":767,"o":"m 79 472 q 108 673 79 582 q 191 829 136 764 q 327 930 246 894 q 515 965 408 965 q 640 949 576 965 q 767 904 704 933 l 732 803 q 620 838 672 829 q 515 847 568 847 q 297 763 371 847 q 213 532 224 678 l 628 532 l 628 417 l 213 417 q 297 183 224 268 q 515 97 369 97 q 620 106 568 97 q 732 142 672 115 l 767 40 q 640 -5 704 11 q 515 -21 576 -21 q 327 15 408 -21 q 191 115 246 50 q 108 271 136 181 q 79 472 79 361 z "},"Ѕ":{"ha":744,"x_min":64,"x_max":676,"o":"m 121 183 q 174 148 146 164 q 232 121 201 132 q 297 103 263 110 q 368 97 331 97 q 496 133 447 97 q 544 249 544 169 q 536 303 544 279 q 510 344 528 326 q 462 377 492 363 q 390 407 432 392 l 304 438 q 142 537 200 474 q 85 693 85 600 q 106 801 85 751 q 166 888 126 851 q 263 945 206 925 q 393 965 319 965 q 467 958 429 965 q 539 940 504 951 q 603 915 574 929 q 656 888 633 901 l 604 785 q 501 830 554 813 q 393 847 447 847 q 260 806 304 847 q 217 703 217 765 q 242 619 217 653 q 342 560 268 586 l 433 528 q 537 481 492 507 q 613 423 582 456 q 660 349 644 390 q 676 257 676 308 q 654 145 676 196 q 592 58 632 94 q 494 0 551 21 q 368 -21 438 -21 q 274 -12 318 -21 q 193 10 231 -4 q 123 44 156 25 q 64 82 90 63 l 121 183 z "},"І":{"ha":381,"x_min":126,"x_max":254,"o":"m 254 0 l 126 0 l 126 944 l 254 944 l 254 0 z "},"Ї":{"ha":381,"x_min":-43,"x_max":421,"o":"m 254 0 l 126 0 l 126 944 l 254 944 l 254 0 m -43 1133 q -22 1190 -43 1169 q 36 1211 0 1211 q 95 1190 74 1211 q 117 1133 117 1169 q 95 1076 117 1097 q 36 1054 74 1054 q -22 1076 0 1054 q -43 1133 -43 1097 m 261 1133 q 283 1190 261 1169 q 340 1211 304 1211 q 399 1190 378 1211 q 421 1133 421 1169 q 399 1076 421 1097 q 340 1054 378 1054 q 283 1076 304 1054 q 261 1133 261 1097 z "},"Ј":{"ha":644,"x_min":28,"x_max":525,"o":"m 92 169 q 123 144 107 157 q 158 120 139 131 q 200 103 176 110 q 253 97 224 97 q 313 109 286 97 q 359 147 340 121 q 388 213 378 174 q 397 310 397 253 l 397 944 l 525 944 l 525 300 q 452 60 525 142 q 253 -21 379 -21 q 124 10 182 -21 q 28 81 67 42 l 92 169 z "},"Љ":{"ha":1350,"x_min":18,"x_max":1290,"o":"m 761 944 l 761 568 l 981 568 q 1210 494 1129 568 q 1290 283 1290 419 q 1210 75 1290 150 q 981 0 1129 0 l 633 0 l 633 829 l 322 829 l 308 510 q 292 303 303 389 q 266 158 282 217 q 227 66 250 100 q 174 14 204 32 q 104 -9 143 -4 q 18 -14 65 -14 l 18 101 q 88 110 58 101 q 136 159 117 119 q 167 281 156 199 q 186 510 179 363 l 204 944 l 761 944 m 761 115 l 967 115 q 1106 153 1054 115 q 1158 283 1158 192 q 1107 414 1158 375 q 967 453 1056 453 l 761 453 l 761 115 z "},"Њ":{"ha":1385,"x_min":126,"x_max":1325,"o":"m 796 944 l 796 568 l 1015 568 q 1244 494 1164 568 q 1325 283 1325 419 q 1244 75 1325 150 q 1015 0 1164 0 l 668 0 l 668 453 l 254 453 l 254 0 l 126 0 l 126 944 l 254 944 l 254 568 l 668 568 l 668 944 l 796 944 m 796 115 l 1001 115 q 1141 153 1089 115 q 1193 283 1193 192 q 1142 414 1193 375 q 1001 453 1090 453 l 796 453 l 796 115 z "},"Ћ":{"ha":994,"x_min":40,"x_max":917,"o":"m 789 0 l 789 363 q 745 491 789 449 q 606 533 701 533 q 541 528 575 533 q 476 517 507 524 q 418 504 444 511 q 375 493 392 497 l 375 0 l 247 0 l 247 829 l 40 829 l 40 944 l 669 944 l 669 829 l 375 829 l 375 611 q 481 635 413 622 q 632 649 549 649 q 749 633 696 649 q 839 584 801 617 q 897 503 876 551 q 917 393 917 456 l 917 0 l 789 0 z "},"Ќ":{"ha":835,"x_min":126,"x_max":813,"o":"m 254 431 l 254 0 l 126 0 l 126 944 l 254 944 l 254 481 l 257 481 l 644 944 l 793 944 l 793 931 l 394 463 l 813 14 l 813 0 l 656 0 l 257 431 l 254 431 m 585 1213 l 481 1044 l 374 1044 l 374 1058 l 449 1226 l 585 1226 l 585 1213 z "},"Ѝ":{"ha":975,"x_min":126,"x_max":849,"o":"m 257 188 l 704 944 l 849 944 l 849 0 l 721 0 l 721 757 l 718 757 l 272 0 l 126 0 l 126 944 l 254 944 l 254 188 l 257 188 m 332 1226 l 468 1226 l 543 1058 l 543 1044 l 436 1044 l 332 1213 l 332 1226 z "},"Ў":{"ha":768,"x_min":29,"x_max":753,"o":"m 753 931 l 447 210 q 397 115 424 154 q 338 49 371 75 q 261 12 304 24 q 161 0 218 0 l 108 0 l 108 117 l 149 117 q 205 121 181 117 q 249 138 229 125 q 286 172 269 150 q 318 228 303 193 l 340 276 l 29 931 l 29 944 l 163 944 l 403 417 l 407 417 l 621 944 l 753 944 l 753 931 m 410 1164 q 501 1173 457 1164 q 576 1208 544 1182 l 618 1150 q 531 1081 585 1103 q 410 1060 478 1060 q 290 1081 343 1060 q 203 1150 236 1103 l 244 1208 q 320 1173 276 1182 q 410 1164 364 1164 z "},"Џ":{"ha":963,"x_min":126,"x_max":836,"o":"m 431 -196 l 418 0 l 126 0 l 126 944 l 254 944 l 254 115 l 708 115 l 708 944 l 836 944 l 836 0 l 542 0 l 531 -196 l 431 -196 z "},"А":{"ha":876,"x_min":17,"x_max":860,"o":"m 860 0 l 726 0 l 642 236 l 235 236 l 149 0 l 17 0 l 374 944 l 503 944 l 860 0 m 436 794 l 276 344 l 599 344 l 439 794 l 436 794 z "},"Б":{"ha":851,"x_min":126,"x_max":783,"o":"m 726 944 l 726 829 l 254 829 l 254 568 l 474 568 q 703 494 622 568 q 783 283 783 419 q 703 75 783 150 q 474 0 622 0 l 126 0 l 126 944 l 726 944 m 254 115 l 460 115 q 599 153 547 115 q 651 283 651 192 q 600 414 651 375 q 460 453 549 453 l 254 453 l 254 115 z "},"В":{"ha":868,"x_min":126,"x_max":794,"o":"m 254 115 l 474 115 q 552 123 517 115 q 612 148 588 131 q 649 194 636 165 q 663 265 663 222 q 612 384 663 351 q 472 417 561 417 l 254 417 l 254 115 m 436 944 q 674 885 594 944 q 754 701 754 825 q 718 565 754 619 q 631 490 682 510 l 631 488 q 751 406 707 464 q 794 256 794 349 q 715 68 794 136 q 488 0 635 0 l 126 0 l 126 944 l 436 944 m 254 532 l 426 532 q 510 538 474 532 q 572 561 547 544 q 610 606 597 578 q 622 681 622 635 q 610 755 622 726 q 574 800 599 783 q 513 823 550 817 q 426 829 476 829 l 254 829 l 254 532 z "},"Г":{"ha":769,"x_min":126,"x_max":728,"o":"m 728 944 l 728 829 l 254 829 l 254 0 l 126 0 l 126 944 l 728 944 z "},"Д":{"ha":957,"x_min":17,"x_max":890,"o":"m 35 -196 l 17 115 l 85 115 q 136 189 114 151 q 175 274 158 226 q 203 387 192 322 q 219 543 214 451 l 244 944 l 806 944 l 806 115 l 890 115 l 872 -196 l 772 -196 l 761 0 l 146 0 l 135 -196 l 35 -196 m 678 115 l 678 829 l 363 829 l 342 535 q 326 378 335 444 q 303 264 317 313 q 271 180 289 215 q 228 115 253 144 l 678 115 z "},"Е":{"ha":814,"x_min":126,"x_max":732,"o":"m 728 944 l 728 829 l 254 829 l 254 539 l 683 539 l 683 424 l 254 424 l 254 115 l 732 115 l 732 0 l 126 0 l 126 944 l 728 944 z "},"Ж":{"ha":1289,"x_min":22,"x_max":1267,"o":"m 578 431 l 182 0 l 22 0 l 22 14 l 440 463 l 42 931 l 42 944 l 193 944 l 578 481 l 581 481 l 581 944 l 708 944 l 708 481 l 711 481 l 1096 944 l 1247 944 l 1247 931 l 849 463 l 1267 14 l 1267 0 l 1107 0 l 711 431 l 708 431 l 708 0 l 581 0 l 581 431 l 578 431 z "},"З":{"ha":758,"x_min":50,"x_max":685,"o":"m 186 539 l 354 539 q 488 584 447 539 q 529 693 529 629 q 485 802 529 757 q 354 847 442 847 q 231 835 289 847 q 114 799 174 822 l 75 903 q 135 928 101 917 q 206 949 169 940 q 280 961 242 957 q 356 965 318 965 q 582 894 503 965 q 661 701 661 822 q 649 628 661 663 q 619 567 638 594 q 576 520 600 540 q 529 490 553 500 l 529 488 q 641 401 597 461 q 685 253 685 340 q 660 140 685 190 q 590 54 635 90 q 482 -1 544 18 q 346 -21 419 -21 q 178 -1 254 -21 q 50 50 103 18 l 94 154 q 216 110 156 124 q 344 97 276 97 q 425 108 388 97 q 491 139 463 118 q 536 190 519 160 q 553 261 553 221 q 543 324 553 294 q 509 376 533 354 q 445 411 485 399 q 346 424 406 424 l 186 424 l 186 539 z "},"И":{"ha":975,"x_min":126,"x_max":849,"o":"m 257 188 l 704 944 l 849 944 l 849 0 l 721 0 l 721 757 l 718 757 l 272 0 l 126 0 l 126 944 l 254 944 l 254 188 l 257 188 z "},"Й":{"ha":975,"x_min":126,"x_max":849,"o":"m 500 1164 q 591 1173 547 1164 q 667 1208 635 1182 l 708 1150 q 622 1081 675 1103 q 500 1060 568 1060 q 380 1081 433 1060 q 293 1150 326 1103 l 335 1208 q 410 1173 367 1182 q 500 1164 454 1164 m 257 188 l 704 944 l 849 944 l 849 0 l 721 0 l 721 757 l 718 757 l 272 0 l 126 0 l 126 944 l 254 944 l 254 188 l 257 188 z "},"К":{"ha":835,"x_min":126,"x_max":813,"o":"m 254 431 l 254 0 l 126 0 l 126 944 l 254 944 l 254 481 l 257 481 l 644 944 l 793 944 l 793 931 l 394 463 l 813 14 l 813 0 l 656 0 l 257 431 l 254 431 z "},"Л":{"ha":943,"x_min":18,"x_max":817,"o":"m 689 829 l 322 829 l 308 510 q 292 303 303 389 q 266 158 282 217 q 227 66 250 100 q 174 14 204 32 q 104 -9 143 -4 q 18 -14 65 -14 l 18 101 q 88 110 58 101 q 136 159 117 119 q 167 281 156 199 q 186 510 179 363 l 204 944 l 817 944 l 817 0 l 689 0 l 689 829 z "},"М":{"ha":1149,"x_min":126,"x_max":1022,"o":"m 575 394 l 900 944 l 1022 944 l 1022 0 l 894 0 l 894 710 l 892 710 l 621 238 l 529 238 l 257 710 l 254 710 l 254 0 l 126 0 l 126 944 l 247 944 l 572 394 l 575 394 z "},"Н":{"ha":976,"x_min":126,"x_max":850,"o":"m 722 424 l 254 424 l 254 0 l 126 0 l 126 944 l 254 944 l 254 539 l 722 539 l 722 944 l 850 944 l 850 0 l 722 0 l 722 424 z "},"О":{"ha":999,"x_min":81,"x_max":918,"o":"m 213 472 q 226 324 213 393 q 274 206 240 256 q 363 126 307 156 q 500 97 418 97 q 638 126 583 97 q 726 206 693 156 q 772 324 758 256 q 786 472 786 393 q 772 620 786 551 q 726 739 758 689 q 638 818 693 789 q 500 847 583 847 q 363 818 418 847 q 274 739 307 789 q 226 620 240 689 q 213 472 213 551 m 918 472 q 894 278 918 368 q 821 121 871 188 q 692 17 771 54 q 500 -21 613 -21 q 308 17 388 -21 q 178 121 229 54 q 104 278 128 188 q 81 472 81 368 q 104 667 81 576 q 178 824 128 757 q 308 928 229 890 q 500 965 388 965 q 692 928 613 965 q 821 824 771 890 q 894 667 871 757 q 918 472 918 576 z "},"П":{"ha":976,"x_min":126,"x_max":850,"o":"m 722 829 l 254 829 l 254 0 l 126 0 l 126 944 l 850 944 l 850 0 l 722 0 l 722 829 z "},"Р":{"ha":824,"x_min":126,"x_max":767,"o":"m 126 0 l 126 944 l 461 944 q 598 924 540 944 q 693 867 656 904 q 749 776 731 829 q 767 654 767 722 q 748 533 767 586 q 692 442 729 479 q 597 384 654 404 q 461 364 539 364 l 254 364 l 254 0 l 126 0 m 254 479 l 450 479 q 592 527 549 479 q 635 654 635 575 q 592 781 635 733 q 450 829 549 829 l 254 829 l 254 479 z "},"С":{"ha":831,"x_min":79,"x_max":767,"o":"m 79 472 q 108 673 79 582 q 191 829 136 764 q 327 930 246 894 q 515 965 408 965 q 640 949 576 965 q 767 904 704 933 l 732 803 q 620 838 672 829 q 515 847 568 847 q 378 821 436 847 q 283 746 321 794 q 228 628 246 697 q 211 472 211 558 q 228 317 211 386 q 283 199 246 247 q 378 124 321 150 q 515 97 436 97 q 620 106 568 97 q 732 142 672 115 l 767 40 q 640 -5 704 11 q 515 -21 576 -21 q 327 15 408 -21 q 191 115 246 50 q 108 271 136 181 q 79 472 79 361 z "},"Т":{"ha":768,"x_min":44,"x_max":724,"o":"m 724 944 l 724 829 l 449 829 l 449 0 l 321 0 l 321 829 l 44 829 l 44 944 l 724 944 z "}}}
